<svg width="91" height="82" viewBox="0 0 91 82" fill="none" xmlns="http://www.w3.org/2000/svg">
<g id="Group" opacity="0.1">
<path id="Vector" d="M62.9498 0.0337858C61.5193 0.571072 60.1938 1.35472 59.0338 2.34924C58.6483 2.75561 58.2272 3.12627 57.775 3.45661C56.8186 4.05378 56.1378 5.00594 55.8827 6.10424C55.7946 6.71801 55.6459 7.3216 55.4397 7.9063C55.2737 8.22284 55.2003 8.57996 55.2288 8.93611C55.2574 9.29257 55.3862 9.63375 55.6006 9.91994C55.9733 10.4633 56.2952 11.0372 56.6073 11.6009C56.839 12.0037 56.8288 12.3861 56.3456 12.6076C55.8623 12.8292 55.9932 13.0201 56.1444 13.3628C56.2447 13.6078 56.2447 13.8828 56.1444 14.1277C55.6108 15.3157 54.9864 16.4635 54.5032 17.6612C53.7368 19.2902 52.8202 20.8439 51.7651 22.3023C51.2518 23.1074 50.4866 23.7419 49.9228 24.5068C48.9161 25.8863 47.7181 27.1145 46.7416 28.5338C45.1308 30.8594 43.2886 32.9936 41.4966 35.2082C39.9941 37.1545 38.7489 39.2861 37.792 41.5506C37.3993 42.4667 36.9362 43.3528 36.5034 44.2383C35.7282 45.8394 34.9329 47.4195 34.198 49.0205C33.6946 50.0975 33.302 51.2148 32.8188 52.2923C32.2449 53.5705 31.6409 54.8293 31.0269 56.0876C30.1107 57.99 29.2651 59.9231 28.2382 61.7655C26.5979 64.4491 24.5883 66.8893 22.2684 69.0138C22.0738 69.2124 21.8362 69.3637 21.5738 69.4563C19.7886 70.0002 17.9966 70.5272 16.198 71.037C15.448 71.1841 14.7521 71.532 14.1845 72.0437C13.1779 73.0505 12.1107 74.0572 11.0939 75.1246C10.6053 75.6455 9.96371 75.9979 9.26174 76.1313C8.74319 76.2413 8.21889 76.3218 7.69128 76.3727C7.23827 76.3727 6.78521 76.282 6.3322 76.3121C5.70254 76.3793 5.11733 76.6685 4.68121 77.1279C4.31315 77.5393 3.87306 77.8805 3.38255 78.1346C2.39229 78.572 1.52462 79.2463 0.855707 80.0977C0.528711 80.5443 0.242334 81.0194 0 81.5169C0.795302 81.8087 1.34899 82.0001 2.01342 81.688C2.67785 81.3758 3.59396 80.9832 4.38926 80.611C5.33941 80.0748 6.38648 79.7326 7.46982 79.6042C8.71147 79.537 9.95638 79.5604 11.1946 79.6745C11.7078 79.7346 12.2278 79.676 12.7148 79.5034C13.5167 79.1582 14.2767 78.7223 14.9799 78.2049C15.7177 77.5806 16.6003 77.1513 17.547 76.9568C18.4976 76.7943 19.4643 76.747 20.4262 76.8157C22.6611 77.0168 24.8859 77.3091 27.1107 77.6208C29.4002 78.045 31.7335 78.1835 34.057 78.0338C35.5168 77.8825 36.9765 77.8423 38.4261 77.6916C39.8598 77.6294 41.2801 77.3896 42.6544 76.9766C42.9578 76.9069 43.27 76.8829 43.5805 76.9063C44.8591 76.9063 46.1376 76.9063 47.406 76.8055C48.8557 76.6848 50.2953 76.4027 51.7452 76.2219C53.6441 75.9037 55.4921 75.3349 57.2418 74.5303C59.4564 73.6244 61.6309 72.6278 63.8154 71.6511C64.6501 71.3216 65.4577 70.928 66.2317 70.4733C67.9025 69.3962 69.5738 68.3192 71.1646 67.1511C72.7549 65.9834 74.6376 65.0877 75.8052 63.396C75.8505 63.3161 75.9167 63.2499 75.9967 63.2051C76.6342 62.8399 77.1603 62.3073 77.5167 61.6646C77.6232 61.5119 77.7408 61.3667 77.8691 61.2318C79.0566 60.028 80.1474 58.732 81.1307 57.3561C82.6238 55.4836 84.0089 53.5272 85.2784 51.4969C86.333 49.8755 87.1686 48.1222 87.7649 46.2819C88.0369 45.2049 88.4397 44.1477 88.7717 43.0707C89.1949 41.6107 89.6577 40.1411 89.9394 38.6511C90.3936 36.5261 90.4547 34.3354 90.1206 32.188C89.9195 31.0005 89.8793 29.7819 89.7183 28.574C89.6175 27.8392 89.366 27.1242 89.285 26.3792C89.0243 24.6855 88.5405 23.0336 87.8454 21.4667C87.2216 19.7755 86.4965 18.1144 85.9429 16.433C85.6537 15.3845 85.1109 14.4236 84.3623 13.6342C84.0797 13.3435 83.8205 13.0303 83.5872 12.6983C82.4155 10.861 80.9576 9.2228 79.2685 7.84585C78.2617 7.11098 77.4261 6.05393 76.1072 5.74182C76.0634 5.72981 76.0227 5.70821 75.9875 5.67863C75.9529 5.64904 75.9249 5.61223 75.906 5.57072C75.4834 4.64454 74.5271 4.24184 73.8926 3.55729C73.7658 3.41979 73.5947 3.33083 73.4093 3.30563C72.5125 3.04765 71.5837 2.91882 70.6508 2.92304C70.026 2.98089 69.4037 2.78912 68.9194 2.38947C67.5975 1.4392 66.1233 0.720886 64.5604 0.26533C64.0589 0.027928 63.4977 -0.0527829 62.9498 0.0337858Z" fill="white"/>
<path id="Vector_2" d="M62.9498 0.0337858C61.5193 0.571072 60.1938 1.35472 59.0338 2.34924C58.6483 2.75561 58.2272 3.12627 57.775 3.45661C56.8186 4.05378 56.1378 5.00594 55.8827 6.10424C55.7946 6.71801 55.6459 7.3216 55.4397 7.9063C55.2737 8.22284 55.2003 8.57996 55.2288 8.93611C55.2574 9.29257 55.3862 9.63375 55.6006 9.91994C55.9733 10.4633 56.2952 11.0372 56.6073 11.6009C56.839 12.0037 56.8288 12.3861 56.3456 12.6076C55.8623 12.8292 55.9932 13.0201 56.1444 13.3628C56.2447 13.6078 56.2447 13.8828 56.1444 14.1277C55.6108 15.3157 54.9864 16.4635 54.5032 17.6612C53.7368 19.2902 52.8202 20.8439 51.7651 22.3023C51.2518 23.1074 50.4866 23.7419 49.9228 24.5068C48.9161 25.8863 47.7181 27.1145 46.7416 28.5338C45.1308 30.8594 43.2886 32.9936 41.4966 35.2082C39.9941 37.1545 38.7489 39.2861 37.792 41.5506C37.3993 42.4667 36.9362 43.3528 36.5034 44.2383C35.7282 45.8394 34.9329 47.4195 34.198 49.0205C33.6946 50.0975 33.302 51.2148 32.8188 52.2923C32.2449 53.5705 31.6409 54.8293 31.0269 56.0876C30.1107 57.99 29.2651 59.9231 28.2382 61.7655C26.5979 64.4491 24.5883 66.8893 22.2684 69.0138C22.0738 69.2124 21.8362 69.3637 21.5738 69.4563C19.7886 70.0002 17.9966 70.5272 16.198 71.037C15.448 71.1841 14.7521 71.532 14.1845 72.0437C13.1779 73.0505 12.1107 74.0572 11.0939 75.1246C10.6053 75.6455 9.96371 75.9979 9.26174 76.1313C8.74319 76.2413 8.21889 76.3218 7.69128 76.3727C7.23827 76.3727 6.78521 76.282 6.3322 76.3121C5.70254 76.3793 5.11733 76.6685 4.68121 77.1279C4.31315 77.5393 3.87306 77.8805 3.38255 78.1346C2.39229 78.572 1.52462 79.2463 0.855707 80.0977C0.528711 80.5443 0.242334 81.0194 0 81.5169C0.795302 81.8087 1.34899 82.0001 2.01342 81.688C2.67785 81.3758 3.59396 80.9832 4.38926 80.611C5.33941 80.0748 6.38648 79.7326 7.46982 79.6042C8.71147 79.537 9.95638 79.5604 11.1946 79.6745C11.7078 79.7346 12.2278 79.676 12.7148 79.5034C13.5167 79.1582 14.2767 78.7223 14.9799 78.2049C15.7177 77.5806 16.6003 77.1513 17.547 76.9568C18.4976 76.7943 19.4643 76.747 20.4262 76.8157C22.6611 77.0168 24.8859 77.3091 27.1107 77.6208C29.4002 78.045 31.7335 78.1835 34.057 78.0338C35.5168 77.8825 36.9765 77.8423 38.4261 77.6916C39.8598 77.6294 41.2801 77.3896 42.6544 76.9766C42.9578 76.9069 43.27 76.8829 43.5805 76.9063C44.8591 76.9063 46.1376 76.9063 47.406 76.8055C48.8557 76.6848 50.2953 76.4027 51.7452 76.2219C53.6441 75.9037 55.4921 75.3349 57.2418 74.5303C59.4564 73.6244 61.6309 72.6278 63.8154 71.6511C64.6501 71.3216 65.4577 70.928 66.2317 70.4733C67.9025 69.3962 69.5738 68.3192 71.1646 67.1511C72.7549 65.9834 74.6376 65.0877 75.8052 63.396C75.8505 63.3161 75.9167 63.2499 75.9967 63.2051C76.6342 62.8399 77.1603 62.3073 77.5167 61.6646C77.6232 61.5119 77.7408 61.3667 77.8691 61.2318C79.0566 60.028 80.1474 58.732 81.1307 57.3561C82.6238 55.4836 84.0089 53.5272 85.2784 51.4969C86.333 49.8755 87.1686 48.1222 87.7649 46.2819C88.0369 45.2049 88.4397 44.1477 88.7717 43.0707C89.1949 41.6107 89.6577 40.1411 89.9394 38.6511C90.3936 36.5261 90.4547 34.3354 90.1206 32.188C89.9195 31.0005 89.8793 29.7819 89.7183 28.574C89.6175 27.8392 89.366 27.1242 89.285 26.3792C89.0243 24.6855 88.5405 23.0336 87.8454 21.4667C87.2216 19.7755 86.4965 18.1144 85.9429 16.433C85.6537 15.3845 85.1109 14.4236 84.3623 13.6342C84.0797 13.3435 83.8205 13.0303 83.5872 12.6983C82.4155 10.861 80.9576 9.2228 79.2685 7.84585C78.2617 7.11098 77.4261 6.05393 76.1072 5.74182C76.0634 5.72981 76.0227 5.70821 75.9875 5.67863C75.9529 5.64904 75.9249 5.61223 75.906 5.57072C75.4834 4.64454 74.5271 4.24184 73.8926 3.55729C73.7658 3.41979 73.5947 3.33083 73.4093 3.30563C72.5125 3.04765 71.5837 2.91882 70.6508 2.92304C70.026 2.98089 69.4037 2.78912 68.9194 2.38947C67.5975 1.4392 66.1233 0.720886 64.5604 0.26533C64.0589 0.027928 63.4977 -0.0527829 62.9498 0.0337858ZM63.0302 1.66464L64.037 3.37605C63.1911 3.37605 63.0302 2.57071 62.3759 2.36936C61.9328 3.26535 63.2013 3.37605 63.0501 4.08077C62.5974 4.37271 62.3555 3.93982 62.0438 3.70827C61.7515 3.41873 61.4755 3.11288 61.2179 2.79217L63.0302 1.66464ZM60.6445 13.0003C60.5095 12.6041 60.2386 12.2685 59.8791 12.0541C59.3857 11.7017 58.772 11.44 58.6509 10.725C58.6412 10.6812 58.6218 10.6405 58.5938 10.6059C58.5658 10.5707 58.5302 10.5427 58.4899 10.5239C57.775 10.3528 57.5937 9.67806 57.2617 9.18461C56.9806 8.72682 56.84 8.19661 56.8579 7.65958C56.8757 7.12254 57.0514 6.60267 57.3625 6.16469C57.4328 6.43646 57.4832 6.70829 57.5738 6.97003C57.6354 7.17556 57.7419 7.36473 57.886 7.52371C57.9563 7.60427 58.1579 7.52371 58.3086 7.52371C58.3086 7.39284 58.3086 7.27205 58.2582 7.14118L57.775 5.57072C58.2638 5.0288 58.8749 4.61124 59.5573 4.3526C59.3256 4.3526 59.1845 4.17137 59.4162 4.00021C59.8995 3.62776 60.423 3.29554 60.896 2.99352C61.2281 3.47672 61.5203 3.86934 61.7821 4.30224C61.8493 4.47166 61.8804 4.65355 61.8722 4.83581C61.6869 4.80072 61.5076 4.73971 61.3391 4.65457C61.0539 4.4105 60.7815 4.15176 60.5233 3.87942L59.5165 4.40291C60.453 4.3526 61.0065 4.98679 60.8054 6.06401L59.7987 4.87609C59.1142 4.81569 59.7182 5.54053 59.3358 5.72171C59.0206 5.90539 58.7211 6.11412 58.4395 6.34587C58.3692 6.60761 58.2985 6.88947 58.2282 7.17138C58.413 7.1921 58.5847 7.277 58.7135 7.41128C58.8423 7.54556 58.9197 7.72069 58.933 7.9063C59.0134 9.24521 60.0502 10.0304 60.6643 11.057C60.7993 11.2536 60.9077 11.467 60.9867 11.6915C61.0366 11.8682 61.1221 12.0327 61.2387 12.1753C61.3549 12.3174 61.499 12.434 61.6624 12.518C61.8259 12.602 62.0046 12.6519 62.1879 12.6637C62.3713 12.6754 62.5551 12.6494 62.7282 12.5873C62.3473 12.543 61.9888 12.3846 61.7001 12.1336C61.4109 11.882 61.2041 11.549 61.1074 11.1782C61.7317 11.5709 62.2149 11.8525 62.6676 12.185C62.7481 12.2451 62.6676 12.4467 62.7282 12.5975C63.2456 12.6642 63.7666 12.7013 64.2885 12.7085C64.8324 12.6688 65.3737 12.598 65.9094 12.4966L66.9161 14.0976L66.0403 14.309C65.9394 13.5436 65.6879 12.9799 64.8925 12.9198C64.8925 13.4433 64.8925 13.4433 65.225 14.1679C65.0035 14.3594 64.8222 14.5407 64.5905 14.1679C64.2361 13.6872 63.8037 13.2686 63.3118 12.93C63.3118 13.4229 63.3118 13.6745 63.3118 14.0172L62.7583 13.5237C62.6376 13.6342 62.4965 13.705 62.4365 13.8257C62.4039 13.8975 62.3555 13.9612 62.2954 14.0121C62.2348 14.063 62.1635 14.0992 62.0871 14.1185C62.0107 14.1379 61.9308 14.1399 61.8534 14.1241C61.7765 14.1078 61.7037 14.0747 61.641 14.0269C61.2133 13.7921 60.866 13.4346 60.6445 13.0003ZM69.6441 8.37942C68.6781 9.22892 67.601 9.94336 66.4431 10.5035C66.0718 10.668 65.6711 10.7541 65.2652 10.7551C66.7206 9.8461 68.0191 8.70696 69.1109 7.38276C68.7682 7.33245 68.5569 7.23177 68.4464 7.30225C67.9937 7.5091 67.5868 7.80333 67.2482 8.16804C66.383 9.14897 65.3009 9.91434 64.0874 10.4027C63.6764 10.6252 63.2446 10.807 62.7985 10.9465C62.577 11.027 62.2954 11.0978 62.1946 10.6548L65.2754 8.86278C65.3559 8.81237 65.4664 8.792 65.5168 8.72172C65.9797 8.08748 66.4329 7.4432 66.9966 6.64789C66.7807 6.6817 66.5704 6.74612 66.3723 6.83916C65.9496 7.15121 65.5468 7.48343 65.1445 7.84585C64.3588 8.48906 63.4839 9.01453 62.547 9.40613C62.2246 9.55737 61.832 9.49677 61.5402 9.9398C61.2484 10.3828 60.9561 9.72847 60.6944 9.46673C62.6172 7.89622 64.9729 7.02034 66.5133 4.8962C67.2283 5.24854 68.0639 5.50025 68.4565 6.40627C68.5854 6.62101 68.7651 6.80076 68.98 6.92975L70.8927 8.36934L70.1879 9.03388C70.1879 8.67131 70.1879 8.4801 70.1879 8.19824C69.997 8.22477 69.8126 8.28618 69.6441 8.37942ZM82.3391 18.366C82.3391 18.6782 82.3391 19 82.2683 19.3121H82.1476L81.8253 18.5977C82.0066 18.5071 82.1675 18.4062 82.3391 18.3258L82.9833 17.7015C83.5068 18.5172 83.5068 18.5172 82.9833 18.9297L82.2984 18.3258L82.3391 18.366ZM76.9428 21.6077L78.3223 21.6882C78.443 22.2519 78.5438 22.6949 78.6543 23.2989L77.1343 23.0672C77.0839 22.6445 77.0233 22.1913 76.9428 21.6077ZM76.1474 22.9266C75.6743 22.6445 75.6545 22.5437 75.8556 21.4967C76.208 22.121 76.208 22.121 76.1474 22.9266ZM69.6038 29.8827L68.3858 29.762L69.3925 30.6175C69.3925 30.9098 69.3019 31.2118 69.2418 31.6243L67.3286 30.839C67.6713 31.6548 68.5166 31.8458 69.0299 32.4095C69.0299 32.7919 68.9296 33.1749 68.8492 33.6678L66.2414 32.2888L67.6509 27.7989C68.3053 28.131 68.8991 28.3927 69.4531 28.715C70.0066 29.0374 69.7749 29.43 69.6038 29.8827ZM71.1142 30.7789L70.2078 30.3054C70.2078 29.9733 70.2984 29.6816 70.3392 29.3893C71.4763 29.5003 71.5975 29.732 71.1142 30.7789ZM70.0469 31.1812C71.1341 31.4832 71.1443 31.4832 70.8927 32.5709L69.8859 32.0474C69.9364 31.6747 69.9964 31.4129 70.0469 31.1812ZM69.7851 32.8327L70.7919 33.2655C70.691 33.6377 70.5805 34.0105 70.4598 34.453C70.0973 34.2819 69.7953 34.1414 69.4531 33.9601C69.5438 33.5272 69.6542 33.1947 69.7851 32.8021V32.8327ZM70.7114 27.0239C71.4666 27.1446 71.5669 27.225 71.5873 27.8794C71.5873 28.272 71.5873 28.6646 71.5873 29.1881C70.359 28.3626 70.359 28.3626 70.7114 26.9933V27.0239ZM69.7653 28.0306C68.9597 27.7786 68.9296 27.6177 69.3222 26.2081L70.1273 26.5004L69.7653 28.0306ZM68.3353 27.4262C67.9631 27.4766 67.7518 27.3763 67.7818 27.0539C67.9127 25.2319 68.0537 23.4094 68.2045 21.4565C68.8089 21.7788 68.6781 22.1613 68.6979 22.4632C68.6577 23.0799 68.6577 23.6986 68.6979 24.3158C68.7886 24.8795 68.3756 25.3226 68.4968 25.9163C68.5207 26.4052 68.4667 26.8945 68.3353 27.3661V27.4262ZM70.8122 25.9265C70.8122 25.3928 71.2349 25.4132 71.6576 25.2319C71.6576 25.6444 71.6576 26.0171 71.6576 26.4602C71.2145 26.3191 70.8525 26.3089 70.8122 25.8659V25.9265ZM69.9964 25.735C69.2015 25.5339 68.9897 25.1917 69.2718 24.245C70.3086 24.628 70.3188 24.658 69.9964 25.6749V25.735ZM70.8423 23.0575C71.849 23.47 71.849 23.4904 71.4966 24.6983C70.5199 24.3759 71.2451 23.4802 70.8423 22.9969V23.0575ZM70.1477 23.8927C69.3523 23.8927 69.2515 23.7521 69.312 23.1074C69.312 22.7754 69.4027 22.4434 69.4633 22.0406C70.3992 22.534 70.47 22.5137 70.1477 23.8326V23.8927ZM70.9126 21.4769C71.4666 21.4769 71.5471 21.8191 71.5369 22.3624C71.0134 22.121 70.7012 21.9698 70.9126 21.4163V21.4769ZM70.1273 21.7488L69.312 21.376C69.3625 21.0741 69.4027 20.8123 69.4429 20.5404C70.2684 20.7319 70.2684 20.7319 70.1273 21.6882V21.7488ZM71.3052 19.7353L71.406 20.8424C70.7516 20.2486 70.7516 20.2486 71.3052 19.6645V19.7353ZM70.3794 20.1279C70.1813 20.0948 69.9863 20.048 69.7953 19.9869C69.6838 19.9375 69.5763 19.8804 69.473 19.8158C69.4633 19.6615 69.4633 19.5067 69.473 19.3524C69.5132 19.1619 69.5636 18.974 69.6242 18.7887C70.3488 18.8793 70.2383 19.4532 70.3794 20.1076V20.1279ZM68.6577 20.9834H68.4565C68.4565 20.0673 68.5569 19.1614 68.6276 18.0538C68.9077 18.9847 68.9179 19.9762 68.6577 20.9132V20.9834ZM69.4633 15.2653H69.6945C69.9802 16.2456 70.1059 17.265 70.0672 18.2855C69.8355 18.1343 69.614 18.064 69.6038 17.9734C69.5336 17.0873 69.4633 16.1514 69.4633 15.2653ZM68.8186 17.7116C68.5874 17.5507 68.4061 17.5003 68.4061 17.4199C68.3267 16.5465 68.426 15.6661 68.6979 14.8325C69.0442 15.7552 69.0834 16.765 68.8089 17.7116H68.8186ZM70.6309 16.0806C71.0052 16.8668 71.1417 17.7452 71.0236 18.6074C70.633 17.8267 70.496 16.9432 70.6309 16.0806ZM72.6444 15.5169C73.2682 15.3157 73.5504 15.5169 73.6512 16.131L73.0269 16.4432C73.1374 16.5638 73.1878 16.6647 73.2484 16.6647C73.4205 16.6596 73.5885 16.7171 73.7215 16.8261C73.8549 16.9356 73.944 17.0889 73.973 17.2584C74.2348 18.4266 74.5271 19.5943 74.829 20.8826L73.7316 21.0843C73.3894 19.2215 73.0269 17.4097 72.6643 15.5474L72.6444 15.5169ZM67.1881 12.0541C67.4595 12.6581 67.7014 13.2218 67.9529 13.7855L67.7818 13.896L66.5841 12.2955L67.1881 12.0541ZM63.0002 12.215C63.3322 12.0164 63.7044 11.8957 64.0894 11.8606C64.4744 11.826 64.8624 11.8779 65.225 12.0139C64.9138 12.2583 64.5401 12.4101 64.1469 12.4528C63.7538 12.4956 63.3561 12.4274 63.0002 12.2553V12.215ZM72.3022 14.5503C72.1612 14.1379 71.9397 13.6948 72.4733 13.1815L73.2484 14.6614C72.564 15.1242 72.483 15.0738 72.3022 14.5911V14.5503ZM75.9162 15.0036C76.4397 14.8121 76.5808 15.2047 76.8018 15.7384C76.3287 15.7384 75.9463 16.0908 75.795 15.5169C75.7349 15.4165 75.8154 15.0738 75.9162 15.0738V15.0036ZM74.7888 16.0806C74.3554 16.0103 74.3356 15.6783 74.2954 15.3458C74.9293 15.3962 74.9293 15.3962 74.7888 16.0806ZM78.8153 17.1983C78.1915 17.1983 78.2011 16.7451 78 16.5236C78 16.7451 78 16.9768 78.0906 17.319L76.3088 17.5105L76.0573 16.5037C76.5706 16.5037 76.9734 16.1412 77.396 16.6041C77.4765 16.6947 77.7887 16.6041 78 16.5338L78.3722 16.3423L78.8153 17.1983ZM79.3189 16.4834C79.6911 16.7253 79.7013 16.7151 79.9931 17.2488C79.5302 17.0873 79.5302 17.0873 79.3693 16.5236L79.3189 16.4834ZM76.7921 19L76.4698 18.1949C78.0204 17.6011 78.5739 17.7722 78.8657 18.8895C78.2918 19.2016 78.3524 18.5371 78.0102 18.3258C77.9414 18.5702 77.7831 18.7795 77.5661 18.9124C77.3497 19.0448 77.091 19.0906 76.8425 19.0407L76.7921 19ZM75.7451 19.1008C75.6041 19.1008 75.3826 19.1008 75.3525 19.1008C75.2369 18.8681 75.1422 18.6257 75.0704 18.3762C75.3321 18.1343 75.5236 18.1648 75.6143 18.4266C75.6769 18.6471 75.7207 18.8727 75.7451 19.1008ZM74.9095 17.5909C74.8061 17.3099 74.7287 17.0201 74.6778 16.7253C75.2013 16.8159 75.574 17.3893 75.3423 17.6312C75.2731 17.6617 75.1977 17.675 75.1218 17.6699C75.0465 17.6648 74.9736 17.6409 74.9095 17.6011V17.5909ZM80.0435 17.9836C80.6577 18.064 80.6678 18.0742 80.6979 18.9195C79.9931 18.9598 79.9931 18.9598 80.0435 17.9937V17.9836ZM75.5032 19.6543C75.6275 19.7037 75.7375 19.7822 75.8235 19.884C75.9101 19.9853 75.9707 20.1065 75.9992 20.2364C76.0283 20.3668 76.0247 20.5017 75.989 20.6305C75.9534 20.7589 75.8867 20.8765 75.795 20.9732C75.6611 20.7843 75.5664 20.5699 75.5165 20.3433C75.4661 20.1172 75.4615 19.883 75.5032 19.6543ZM79.0673 21.8491C79.9025 21.3862 80.3659 21.5874 80.6072 23.2989C79.4696 23.5606 79.2883 23.3997 79.0368 21.8491H79.0673ZM81.4933 23.0071C81.423 22.6848 81.2921 22.3726 81.1511 21.9398L81.8655 21.7488C82.1904 22.2499 82.3681 22.8324 82.3793 23.4298C81.8859 23.5907 81.5437 23.5606 81.4632 23.0071H81.4933ZM76.9128 21.1143C76.9128 20.571 76.8425 20.1982 76.812 19.7149L77.9195 19.6141C78 20.0877 78.0703 20.4701 78.1512 20.9936L76.9128 21.1143ZM78.5938 19.7251C78.7501 19.6487 78.9288 19.6309 79.0969 19.6752C79.2649 19.72 79.4116 19.8234 79.5098 19.9665C79.8826 20.4299 79.9126 20.4701 79.7818 21.1347H78.9864C78.8555 20.631 78.7246 20.1682 78.5938 19.6747V19.7251ZM80.7279 21.1143C80.5874 20.6713 80.4463 20.2084 80.3053 19.7353C81.312 19.5642 81.7046 19.9466 81.6848 21.2554L80.7279 21.1143ZM83.6575 19.413C84.3221 20.3087 84.3119 20.4701 83.517 20.6713C83.0638 19.7048 83.0638 19.7048 83.6575 19.4333V19.413ZM81.644 17.8527C81.0503 17.1581 81.3222 16.685 82.4598 16.4233C82.802 17.2284 82.802 17.2284 81.6746 17.8726L81.644 17.8527ZM80.8287 16.5542C80.8287 16.131 80.8288 15.8092 80.9092 15.688C80.9897 15.5673 81.5539 15.1548 82.027 15.7786L80.8287 16.5542ZM78.5739 15.4364C77.7082 15.7689 77.5671 15.7282 77.1847 14.9129L78.0204 14.5407C78.2515 14.8931 78.4328 15.1645 78.6039 15.4568L78.5739 15.4364ZM80.3455 14.6614C80.6149 14.4999 80.8939 14.3553 81.1811 14.2285C81.1811 14.5004 81.3018 14.8121 81.2417 14.8426C80.9744 15.0285 80.6607 15.137 80.3353 15.1548C80.1342 15.1548 80.1443 14.8223 80.376 14.6812L80.3455 14.6614ZM75.0302 13.5034C74.9395 12.9096 74.1141 12.5975 74.6579 11.883C75.3826 12.5776 75.5032 12.9498 75.0602 13.5237L75.0302 13.5034ZM76.0369 12.0638L77.5167 13.896C77.5213 13.953 77.5213 14.0106 77.5167 14.0671C77.3054 14.0671 77.0034 14.1277 76.9026 14.007C76.4871 13.4433 76.1235 12.8439 75.8154 12.215L76.0369 12.0638ZM73.6609 13.8257C73.5503 13.5339 73.4597 13.262 73.2988 12.819C74.1243 13.2416 74.1645 13.4031 73.641 13.8461L73.6609 13.8257ZM69.4633 13.3022C69.2418 13.5843 68.9999 13.7249 68.7585 13.4127C68.5166 13.1011 68.1138 12.4564 67.7518 11.9329C67.9025 11.8423 68.0537 11.7114 68.094 11.7318C68.6669 12.1412 69.1353 12.6789 69.4633 13.3022ZM65.9394 11.6814L67.2482 11.3692C67.1926 11.4924 67.1096 11.6009 67.0052 11.6864C66.9003 11.772 66.7776 11.8321 66.6462 11.8621C66.5143 11.8927 66.3779 11.8922 66.2465 11.8606C66.1151 11.829 65.9929 11.7679 65.889 11.6814H65.9394ZM60.3018 8.60089C60.1307 7.65459 60.3018 7.18146 61.0269 6.88947C61.7515 6.59753 62.4059 6.35595 63.0404 6.05393C63.3882 5.86984 63.7243 5.66478 64.0471 5.43985C64.48 5.19822 64.9026 4.93648 65.3457 4.73513C65.5835 4.67219 65.8361 4.69353 66.0606 4.79553C64.3186 6.33833 62.3616 7.62011 60.2519 8.60089H60.3018ZM18.7852 71.0171C19.5086 70.6276 20.3196 70.4305 21.141 70.4432L18.8255 71.2183L18.7852 71.0171ZM27.1812 76.554L26.7886 75.5472L28.4698 74.903L30.7751 76.3829C29.6216 76.7999 28.3691 76.8595 27.1812 76.554ZM21.6342 74.6413L22.3188 75.2855C22.2893 75.3293 22.2656 75.3766 22.2483 75.4265L20.6477 75.1846L21.6342 74.6413ZM19.6208 75.0034L19.047 74.8929V74.7218L19.6308 74.8124C19.6058 74.8745 19.5856 74.9382 19.5704 75.0034H19.6208ZM40.208 67.8558C40.4295 68.0071 40.651 68.1476 40.8926 68.2887C39.8859 69.1447 39.8053 69.2954 38.6275 67.9266L39.4832 67.3828C39.6946 67.564 39.9262 67.7148 40.1577 67.8558H40.208ZM40.208 67.0304L41.2147 66.4061L42.5033 67.2519C41.4866 68.1578 41.1342 68.1176 40.208 67.0304ZM37.9027 68.3691C38.3356 68.581 38.7383 68.8626 39.1611 69.1243C38.6477 69.658 38.6477 69.658 37.3893 68.6411C37.6208 68.5204 37.8222 68.3289 37.9027 68.3691ZM29.5369 72.6278C31.208 71.45 31.208 71.8624 32.2147 72.6579L30.5738 73.4635C30.2013 73.1712 29.8691 72.9094 29.5369 72.6278ZM29.7886 73.6346C28.9027 74.3393 28.5906 74.3291 27.5839 73.5139C28.6309 72.7286 28.6309 72.7286 29.7886 73.6544V73.6346ZM34.3792 71.5406L32.9094 72.3157L31.9732 71.5707L33.2215 70.8058L34.3792 71.5406ZM34.0872 70.5339C35.094 69.8693 35.094 69.8693 36.1007 70.7854L35.0436 71.2891L34.0872 70.5339ZM33.604 72.7887C34.3792 72.1644 34.7215 72.0437 35.3456 72.0941L36.7147 71.2483L37.5402 71.6817C37.5402 71.3894 37.5402 71.1984 37.5402 70.9769L38.7684 70.4432L39.453 70.9769C37.7834 72.0661 36.0096 72.9868 34.1577 73.7252L33.604 72.7887ZM35.8288 69.7084C36.8356 68.8926 36.9362 68.9028 37.8423 69.8189C37.2483 70.7248 36.5235 70.6444 35.8288 69.7084ZM35.8893 68.6309C35.1745 69.2654 35.1745 69.2654 34.4094 68.8223L32.7483 67.8762C32.7483 67.7856 32.7483 67.7051 32.7483 67.6241L33.755 67.0604L35.8893 68.6309ZM34.2785 69.6376L33.4127 70.101L31.208 68.7317L32.3456 68.198C32.6778 68.9329 33.6342 68.9833 34.2785 69.6076V69.6376ZM32.698 70.3826L31.208 71.1078L29.4161 70.101L30.4228 69.1946L32.698 70.3826ZM29.9798 71.3894C28.4597 72.2148 28.9027 72.3961 27.3121 71.2081C28.4094 70.5038 29.1946 70.544 29.9798 71.45V71.3894ZM27.8456 72.557L26.8389 73.0805L25.6208 72.2856C26.2248 71.3792 26.7584 71.45 27.8456 72.5774V72.557ZM24.2819 72.2148L26.1745 73.4635C25.7114 73.7654 25.3892 73.9966 25.057 74.1881C25.0013 74.2181 24.9391 74.2339 24.8758 74.2339C24.8126 74.2339 24.7503 74.2181 24.6946 74.1881C23.8691 73.6646 23.0638 73.1213 22.2483 72.5774C22.2483 72.5774 22.198 72.4669 22.1376 72.3258L23.5973 71.5406L24.2819 72.2148ZM27.6745 74.5303C26.9295 74.5303 26.2651 75.3359 25.4094 74.6311C26.7382 73.7756 27.0604 73.6946 27.6745 74.5507V74.5303ZM21.8053 73.2924C21.3624 73.7654 21.3221 73.7552 20.5671 72.8692C20.6772 72.8152 20.797 72.7836 20.9194 72.777C21.0419 72.7699 21.1645 72.7877 21.2799 72.829C21.3954 72.8702 21.5014 72.9344 21.5917 73.0174C21.682 73.1004 21.7546 73.2007 21.8053 73.3122V73.2924ZM20.1342 73.6447C19.5503 73.7654 19.5503 73.7654 19.3792 73.1615L20.1342 73.6447ZM24.0101 74.7116L23.1543 75.2554C22.7617 74.8725 22.4094 74.5104 22.0168 74.1377C22.8624 73.7552 23.2248 73.8759 24.0402 74.7116H24.0101ZM26.2852 76.3625L24.9161 76.2316C25.7617 75.4769 25.8725 75.4769 26.3154 76.3625H26.2852ZM38.0235 76.3625C36.1593 76.8101 34.2388 76.9761 32.3255 76.8559C33.4731 76.554 34.641 76.3024 35.7584 75.9296C36.1345 75.7494 36.5574 75.6903 36.9685 75.7606C37.3797 75.8309 37.7589 76.0274 38.0537 76.3223L38.0235 76.3625ZM41.0436 75.9098L40.6308 75.9699C40.6358 75.9098 40.6358 75.8492 40.6308 75.7886H41.0436C41.0526 75.8151 41.0593 75.8421 41.0637 75.8696L41.0436 75.9098ZM37.8523 75.396C37.9869 75.2412 38.152 75.1159 38.3373 75.0278C38.5226 74.9397 38.7241 74.8908 38.9292 74.8842C39.1343 74.8776 39.3386 74.9132 39.5292 74.9891C39.7198 75.065 39.8926 75.1796 40.0369 75.3257C39.3322 75.8191 38.6577 76.141 37.8725 75.3557L37.8523 75.396ZM42.4933 75.7285C42.302 75.7886 42.0302 75.5172 41.7181 75.3461C42.4731 74.8022 43.1275 74.43 44.0134 75.094C43.587 75.4428 43.0629 75.6506 42.5134 75.6883L42.4933 75.7285ZM53.9094 68.6813C53.3355 69.5674 53.1945 69.6178 52.3996 69.215L51.6138 68.7618L52.0874 68.2989C52.2183 68.168 52.3588 68.0473 52.5503 67.8859L53.9094 68.6813ZM53.1038 67.423L53.8488 66.708L54.6544 67.0604L55.3689 67.423C54.5434 68.4297 54.5434 68.4297 53.1038 67.423ZM55.9331 69.7486C55.349 70.4432 55.0669 70.4432 54.0907 69.7486C54.8255 69.0439 54.9966 69.0439 55.9331 69.7385V69.7486ZM50.6275 68.802C49.7114 69.6779 49.6208 69.6779 48.7047 69.0943C49.4396 68.1884 49.661 68.1476 50.6275 68.7923V68.802ZM51.0099 69.054L52.4398 69.7685C51.7447 70.5537 51.4931 70.7752 50.2248 69.7084L51.0099 69.054ZM53.1746 70.0608L53.8188 70.292L54.4329 70.5339C53.4262 71.2891 53.4262 71.3996 52.4194 70.7248L53.1746 70.0608ZM51.0404 70.8257C49.9228 71.6817 49.9228 71.6817 48.9665 70.9265L49.7013 70.1311L51.0404 70.8257ZM52.6812 71.5406C52.1979 71.7621 51.8353 71.9434 51.4631 72.0743C51.3521 72.0743 51.2014 72.0035 51.0404 71.9531C51.7549 71.178 51.7549 71.178 52.6812 71.5605V71.5406ZM49.2382 71.8426C48.594 72.5876 48.594 72.5876 47.698 72.0137C48.3221 71.2891 48.4832 71.2687 49.2382 71.8624V71.8426ZM45.9765 71.9531C45.0604 72.9598 44.9195 72.9598 43.4496 72.2148L44.9295 71.3491L45.9765 71.9531ZM46.9832 72.3055L47.9194 72.7989C47.1946 73.6447 47.0235 73.6646 45.8456 73.0505L46.9832 72.3055ZM43.9631 73.2318C43.2282 74.1178 42.3926 73.7853 41.4564 73.4833C42.5235 72.527 42.8859 72.5372 44.0235 73.2521L43.9631 73.2318ZM46.1174 73.8657C44.7886 75.0237 44.8288 74.8725 43.7315 74.2181C44.547 73.7451 45.2416 73.0805 46.1778 73.8861L46.1174 73.8657ZM41.557 74.2787C41.2047 74.8725 41.2047 74.8725 39.6644 74.3694C40.4094 73.8158 41.0033 74.0776 41.6174 74.2991L41.557 74.2787ZM45.4228 75.3557C46.2685 74.7722 47.0134 74.1983 47.8087 73.7349C48.3361 73.5022 48.8859 73.3234 49.4497 73.2017C49.4497 73.1213 49.4497 72.8997 49.3893 72.668C49.7013 72.4669 49.953 72.0743 50.5067 72.3559L49.8624 72.9298C50.5601 72.9211 51.2472 72.7597 51.8756 72.4567C52.4373 72.1787 53.0157 71.9368 53.6075 71.7316C52.3996 73.2618 47.3154 75.9296 45.4832 75.3761L45.4228 75.3557ZM58.0169 72.7286C56.9327 73.2007 55.8027 73.5587 54.6442 73.7955C55.4295 73.2822 56.2147 72.7887 57.0203 72.2754C57.4934 72.0335 57.6747 72.4567 58.077 72.7485L58.0169 72.7286ZM58.772 72.2454C57.9715 71.9281 57.2403 71.4601 56.6175 70.8659C55.983 71.1174 56.4566 71.5004 56.4866 71.7718C53.3355 74.1983 49.8826 75.7988 48.3322 75.4163C48.4389 75.3344 48.5536 75.2636 48.6745 75.205C50.8696 74.3337 52.9093 73.1136 54.7145 71.591C55.2584 71.148 56.0034 70.9667 56.3756 70.2823C56.4143 70.2212 56.4693 70.1728 56.5345 70.1418C56.5997 70.1107 56.672 70.099 56.7433 70.1071C56.8151 70.1158 56.8828 70.1443 56.9388 70.1891C56.9948 70.2344 57.0371 70.2945 57.0605 70.3628C57.2113 71.0273 57.7347 71.2789 58.1981 71.6211C58.4487 71.7932 58.6641 72.0116 58.8321 72.2652L58.772 72.2454ZM62.0739 68.6915C62.3657 68.4094 62.4864 68.2082 62.5974 68.2082C63.2115 68.2082 63.6041 68.6411 64.1072 69.0739C63.2217 69.7186 62.9294 68.7118 62.134 68.7118L62.0739 68.6915ZM65.9094 68.5504C65.7082 68.9736 65.4867 69.2048 64.9026 68.9935C65.3054 68.6614 65.5066 68.4297 65.97 68.5708L65.9094 68.5504ZM67.0669 67.8456L66.3224 68.2082C66.6142 67.6745 66.6142 67.6746 67.1275 67.866L67.0669 67.8456ZM68.567 66.678C67.8928 67.4031 67.8928 67.4031 67.4192 66.9097C67.8322 66.7284 68.0537 66.2151 68.6276 66.6984L68.567 66.678ZM70.1981 65.6712C69.3222 66.3964 69.3222 66.3964 68.7987 65.8327C69.4633 65.1075 69.4633 65.1075 70.2582 65.7217L70.1981 65.6712ZM71.5068 64.6645C70.9329 65.2786 70.9329 65.2786 70.0672 64.7653C70.7618 64.0305 70.7618 64.0305 71.5669 64.6849L71.5068 64.6645ZM73.0875 63.4464C72.6139 64.2418 72.453 64.2719 71.4462 63.7285C71.9901 62.8425 72.594 63.4968 73.1476 63.4668L73.0875 63.4464ZM73.8926 62.7819L73.611 63.1648L72.4932 62.6312C72.9866 62.5777 73.4857 62.6362 73.9532 62.8023L73.8926 62.7819ZM74.8993 61.7751C74.3758 62.3292 74.1344 62.319 72.3022 61.6646C72.4229 61.4233 72.5334 61.2017 72.6444 61.0001L74.8993 61.7751ZM76.3689 60.4262C75.574 61.3729 75.463 61.4329 74.3554 60.9095L73.611 60.5672C74.4262 60.4466 75.0602 61.1009 75.7451 60.497C75.3724 59.9735 74.7384 60.1645 74.2653 59.9027C73.7856 59.6893 73.2907 59.5111 72.785 59.3695C72.6343 59.6715 72.5232 59.8828 72.4331 60.0942H71.1646L71.9799 60.9599C71.5975 61.6142 70.7919 61.5944 70.1777 62.0674L71.1845 63.0742C70.9126 63.507 70.5805 63.5671 70.1176 63.2651C69.7933 63.1012 69.4567 62.9632 69.1109 62.8527C68.6073 63.8594 69.9465 63.4765 69.9465 64.1716C69.7749 64.4634 69.5437 64.7047 69.0707 64.3523C68.7483 64.1532 68.4117 63.9781 68.0639 63.8289C67.792 64.3523 67.792 64.3523 68.7381 65.0775C68.4464 65.8123 68.0838 65.7217 67.6005 65.3795C67.1173 65.0373 66.5938 64.745 66.1411 64.4333C66.0846 64.5148 66.0469 64.608 66.0301 64.7057C66.0138 64.8035 66.0184 64.9033 66.0443 64.9991C66.0703 65.0948 66.1166 65.1839 66.1798 65.2603C66.2434 65.3362 66.3229 65.3973 66.4125 65.4401C66.7649 65.6814 67.1376 65.8928 67.5099 66.1143C67.047 66.9397 66.9161 66.98 66.2114 66.4366C66.0403 66.3057 65.9094 66.1041 65.7179 66.0236C65.5315 65.9926 65.3411 65.9926 65.1542 66.0236C65.1542 66.2253 65.1542 66.4768 65.2754 66.5975C65.5926 66.8812 65.9292 67.1439 66.2816 67.3828C66.1207 67.5136 66 67.6343 65.8692 67.755L64.067 66.376C63.9916 66.4539 63.9361 66.5486 63.9056 66.653C63.875 66.7569 63.8704 66.8669 63.8923 66.9733C63.9142 67.0798 63.9616 67.1791 64.0308 67.2626C64.1001 67.3461 64.1882 67.4118 64.2885 67.453C64.6109 67.6745 64.9632 67.866 65.4159 68.1278L64.6613 68.7923C63.9667 68.4501 63.3724 68.0977 63.3928 67.121C63.0908 67.2921 62.7481 67.3624 62.5872 67.5742C62.5067 67.728 62.3937 67.863 62.2562 67.9689C62.1182 68.0748 61.9588 68.1497 61.7897 68.1879C61.6202 68.226 61.444 68.2271 61.2744 68.1904C61.1043 68.1542 60.9444 68.0814 60.8054 67.9765C60.9159 68.4399 60.9969 68.7419 61.057 68.9833C61.9277 69.1747 62.7099 69.6488 63.2818 70.3322C63.02 70.6041 62.7985 70.6546 62.547 70.403C62.0535 69.9197 61.5402 69.4568 61.057 68.9833H60.896C60.6643 68.9232 60.3924 68.7419 60.2615 69.0943C60.1307 69.4467 60.4326 69.4665 60.6343 69.6178C61.1476 70.0104 61.641 70.4534 62.0937 70.8557C61.9028 71.3491 61.6512 71.339 61.3289 71.1174C60.7148 70.6846 60.1006 70.2721 59.4763 69.8693C59.24 69.7405 58.9946 69.6295 58.7415 69.5373C58.4599 70.1713 58.8724 70.3628 59.2049 70.5441C59.7482 70.8761 60.3221 71.178 61.0972 71.5508L59.8287 72.0641C58.8917 71.5162 58.1116 70.736 57.5636 69.799C58.2786 69.245 59.0338 68.7017 59.7584 68.1176C60.1419 67.8059 60.5055 67.4693 60.8456 67.1108C61.0972 66.8389 61.0773 66.819 60.8456 66.2752C60.7081 66.3821 60.5773 66.4962 60.453 66.6179C59.4901 67.6868 58.3616 68.5942 57.1109 69.3056C56.9852 69.3937 56.836 69.4406 56.6827 69.4406C56.5299 69.4406 56.3802 69.3937 56.2549 69.3056C55.9127 69.1045 55.5502 68.943 55.1677 68.7317C55.2782 68.4934 55.4544 68.2907 55.6754 68.1481C55.8964 68.0056 56.1531 67.9287 56.4158 67.9266C56.8441 68.0203 57.2551 68.1797 57.6344 68.3997L57.7347 68.2286L56.8792 67.423C57.03 67.1312 57.5234 66.8796 57.0906 66.3256L55.9631 67.121L54.3626 66.2956C55.0669 65.6412 55.7116 65.0271 56.3756 64.4129C56.478 64.2912 56.6195 64.2087 56.7759 64.1812C56.9327 64.1537 57.0941 64.1823 57.2316 64.2622L58.7013 65.1075C58.1375 65.7018 57.6344 65.9834 56.9093 65.5709C56.7759 65.4655 56.6114 65.408 56.4413 65.408C56.2712 65.408 56.1062 65.4655 55.9733 65.5709C56.5482 65.9345 57.1629 66.2319 57.8055 66.4565C58.3891 66.5873 58.8123 67.2723 59.5975 66.9499C59.3658 66.376 58.7114 66.5675 58.4293 66.1443C58.8525 65.7721 59.2349 65.3494 59.8689 65.8123C60.1307 66.0038 60.3827 65.933 60.6042 65.5806L59.9295 65.1075C60.5243 64.2042 61.198 63.3553 61.943 62.5706C62.2048 62.3796 62.5571 62.0873 62.3056 61.5638C62.1141 61.6544 61.8722 61.6947 61.7515 61.8459C61.0162 62.4621 60.369 63.177 59.8287 63.9699C59.4763 64.6747 59.1647 64.745 58.4899 64.3625C58.1172 64.1614 57.7653 63.9297 57.3824 63.6883C58.0871 62.953 58.7216 62.3292 59.3154 61.6748C59.5069 61.4533 59.8287 61.1208 59.2548 60.7989C58.6712 61.4233 58.0973 62.0776 57.4934 62.6816C56.4062 63.7484 55.3088 64.8056 54.191 65.8327C53.9731 65.9849 53.7317 66.1005 53.4766 66.1749C53.3513 66.4346 53.1996 66.681 53.0234 66.9097C52.6206 67.3023 52.1877 67.6649 51.7549 68.0167C51.1408 68.5306 51.1408 68.5306 50.3255 67.9164C50.6903 67.6751 51.0277 67.395 51.3322 67.0808C51.5537 66.7987 52.1073 66.5471 51.6444 65.9432C51.2314 66.3358 50.8691 66.708 50.4765 67.0406C50.0839 67.3726 49.9832 67.6343 49.5302 67.5437C49.4891 67.5462 49.4491 67.5574 49.4126 67.5768C49.3762 67.5956 49.3442 67.6221 49.3188 67.6547C49.2483 68.3997 48.4732 68.3691 48.1711 68.8223L47.094 68.3895C47.4161 69.5373 48.5436 69.326 49.1074 69.9197C48.9362 70.3826 48.4429 70.433 48.1007 70.6846C47.3521 70.3312 46.5696 70.0547 45.7651 69.8591C46.1074 70.5741 46.9027 70.6245 47.4563 71.0976C47.4178 71.1994 47.3572 71.2911 47.2789 71.3665C47.2006 71.4418 47.1065 71.4989 47.0035 71.5335C46.9005 71.5681 46.791 71.5798 46.6831 71.5671C46.5751 71.5544 46.4713 71.5177 46.3792 71.4602C46.0702 71.3216 45.7737 71.1567 45.4933 70.9667C45.2909 70.8221 45.0421 70.7574 44.7948 70.7849C44.5476 70.8129 44.3194 70.9316 44.1543 71.1174C44.0134 71.2784 43.8467 71.4143 43.6611 71.5202C42.1007 72.3661 40.5604 73.2216 38.9799 74.0272C37.3258 74.8903 35.5559 75.5111 33.7248 75.8696C33.6342 75.8696 33.5335 75.8696 33.453 75.8696C32.849 76.0305 32.2047 76.4231 31.6711 76.3121C31.0428 76.0503 30.464 75.6822 29.9597 75.2249L29.1443 74.6311C30.0805 74.0374 30.4329 74.0374 31.1577 74.6311C31.4094 74.8226 31.6107 75.064 31.8624 75.2351C32.1141 75.4062 32.2852 75.4566 32.2752 75.064C32.2093 74.9163 32.1248 74.7773 32.0235 74.651C31.7718 74.3892 31.4899 74.1682 31.1376 73.8657L32.7785 73.1213L33.7148 73.8255C33.2718 74.3393 32.4262 74.3291 32.2752 75.064C34.1582 74.4284 35.9836 73.6335 37.7316 72.6879C38.7986 72.1145 39.8456 71.5101 40.8826 70.8964C41.1455 70.7029 41.3914 70.4875 41.6174 70.2518C41.0637 69.99 40.7416 70.3225 40.4094 70.4835C40.0772 70.6444 39.7047 70.594 39.4027 70.1311L41.6778 68.8223C42.0604 68.8223 42.4329 69.6279 42.9362 68.8728L42.2819 68.309L43.047 67.6949L44.1242 68.2286L43.5604 68.8524C43.7868 68.8605 44.0134 68.8402 44.2349 68.7923C45.8131 68.0575 47.2886 67.12 48.6241 66.0038C48.9665 65.6916 49.3691 65.4599 49.7416 65.1783C49.8423 65.0973 49.9228 64.9767 50.0939 64.7954C49.9103 64.7837 49.726 64.8096 49.5528 64.8718C49.3796 64.9344 49.2211 65.0316 49.0872 65.1579C47.9899 65.8729 46.8825 66.5573 45.8154 67.3125C45.5409 67.5269 45.2025 67.6435 44.854 67.6435C44.5055 67.6435 44.1671 67.5269 43.8926 67.3125C44.5772 66.7987 45.2315 66.3057 45.906 65.8123C46.5805 65.3189 47.2248 64.8056 47.9194 64.2418C48.2416 63.9597 48.2416 63.8793 48.2013 63.3359C47.708 63.3359 47.4362 63.6781 47.1141 63.9399C46.0167 64.7954 44.9295 65.6712 43.8221 66.5273C43.5972 66.6749 43.3616 66.8063 43.1175 66.9199L41.8993 66.0338C42.7544 64.9986 43.7708 64.1079 44.9094 63.396C46.1375 62.7294 47.2604 61.8846 48.2416 60.8896C48.3322 60.7786 48.4732 60.6681 48.5034 60.527C48.519 60.4567 48.5181 60.3839 48.5007 60.3137C48.4832 60.2439 48.4496 60.1792 48.4027 60.1242C48.3411 60.0901 48.2718 60.0718 48.2013 60.0718C48.1309 60.0718 48.0615 60.0901 48 60.1242C47.6514 60.5199 47.2817 60.8962 46.8926 61.2517C45.4731 62.3592 44.0235 63.4266 42.5637 64.4832C41.557 65.2282 40.4799 65.9228 39.4329 66.6479L37.6006 65.2384C37.4396 66.3658 38.4866 66.376 38.7785 66.9499C38.0939 67.4836 37.8926 67.4734 37.2785 66.9499C36.928 66.6923 36.5615 66.4565 36.1812 66.2451C36.1107 66.7987 36.1107 66.7987 37.1879 67.6949C37.057 68.0473 36.7953 68.198 36.4732 68.0269C35.8087 67.6445 35.1846 67.2117 34.4597 66.7488C35.3557 66.0338 36.161 65.3795 36.9866 64.7353C37.9933 63.9399 39 63.2051 40.0067 62.3796C40.4206 61.96 40.7885 61.4976 41.104 61.0001C41.1348 60.9288 41.1506 60.8514 41.1506 60.7735C41.1506 60.6956 41.1348 60.6187 41.104 60.5474C38.712 62.7956 36.1171 64.8178 33.3524 66.5873C30.6384 68.4246 27.8217 70.1051 24.9161 71.6211L24.2517 71.1679C24.8054 70.8659 25.2584 70.6041 25.7718 70.3322C26.2852 70.0608 26.5671 69.8495 26.9497 69.5775C27.3322 69.3056 27.9061 68.9028 28.3691 68.5708C28.5824 68.3742 28.781 68.1624 28.9631 67.9363L28.8423 67.7754C28.6854 67.8008 28.5329 67.8482 28.3893 67.9164C27.151 68.6915 25.9731 69.5877 24.6745 70.2319C23.0436 71.0574 21.3221 71.6913 19.6409 72.3859C19.399 72.4374 19.1531 72.4674 18.9061 72.4766C18.2819 72.6176 17.6678 72.7785 16.8926 72.9598C17.4664 73.7853 18.1309 73.3224 18.7248 73.383V74.0068L16.4597 74.5002C16.1044 74.9372 15.7175 75.3481 15.302 75.7285C14.6376 76.2418 13.9128 76.6645 13.2081 77.1279C13.1074 77.1981 12.9564 77.2384 12.906 77.329C12.1812 78.4967 10.8926 78.3963 9.8255 78.5068C8.77201 78.5318 7.71822 78.4712 6.6745 78.3256L11.9295 77.8326C11.8188 77.2384 11.4966 77.299 11.1342 77.3392C9.68455 77.4899 8.22485 77.6111 6.77518 77.7618C6.49872 77.8087 6.22613 77.8759 5.95975 77.9635C6.12082 78.1346 6.17113 78.2252 6.25169 78.2553C6.39769 78.2858 6.54572 78.3062 6.69462 78.3159C6.30771 78.2899 5.91906 78.3103 5.53689 78.376C5.08183 78.5338 4.64346 78.736 4.22819 78.9799C3.72691 79.3786 3.12989 79.6389 2.49664 79.7351C2.66195 79.5645 2.83672 79.4031 3.02013 79.2518C3.95638 78.5873 4.90268 77.9233 5.85908 77.2384C6.05854 77.0978 6.29085 77.0112 6.53355 76.9868C7.39674 76.8386 8.2827 76.8936 9.12078 77.1477C9.70472 77.3998 10.198 77.0072 10.7416 76.9766C10.7689 76.9725 10.7948 76.9624 10.8175 76.9466C10.8402 76.9308 10.859 76.9104 10.8725 76.886C11.1342 75.9398 11.9798 75.4769 12.604 74.8725C13.2364 74.2018 13.9087 73.5699 14.6174 72.9802C15.0464 72.6899 15.4974 72.4343 15.9664 72.2148L16.7316 72.638C17.2355 72.4903 17.7216 72.2876 18.1812 72.0335C19.06 71.5895 19.9997 71.2773 20.9698 71.1078C21.9094 70.791 22.8304 70.4213 23.7282 70.0002C24.2896 69.6845 24.8249 69.3245 25.3289 68.9232C25.9074 68.5642 26.4592 68.1639 26.9799 67.725C27.9866 66.7182 28.9933 65.6208 30 64.584C29.7685 64.1716 29.5268 64.3223 29.3456 64.4832C28.6611 65.0673 27.9765 65.6514 27.3322 66.2655C26.6879 66.8796 26.1846 67.3929 25.6208 67.9668L25.4496 67.836C25.5587 67.6471 25.6798 67.4653 25.8121 67.2921C26.3456 66.7284 26.8993 66.1749 27.4329 65.6208C28.5281 64.3692 29.4584 62.982 30.2013 61.4935C30.8436 60.3885 31.425 59.2494 31.943 58.0807C32.8087 56.1278 33.5738 54.1245 34.4496 52.1716C35.2248 50.4499 36.0906 48.7684 36.9161 47.0671C37.4094 46.0609 37.8624 45.0541 38.3859 44.0474C39.151 42.5574 39.8758 41.0272 40.7819 39.6278C42.3121 37.292 44.0336 35.0773 45.5637 32.742C46.9731 30.5773 48.5839 28.5943 50.0939 26.4602C51.6042 24.3255 52.8823 22.4332 54.2114 20.4197C54.9162 19.3223 55.5099 18.1547 56.1241 17.0069C56.6475 16.0001 57.1308 15.0738 57.6242 14.0976C57.7953 13.7453 57.9364 13.3725 58.0973 12.9901C58.4696 13.0507 58.5602 13.2518 58.4197 13.5237L56.5167 17.0873L56.2952 17.5003L54.8658 20.3393C54.3626 21.346 53.859 22.3527 53.3457 23.3595C52.9368 24.1539 52.476 24.9208 51.9662 25.6546C51.1509 26.8126 50.4564 28.0607 49.7013 29.2991C49.7732 29.3572 49.8582 29.3974 49.949 29.4162C50.0399 29.4346 50.1338 29.431 50.2229 29.405C50.3119 29.3796 50.3934 29.3327 50.4604 29.2686C50.5273 29.2044 50.5778 29.125 50.6074 29.0374C51.3119 27.7689 52.4194 26.7219 52.7922 25.262C52.8197 25.1387 52.8788 25.0241 52.9633 24.9299C53.7842 24.08 54.464 23.1049 54.9763 22.0406C55.4936 21.1474 55.9606 20.2267 56.3756 19.2821C57.2011 17.5706 57.9863 15.8591 58.8021 14.1481C58.8021 14.0472 58.963 13.9866 59.2146 13.7554C58.7517 16.0307 57.4226 17.6816 56.6776 19.5841C55.9331 21.4871 55.0873 23.3289 54.2516 25.2721C54.4125 25.2721 54.5836 25.2721 54.6743 25.2014C55.0542 24.9249 55.3623 24.5608 55.5726 24.1406C55.7829 23.72 55.8888 23.2556 55.8827 22.7856C55.8618 22.6191 55.8791 22.45 55.9331 22.2916C55.9871 22.1328 56.0767 21.9886 56.1948 21.8695C57.0926 20.8291 57.746 19.6014 58.1075 18.2754C58.2985 17.7015 58.7114 17.178 58.5806 16.5134C58.5729 16.4839 58.5729 16.4528 58.5806 16.4233L59.8491 14.6614C59.9193 14.782 60.0904 14.9333 60.0604 15.0336C59.9769 15.5876 59.789 16.1208 59.5069 16.6041C59.3297 16.8719 59.2003 17.1683 59.1239 17.4799C58.772 18.4867 58.3891 19.4934 57.9461 20.4095C56.8324 22.893 55.6714 25.3592 54.463 27.8091C53.8891 28.9467 53.2148 30.0238 52.5803 31.1313L50.4262 34.9465C51.0231 34.7107 51.5186 34.2722 51.8257 33.7085C52.949 31.995 53.9578 30.2091 54.8454 28.3627C55.6408 26.5406 56.6374 24.7991 57.5336 23.0168C57.7149 22.6547 57.8254 22.2621 57.9965 21.8995C58.1676 21.537 58.3086 21.3154 58.4696 21.0135C59.4162 21.4463 59.6678 22.3726 60.3221 23.027C60.2315 23.3595 60.1307 23.7017 59.9998 24.1447L58.2486 22.5743L58.0973 22.6649C58.1284 22.8416 58.19 23.0117 58.2786 23.168C58.5403 23.47 58.8724 23.7215 59.1341 24.0235C59.8088 24.7991 59.819 25.0303 59.265 25.9866C58.5908 25.5033 58.5908 25.5033 58.6509 24.658L57.3824 24.6983C58.0367 25.2722 57.7047 25.7855 57.3824 26.339C57.1512 26.7418 56.9897 27.1746 56.7382 27.7185C57.6242 27.3961 57.9766 28.0505 58.3993 28.5037C59.0837 29.2283 59.7182 30.0034 60.3425 30.7789C60.5472 31.0835 60.729 31.4033 60.8859 31.7353C61.057 32.0271 60.8859 32.1783 60.6643 32.4299L57.282 28.9666L57.141 29.0374C57.141 29.1275 57.141 29.2686 57.1914 29.319C57.9364 29.9433 57.8458 30.6481 57.3319 31.4532L56.6175 30.8492C56.4464 31.3829 56.9597 31.5138 57.0906 31.9466L56.7586 32.7115C56.6374 32.9635 56.5269 33.2151 56.4062 33.4768L55.7518 33.3159C56.4464 34.423 55.7518 35.168 55.2986 36.0438L54.4528 35.2988C54.5556 35.858 54.8179 36.3754 55.208 36.7888C55.8786 37.763 56.6043 38.6974 57.3824 39.5876C57.5754 39.7612 57.693 40.0031 57.7118 40.2618C57.7307 40.521 57.6487 40.7766 57.4832 40.9767L57.1914 41.43C56.04 40.355 54.9763 39.1904 54.0103 37.9463L53.3559 39.4261L54.1009 38.9027C54.1651 38.92 54.2262 38.947 54.2817 38.9836L56.5065 42.0741C56.7784 42.4464 56.6175 42.7081 56.2045 43.0101L53.5066 39.9094L53.3457 40.0306C54.1096 41.3867 54.9462 42.701 55.8521 43.9664L55.3994 44.4599L52.5503 41.4396C52.6206 42.2855 53.2953 42.7285 53.6879 43.3426C54.0805 43.9567 54.6244 44.5805 55.0873 45.1748C50.6879 52.5138 45.745 59.3695 39.1611 64.9466C39.4038 64.8697 39.6369 64.7648 39.8557 64.6345C40.5544 64.1364 41.2264 63.6023 41.8691 63.034C43.0168 62.0272 44.1644 60.9196 45.2114 59.7718C46.4194 58.4433 47.5369 57.0337 48.6644 55.6242C49.7919 54.2151 50.7785 53.0169 51.7452 51.5977C52.7112 50.178 53.7582 48.4767 54.7649 46.9164C55.3286 46.0507 55.9331 45.215 56.4464 44.329C56.9597 43.4429 57.2617 42.7285 57.6645 41.9331C58.2384 40.7552 58.8724 39.6176 59.376 38.4097C59.8791 37.2013 60.1612 36.1141 60.5538 34.9668C61.1476 33.2553 61.802 31.5738 62.3254 29.8425C62.9599 27.7587 63.5333 25.6444 64.037 23.5204C64.3247 22.1918 64.5329 20.847 64.6613 19.4934C64.782 18.4164 64.7616 17.319 64.8222 16.0404L65.3961 16.574C65.3457 16.1712 65.3054 15.8896 65.255 15.5673L66.1309 15.2954C66.2317 16.3021 66.3422 17.1581 66.3926 18.0538C66.3478 19.579 66.1757 21.0975 65.8793 22.5941C65.6777 24.2354 65.3253 25.846 65.0539 27.4868C65.0539 27.7689 64.842 28.0805 65.1746 28.3728C65.5595 27.7979 65.7979 27.138 65.8692 26.45C66.1411 24.628 66.2918 22.7958 66.634 20.9936C66.8652 19.3972 66.9462 17.7829 66.8759 16.1712C66.8942 15.8698 66.938 15.5698 67.0068 15.2755C67.4697 15.2755 67.4294 15.5372 67.4294 15.7689C67.4294 16.4533 67.4294 17.1377 67.4294 17.7819C67.434 18.12 67.4681 18.4566 67.5303 18.7887C67.7075 19.5306 67.6795 20.3067 67.4498 21.0338C67.3118 21.5797 67.2507 22.1419 67.2685 22.7051C67.2079 23.883 67.1779 25.0705 67.1173 26.2585C67.1173 26.6211 67.1173 27.0641 66.4833 26.9735C66.6401 27.2133 66.7623 27.474 66.8459 27.7485C66.8306 27.995 66.773 28.2369 66.6743 28.4635C66.0301 30.5773 65.4562 32.7216 64.6613 34.8054C64.2081 36.0739 63.9061 37.3729 63.5135 38.6409C63.0404 40.1513 62.3254 41.5909 61.7215 43.0605C61.6008 43.3625 61.4598 43.6644 61.2785 44.0672C61.475 44.0031 61.6533 43.8926 61.7989 43.7459C61.944 43.5988 62.052 43.419 62.1141 43.2219C63.0908 41.3734 63.8669 39.4261 64.4296 37.4132C64.7234 36.3657 65.0799 35.337 65.4964 34.3323C65.6879 33.8088 65.8992 33.3256 66.1105 32.7318C66.2918 32.8016 66.4665 32.8856 66.634 32.9834C67.6408 33.6276 68.7382 34.3023 69.7953 34.9969C70.3188 35.3192 70.329 35.309 70.0672 36.1044C68.7794 35.5219 67.5348 34.8492 66.3422 34.091C66.5235 34.6649 66.5133 34.6649 67.9331 35.6614C68.5166 36.0642 69.1308 36.4466 69.7653 36.8591L69.6344 37.7655C68.1846 37.3826 67.2283 36.1243 65.7082 36.0138C66.8255 36.7787 67.9127 37.5639 69.0503 38.2987C69.1552 38.3415 69.2484 38.4087 69.3222 38.4948C69.3961 38.5808 69.4485 38.6832 69.475 38.7932C69.5015 38.9032 69.5015 39.0182 69.475 39.1282C69.4485 39.2382 69.3961 39.3406 69.3222 39.4261L66.9564 38.2284C67.2186 38.8044 67.6555 39.283 68.2045 39.5977C68.3557 39.7082 68.5472 39.7587 68.7081 39.8595C69.2112 40.1915 69.2112 40.2119 68.8894 40.9869C68.1042 40.5139 67.3189 40.0606 66.5133 39.5876C66.5133 40.1212 66.8657 40.4431 68.6577 41.7722C68.6709 41.8821 68.6709 41.9937 68.6577 42.1042C68.5976 42.206 68.5304 42.3038 68.4565 42.396C67.681 42.1648 67.2787 41.3897 66.3224 41.2181C66.7262 41.8007 67.2145 42.3201 67.7716 42.7585C68.2549 43.1313 68.2447 43.141 67.9229 43.9165L65.5972 42.4061C65.6981 42.7081 65.7082 42.8996 65.8086 42.9902C66.3224 43.4333 66.8153 43.8559 67.3892 44.2786C67.7014 44.5306 67.8623 44.7822 67.4498 45.1544L66.332 44.359L66.1508 44.5505L67.2181 45.8694C67.2181 46.1011 67.1575 46.3323 67.1076 46.6444L68.2549 46.3323C68.1082 45.8465 68.095 45.3301 68.2172 44.8377C68.3394 44.3448 68.5925 43.8946 68.9495 43.5336C68.9495 43.4531 69.1007 43.3727 69.0905 43.3024C68.8792 42.1042 69.6344 41.1076 69.7953 39.9904C69.9562 38.8726 70.1777 38.037 70.3891 37.0608C70.4278 36.8128 70.5021 36.5719 70.6106 36.3458C71.1015 35.2143 71.4396 34.0227 71.6173 32.8021C71.8597 31.7791 72.0481 30.7443 72.181 29.7014C72.318 28.3637 72.3786 27.0193 72.3623 25.6749C72.3623 23.6615 72.2416 21.5772 72.151 19.5235C72.151 18.8493 72.0201 18.1847 71.9397 17.5105C72.4428 17.5105 72.4932 17.8425 72.5334 18.0941C72.7886 20.0673 73.0335 22.0406 73.2682 24.0138C73.2637 24.1075 73.2637 24.2018 73.2682 24.2955C73.4572 25.7065 73.531 27.1308 73.4898 28.5541C73.476 28.7441 73.5081 28.935 73.5835 29.1102C73.6588 29.2854 73.7749 29.4397 73.9226 29.5609C74.1833 28.8805 74.2495 28.1416 74.1141 27.4262C74.0132 25.6143 73.8926 23.8122 73.7719 22.0105C73.7719 21.8593 73.7719 21.7081 73.7719 21.4769H74.8891C75.0027 22.8146 75.2934 24.132 75.7548 25.3928H75.9463C75.9463 24.7787 75.9967 24.1544 76.0267 23.3793C76.6174 24.7237 76.9423 26.1699 76.9831 27.638C76.3995 28.2924 75.795 27.2953 75.1106 27.638C75.6743 28.2822 76.4698 28.0403 77.1241 28.3627C77.396 30.205 77.6776 32.0775 77.9598 34.0105L76.953 34.1011L76.8924 34.2722L77.7382 34.6043C77.7382 35.0875 77.7382 35.611 77.7382 36.1747H76.621C76.7015 36.9396 77.3859 36.5775 77.6277 36.9299C77.5468 37.2217 77.4765 37.544 77.3757 37.8862C78.1309 37.9967 77.8992 37.2619 78.2516 37.0404L80.5874 37.1815C80.5069 37.7151 80.4361 38.1882 80.3455 38.8125L77.8895 38.4499C78.1915 39.0137 78.634 38.9632 78.9864 39.0335C79.3387 39.1043 79.7818 39.1547 80.2854 39.2352C80.1744 39.7184 80.0837 40.1309 79.9631 40.6244L78.5637 40.413C78.8153 41.047 79.3892 40.8158 79.6713 41.1076C79.8622 41.792 79.4396 42.2753 79.047 42.839L78.3626 42.7387C78.3381 42.7799 78.3177 42.8237 78.302 42.8695L79.0571 43.4333L78.2617 46.1108L76.6709 45.7487C77.0335 46.2116 77.6777 46.5136 79.2282 46.977C79.0541 48.496 78.5927 49.9682 77.8691 51.3156C77.06 53.0358 76.0461 54.6515 74.8489 56.1278C74.3748 56.8336 73.9669 57.5816 73.6308 58.3628C74.6376 58.9367 76.0568 58.7855 77.0136 59.7316C76.7921 59.9934 76.5803 60.2149 76.3893 60.4567L76.3689 60.4262ZM61.1175 30.5269L57.6945 27.225C57.8758 26.8324 58.0571 26.4296 58.2582 26.0171C59.1341 26.4098 59.0338 27.0239 58.7919 27.8692L59.5267 27.4364L61.6309 29.9127C61.6309 30.0538 61.5 30.3155 61.3992 30.5875C61.3024 30.5849 61.2067 30.5646 61.1175 30.5269ZM59.7482 26.782C59.9397 26.3293 60.0904 25.9565 60.2519 25.5843C60.7382 25.9382 61.0926 26.4449 61.2586 27.0239C61.3075 27.1349 61.3798 27.2342 61.4699 27.3157C61.6512 27.5072 61.9731 27.6681 62.0031 27.8692C61.9975 28.2659 61.9328 28.6595 61.8121 29.0374L59.7482 26.782ZM61.9629 25.0705C62.7481 25.6444 62.7583 25.6749 62.4461 26.6109C61.6008 26.2285 61.5703 26.148 61.9629 25.0705ZM61.2082 25.3526C60.5136 24.8189 60.5136 24.8189 60.896 23.7923C61.7414 24.2252 61.2382 24.7991 61.2082 25.3526ZM62.4161 22.7148C62.5811 22.8141 62.7252 22.945 62.8398 23.1003C62.9538 23.2556 63.0363 23.4318 63.0822 23.6192C63.128 23.8061 63.1366 24.0006 63.1066 24.1911C63.0771 24.3815 63.0098 24.5638 62.9095 24.7283C62.7216 24.6524 62.5551 24.5328 62.4227 24.38C62.2903 24.2267 62.1961 24.0444 62.1482 23.8478C62.0999 23.6513 62.0988 23.4461 62.1457 23.249C62.192 23.0524 62.2847 22.8691 62.4161 22.7148ZM61.7215 23.2485C60.9765 23.1884 61.1578 22.4836 60.7147 22.2417C60.3659 22.0009 60.0298 21.7422 59.708 21.4667L60.3924 20.4599C60.9867 20.8424 60.6542 21.4667 60.866 21.9097L61.3487 21.5976C62.1844 22.0508 61.6207 22.6746 61.7515 23.2485H61.7215ZM59.6072 20.3693C59.5135 20.5842 59.406 20.7925 59.2853 20.9936C59.1041 20.6916 58.8525 20.4498 58.9029 20.3087C59.1224 19.4237 59.5125 18.5895 60.0502 17.8527C60.1108 18.1547 60.2213 18.3456 60.1612 18.4566C59.926 19.0759 59.7508 19.7165 59.6377 20.3693H59.6072ZM60.8558 18.9399C61.2281 19.3829 61.0065 19.6044 60.7249 19.826C60.7952 19.5739 60.8253 19.3223 60.8859 18.9399H60.8558ZM62.6274 21.1143C63.5333 21.7386 63.5333 21.7386 63.3322 22.4836C62.7787 22.121 62.3458 21.789 62.6274 21.1143ZM61.913 21.1143C61.5703 20.6514 61.8121 20.3693 61.913 19.8962C62.2552 20.4299 62.0337 20.6815 61.913 21.1143ZM63.2415 18.698C64.1678 19.1614 63.7548 19.8662 63.7044 20.5104C62.7787 20.1076 62.7583 19.9971 63.2415 18.7082V18.698ZM62.2348 19.4028C61.7215 18.7586 62.2348 18.2754 62.2348 17.6612C62.6478 18.2957 62.6478 18.336 62.2149 19.413L62.2348 19.4028ZM61.2281 18.396C60.9062 17.651 61.3992 17.3088 61.4195 16.8358L61.7317 16.9264C61.5504 17.3995 61.4093 17.8425 61.198 18.4363L61.2281 18.396ZM60.3725 17.4901C60.2717 17.289 60.2213 17.2284 60.2315 17.1882C60.3624 16.8358 60.5034 16.4834 60.7046 15.9701C60.9062 16.7151 60.5233 17.0272 60.3425 17.5304L60.3725 17.4901ZM63.8455 16.6749C63.8455 17.0171 63.8455 17.3593 63.8455 17.7921C63.4228 17.3796 63.4228 17.3796 63.8154 16.7151L63.8455 16.6749ZM62.5067 16.9468C62.577 16.4732 62.6376 16.0709 62.6982 15.5876C63.1107 16.3927 63.0908 16.5236 62.4767 16.987L62.5067 16.9468ZM61.9328 16.0404H61.6915C61.6915 15.7185 61.7821 15.3962 61.8422 15.0336C62.245 15.4262 61.8524 15.7486 61.9028 16.0806L61.9328 16.0404ZM57.1608 34.6343C57.0422 34.5309 56.9607 34.3904 56.9297 34.2356C56.8986 34.0808 56.92 33.9204 56.9897 33.7788C57.141 33.4366 57.2515 33.0842 57.473 32.4803C58.0169 33.1749 58.4798 33.6983 58.8423 34.2218C59.0582 34.5065 59.2599 34.8023 59.4463 35.1074C59.7885 35.6614 59.4463 36.1141 59.1443 36.658L57.1608 34.6343ZM58.8423 37.8256C58.6911 38.289 58.5403 38.7417 58.3387 39.3762L55.4096 36.356C55.7116 36.0438 55.9331 35.8325 56.1342 35.6008C56.3354 35.3691 56.4866 35.168 56.6878 34.9164C57.555 35.7663 58.2822 36.7486 58.8423 37.8256ZM59.4565 33.8694C59.2146 33.6678 59.0134 33.4366 58.772 33.2451C57.9461 32.5908 57.4832 31.8758 58.3891 30.809L60.1108 32.8225C60.4734 33.2553 60.2615 33.6882 60.0604 34.232C59.8389 34.1108 59.6276 34.0003 59.4565 33.8694ZM79.8928 23.9736C81.0803 23.9736 81.2015 24.1045 81.5539 25.6846L77.5167 25.4432C77.4363 24.8795 77.3456 24.3662 77.2754 23.8728C77.4653 23.7643 77.6766 23.6976 77.8946 23.6772C78.1125 23.6564 78.3325 23.6818 78.5398 23.7526C78.747 23.8229 78.937 23.9364 79.0974 24.0856C79.2578 24.2343 79.3846 24.4161 79.4696 24.6178L79.8928 23.9736ZM81.7148 24.1946L82.3391 24.0739L83.1844 25.7956H82.1777C81.9964 25.1413 81.8655 24.7181 81.7148 24.1946ZM83.7283 25.0705C83.3051 24.6478 83.3657 24.3459 83.7283 24.0638C83.8592 24.4564 83.8592 24.4564 83.6881 25.0705H83.7283ZM85.3991 24.7181C85.6206 25.7248 85.6206 25.7248 84.9362 25.7248C84.8053 25.3226 84.5639 24.8693 85.3588 24.7181H85.3991ZM81.5437 28.2216L77.8187 27.97C77.7586 27.2551 77.6878 26.6211 77.6176 25.846L81.8757 26.1078C82.0168 26.4571 82.0601 26.8385 82.002 27.2108C81.9434 27.583 81.7851 27.9324 81.5437 28.2216ZM83.7181 27.3457C83.7181 27.6278 83.7181 27.8998 83.7181 28.2216C83.5302 28.2318 83.3423 28.2318 83.1544 28.2216C82.3391 28.1513 82.3188 28.1009 82.389 27.2148C82.4104 26.8798 82.4104 26.5437 82.389 26.2081C83.5572 26.2585 83.6275 26.3293 83.6779 27.3457H83.7181ZM81.5437 30.5472C81.3222 30.5472 81.1007 30.2152 80.8287 29.9835C80.6378 30.396 80.2146 30.4164 79.7415 30.3257C79.2685 30.2351 78.6442 30.1546 78.0504 30.064C77.9598 29.5609 77.8691 29.0572 77.7683 28.5842C78.4512 28.4014 79.1697 28.4014 79.8526 28.5842C80.4967 28.5842 81.1409 28.7655 81.7953 28.8561L82.1476 29.7416H82.3391C82.4094 29.4499 82.4797 29.1682 82.5403 28.9065C82.6029 28.8688 82.6706 28.8418 82.7414 28.8255C84.0603 28.9467 84.1107 29.0374 83.7482 30.6679C82.9935 30.6679 82.9935 30.6679 82.5907 30.2152C82.2612 30.3802 81.9078 30.4922 81.5437 30.5472ZM82.2984 32.6111L80.9494 32.6712C81.0304 32.1279 81.1007 31.6044 81.1913 30.9903L82.2984 31.1512V32.6111ZM83.104 31.2922L83.8388 31.5336C83.8388 31.9568 83.8388 32.3494 83.8388 32.8327L82.9431 32.7721C82.9227 32.2588 82.9935 31.7857 83.0638 31.2922H83.104ZM79.0169 32.3794C78.5739 32.299 78.2719 32.1177 78.3121 31.584C78.2826 31.2444 78.2251 30.9078 78.141 30.5773L80.4163 30.9098C80.4499 31.0111 80.4733 31.1155 80.4865 31.2215C80.3857 32.5302 80.265 32.631 78.9767 32.3794H79.0169ZM81.342 33.1647C82.0972 33.3256 82.8723 33.3964 83.6881 33.5171C83.6881 34.121 83.6173 34.5238 83.5872 35.0473L81.1913 34.4734C80.2783 34.6491 79.3337 34.5544 78.4731 34.2015C78.4731 33.7085 78.4731 33.1947 78.4731 32.7919C79.7013 32.7216 80.0333 32.8729 80.2951 33.6479C80.4005 33.4824 80.5522 33.3516 80.731 33.2711C80.9097 33.1906 81.1083 33.1642 81.3018 33.1947L81.342 33.1647ZM82.0366 36.5877C81.9842 36.6096 81.9277 36.6208 81.8706 36.6208C81.8136 36.6208 81.7571 36.6096 81.7046 36.5877C81.6568 36.5577 81.6155 36.5184 81.5844 36.4711C81.5534 36.4242 81.5325 36.3713 81.5233 36.3158C81.5233 35.9532 81.5233 35.5906 81.5941 35.2286L81.8156 35.0773C81.9867 35.2184 82.2984 35.3594 82.2984 35.5C82.2556 35.8763 82.1538 36.243 81.9964 36.5877H82.0366ZM83.1646 35.6813C83.5572 36.2755 83.5572 36.3356 83.0133 36.7486C83.0235 36.4161 83.0739 36.0739 83.1243 35.6813H83.1646ZM80.7687 36.688L78.3824 36.4665C78.3824 35.8926 78.4328 35.3997 78.4629 34.8156L80.9897 35.1883C80.8792 35.6212 80.8089 36.0943 80.7279 36.6778L80.7687 36.688ZM81.8655 38.5004C81.8655 38.8023 81.6746 39.0335 81.2112 38.7921C81.3222 38.3089 81.4429 37.7854 81.5737 37.2421C82.1981 37.6245 81.8559 38.0976 81.8253 38.4902L81.8655 38.5004ZM82.8723 37.7956C83.4966 38.0675 83.0739 38.5808 83.2349 39.0539C82.4899 38.8324 82.4899 38.8324 82.802 37.7854L82.8723 37.7956ZM83.0841 39.8091C82.9431 40.2317 82.7816 40.7048 82.6009 41.2181L80.7081 40.8056C80.7788 40.4828 80.8664 40.1635 80.9698 39.8493C81.0304 39.6884 81.2015 39.4567 81.2921 39.4766C81.475 39.5407 81.6359 39.6558 81.755 39.8091C81.8355 39.8895 81.8457 40.0204 81.9058 40.1711C82.2582 40.1009 82.359 39.3258 83.0133 39.7989L83.0841 39.8091ZM81.4531 41.6515C81.2315 42.1846 81.0202 42.7183 80.7885 43.2922L79.9834 43.1715C79.8021 41.4498 80.0736 41.158 81.3823 41.6413L81.4531 41.6515ZM80.7783 45.6779L81.5437 46.0003C81.3522 46.4733 81.2616 46.9464 80.4865 46.7249C80.537 46.3827 80.597 46.0807 80.7081 45.6683L80.7783 45.6779ZM79.2583 46.4127C79.2079 46.3679 79.1676 46.3119 79.1417 46.2488C79.1152 46.1861 79.1035 46.1184 79.1076 46.0507C79.1076 45.517 79.3693 45.406 80.1143 45.6178C79.988 45.8796 79.8434 46.1317 79.6809 46.3725C79.6127 46.429 79.5282 46.4621 79.4396 46.4672C79.351 46.4728 79.2629 46.4504 79.188 46.4031L79.2583 46.4127ZM78.0402 58.4937C77.7683 59.0172 77.5972 59.1883 77.1542 58.9464C76.5029 58.594 75.8302 58.2813 75.1407 58.0104C74.829 57.8795 74.8789 57.7385 74.9899 57.5572L78.0402 58.4937ZM78.886 57.3561C78.3926 58.0608 78.0703 58.0807 77.1241 57.4767C77.6176 56.7216 77.8992 56.7017 78.886 57.3561ZM79.2685 55.5839L79.8928 55.7856C79.8928 55.7856 79.8928 55.7856 80.0537 55.9063L79.5501 56.6411L78.0906 56.2587C78.5841 55.3426 78.5841 55.3426 79.2685 55.5743V55.5839ZM81.3925 54.3358L80.537 55.3426L79.1172 54.7687C79.6209 53.6713 79.8826 53.6209 81.3925 54.3358ZM82.3289 52.9064L81.6746 53.7319L80.1443 53.188L80.6678 52.2719C81.2733 52.2999 81.8548 52.5184 82.3289 52.8962V52.9064ZM83.3357 51.034L82.7114 52.2118L81.8253 51.9598C81.5941 51.8793 81.3624 51.7688 81.1409 51.6782C81.7347 50.3694 81.9363 50.3088 83.3861 51.0238L83.3357 51.034ZM84.2518 49.4432L83.8189 50.3694L82.9731 50.1378L82.2887 49.9162C82.6105 48.9899 83.104 48.8693 84.3022 49.433L84.2518 49.4432ZM85.1679 47.4297C84.9464 47.8829 84.7855 48.2251 84.5736 48.6376L83.0938 48.2954L83.7079 47.0574L85.1679 47.4297ZM85.7316 46.0807L85.2585 46.9566C85.0874 46.3628 85.4296 46.2116 85.5401 45.9499L85.7316 46.0807ZM86.8692 43.2621L85.3492 43.0305C85.0161 42.9678 84.68 42.924 84.3424 42.8996C84.0812 42.9189 83.8261 42.9836 83.5872 43.091C83.5872 43.091 83.5872 43.3828 83.5872 43.4129C83.8694 43.584 84.2716 43.8961 84.4529 43.8055C85.1877 43.4333 85.8222 43.8055 86.4664 43.9063C86.3559 44.7516 86.3559 44.7516 85.8823 45.2349C85.4597 44.9029 85.8823 44.3998 85.6206 44.027C84.9764 43.9466 85.1373 44.6411 84.7753 44.9233H83.7685C83.5068 44.9233 83.1946 44.9233 83.2649 45.3057C83.3102 45.4096 83.3774 45.5028 83.463 45.5776C83.548 45.6525 83.6494 45.7075 83.7583 45.7385C84.0629 45.7742 84.3699 45.7742 84.6744 45.7385C84.6138 46.5238 84.594 46.5339 84.0405 46.4535L82.389 46.2819C82.389 46.866 82.389 46.866 82.8723 47.2886C82.7918 47.4903 82.7516 47.7922 82.5907 47.9231C82.3737 48.0667 82.1986 48.2653 82.084 48.4991C81.9689 48.7323 81.918 48.9925 81.9363 49.2517C81.9363 49.433 81.5636 49.6845 81.3222 49.8256C81.1078 49.8948 80.8827 49.9254 80.6576 49.9162C80.3256 50.4901 80.8792 50.5003 81.0706 50.7519L80.6576 51.4266L79.5302 51.2453C79.41 51.258 79.2919 51.2856 79.1778 51.3258C79.1778 51.5773 79.1778 51.8289 79.2384 52.1212L80.1342 52.0204C80.1163 52.2185 80.0573 52.4104 79.96 52.5841C79.8627 52.7577 79.7303 52.9085 79.5704 53.0271C79.2181 52.9365 78.7648 52.5235 78.4629 53.0271C78.1609 53.5302 78.7348 53.6209 79.0571 53.8928C78.7648 54.3557 78.4731 54.6276 77.9496 54.4967C77.8309 54.4667 77.7062 54.4667 77.587 54.4967C77.5096 54.5079 77.4373 54.5405 77.3772 54.5904C77.3171 54.6403 77.2718 54.706 77.2468 54.7799C77.2219 54.8542 77.2178 54.9337 77.2351 55.0095C77.2524 55.0859 77.2906 55.1557 77.3456 55.2117C77.3854 55.2743 77.4459 55.3207 77.5167 55.3426C77.6578 55.4027 77.8085 55.4434 77.9699 55.5035C77.8391 56.027 77.5671 56.1879 77.0335 55.9969C76.4998 55.8055 76.4092 55.8258 76.2987 56.5204L77.0941 56.7618C76.6006 57.8393 75.906 56.9431 75.1509 57.0739C75.2593 56.7939 75.3871 56.5214 75.5333 56.2587C76.1576 55.3726 76.8726 54.537 77.4062 53.601C78.1512 52.3025 78.775 50.953 79.4192 49.574C79.5022 49.2766 79.5628 48.9742 79.6005 48.6681C79.7166 48.2837 79.8648 47.9099 80.0435 47.5504C80.1948 47.2484 80.4463 47.3192 80.7182 47.5504C80.7182 48.2551 80.1846 48.7588 79.9228 49.433L80.537 49.5236C81.0126 48.9691 81.3874 48.3356 81.644 47.6512C81.7871 46.9887 81.8711 46.315 81.8961 45.6377L80.4565 44.8423L79.4498 45.0842C79.5603 44.5306 79.6407 44.1579 79.7517 43.6446L82.772 44.6513C82.772 43.997 82.772 43.997 81.4429 43.4129L81.8457 41.792C82.3086 41.7014 82.4598 41.9132 82.389 42.3461C82.3188 42.7789 82.0672 43.1613 82.389 43.6044C83.0938 43.4027 82.8626 42.7183 83.0536 42.3461C84.4382 42.0914 85.8513 42.0334 87.2516 42.175C87.1106 42.507 87.0001 42.8695 86.8692 43.2621ZM87.5837 40.3927C87.5134 40.8255 87.463 41.1982 87.3927 41.6413L86.5769 41.3994C86.6375 41.0373 86.6777 40.7048 86.7485 40.2822L87.5837 40.3927ZM87.7349 39.7485L86.9196 39.6782C87.0704 38.8324 87.0704 38.8324 87.9264 38.8125L87.7349 39.7485ZM85.8421 39.5168C85.7112 39.5168 85.48 39.2953 85.4999 39.1949C85.4999 38.7621 85.8823 38.8222 86.3055 38.893C86.3055 39.2856 86.2851 39.5876 85.8222 39.5168H85.8421ZM84.8354 39.3457L83.8286 39.7785L84.7045 40.9263C85.3186 41.047 85.1475 39.9196 85.973 40.2419C85.9226 40.5541 85.8727 40.8963 85.8222 41.2487L83.3357 41.3994C83.3357 41.2787 83.2552 41.1682 83.3357 41.1076C83.963 39.4832 84.2278 37.7411 84.1107 36.0036C84.0955 35.7251 84.0955 35.4465 84.1107 35.168C84.292 33.7788 84.483 32.3896 84.6846 31.0101C84.7116 30.7728 84.7946 30.5452 84.926 30.3461C84.926 31.4333 85.4398 32.4497 85.0166 33.5873C84.8904 34.1811 84.9143 34.7973 85.0874 35.3793C85.1552 35.5647 85.1832 35.7622 85.1694 35.9593C85.1557 36.1559 85.1002 36.3479 85.007 36.522C84.9138 36.6957 84.7849 36.8479 84.6286 36.9686C84.4723 37.0893 84.2925 37.1753 84.1005 37.2217C84.3827 37.3928 84.594 37.4534 84.6846 37.5939C84.7753 37.735 84.8557 38.0772 84.7753 38.148C84.3119 38.5406 84.4025 38.9434 84.7753 39.3457H84.8354ZM86.7582 33.3862C86.9797 34.6949 86.9395 34.7555 85.9429 34.7051C85.782 33.6983 85.782 33.6983 86.6981 33.3862H86.7582ZM88.1071 38.1077L85.5707 38.2284C85.5707 37.8557 85.6308 37.6245 85.6608 37.2217L88.1474 36.7787C88.1071 37.2823 88.0771 37.6545 88.0471 38.1077H88.1071ZM85.9027 36.5673C85.5503 35.5606 85.6308 35.4801 86.7984 35.3997V36.3158L85.9027 36.5673ZM88.3689 36.2755H87.3621C87.5933 35.3615 87.655 34.4128 87.5434 33.4768C87.5434 32.9732 87.5434 32.9732 88.3287 32.8927C88.2884 34.0202 88.2986 35.1176 88.3088 36.2755H88.3689ZM85.9027 32.9834C85.8324 32.5404 85.7718 32.1579 85.7016 31.7353L86.7078 31.2821C86.7078 31.584 86.8086 31.7954 86.829 32.0067C86.8488 32.2185 86.829 32.3693 86.829 32.5908L85.9027 32.9834ZM88.3088 31.7047C88.3088 32.2486 87.9462 32.2684 87.493 32.3188C87.4177 32.0362 87.4044 31.7398 87.4548 31.4511C87.5052 31.1624 87.6178 30.8884 87.7853 30.6481L86.9293 30.1745L85.7112 30.9297C85.7112 30.4362 85.6511 30.1246 85.6206 29.6816L88.0369 28.7955C88.1071 29.8725 88.1881 30.7886 88.2482 31.7047H88.3088ZM88.0165 28.2822L85.5101 29.0674C85.5101 28.6947 85.5101 28.3728 85.4194 28.0607L86.2149 27.7786L86.5367 28.4732C86.6676 28.0505 86.7485 27.8091 86.8387 27.5372L87.7247 27.3559C87.7649 27.638 87.8556 27.9497 87.9564 28.2822H88.0165ZM85.2081 27.0437C85.0065 26.6313 85.2988 26.4398 85.7214 26.3089L86.0942 27.0137C85.6511 27.2052 85.3588 27.4669 85.1475 27.0437H85.2081ZM87.5434 25.4835C87.5434 25.8761 87.5434 26.2687 87.5434 26.752L86.5367 26.9129C86.4781 26.8187 86.4415 26.7122 86.4303 26.6017C86.4191 26.4907 86.4338 26.3792 86.4725 26.2753C86.5117 26.1709 86.5739 26.0772 86.6548 26.0009C86.7358 25.925 86.8331 25.8685 86.9395 25.8359C87.1248 25.7299 87.3031 25.6123 87.4732 25.4835L86.2347 25.4132C86.1746 25.0608 86.1038 24.7385 86.0438 24.4065L86.7786 24.1345L87.4833 25.5033L87.5434 25.4835ZM86.5769 22.3023C86.4562 23.6915 86.2749 23.8524 84.5639 24.0943C84.4529 23.7923 84.3424 23.4802 84.2014 23.0876C84.6245 22.9725 85.0411 22.835 85.4495 22.6746C85.7718 22.5238 86.0942 22.2015 86.5769 22.3023ZM83.104 22.9266C83.104 22.6145 83.1743 22.4434 83.2048 22.2621H83.6881C83.8088 21.8293 83.6881 21.2049 84.4529 21.1347C84.5538 21.3659 84.6744 21.6276 84.8257 21.9902L83.104 22.9266ZM86.3152 21.5976L85.4495 21.9698C85.3303 21.6836 85.2524 21.3822 85.2183 21.0741C85.2183 20.8526 85.4897 20.6713 85.7515 20.3189C85.9531 20.8123 86.114 21.1143 86.3055 21.5976H86.3152ZM85.5707 19.9161L84.8455 20.2588C84.6444 19.8759 84.4427 19.5138 84.262 19.1614C85.1175 18.4465 85.2183 18.5071 85.5707 19.9161ZM84.9362 18.034L84.0501 18.5172L83.5572 17.4397L84.4932 16.8561C84.6744 17.289 84.7951 17.621 84.9566 18.034H84.9362ZM84.3119 15.7486C84.2416 16.2517 84.0002 16.5842 83.5872 16.6244C83.3657 16.6244 83.1142 16.3729 82.8825 16.2216C83.245 15.5169 83.7385 15.6177 84.3322 15.7486H84.3119ZM83.3051 14.8829L82.5301 15.5474L82.3391 15.4466C82.3391 15.2755 82.3391 15.054 82.4196 14.943C82.5 14.8325 82.9028 14.5004 83.3255 14.8829H83.3051ZM82.7317 14.0671L82.0972 14.4699C81.7347 14.1781 81.7347 13.9164 82.0972 13.6948C82.4598 13.4733 82.5504 13.7351 82.7317 14.0671ZM76.51 7.36265C78.2704 8.75075 79.877 10.3232 81.3018 12.0541C81.3018 12.0541 81.4128 12.1544 81.4128 12.2048C81.4128 12.2553 81.4128 12.5776 81.4128 12.7686C81.2214 12.7686 80.9494 12.7686 80.8588 12.6581C80.4662 12.1748 80.1443 11.6513 79.7818 11.1278C79.5908 10.8559 79.3892 10.5539 78.8356 10.725C79.4523 11.827 80.1525 12.8806 80.9296 13.8761L79.7716 14.4398C79.2282 13.4937 78.7649 12.5776 78.1711 11.6814C77.9236 11.3616 77.6512 11.0616 77.3558 10.7856C76.8221 10.2316 76.3491 9.64801 75.765 9.11434C75.6244 8.99162 75.5323 8.82306 75.5043 8.63872C75.4768 8.45428 75.5155 8.26602 75.6143 8.10759L78.5235 10.3828C78.5866 10.1649 78.5744 9.93165 78.4883 9.72134C78.4028 9.51154 78.248 9.33636 78.0504 9.22484C77.285 8.56065 76.5304 7.88613 75.7752 7.21166L75.9259 7.02034C76.1296 7.11883 76.3246 7.2333 76.51 7.36265ZM73.4898 6.71837C73.5417 6.79608 73.5758 6.88433 73.5896 6.9767C73.6033 7.06913 73.5962 7.16339 73.5692 7.25286C73.5427 7.34228 73.4959 7.42467 73.4337 7.49413C73.3711 7.56359 73.2942 7.61838 73.2082 7.65459C73.1277 8.25863 73.9226 8.66113 73.6308 9.28544L72.8858 9.62764C73.1776 10.0304 72.6343 10.0101 72.6241 10.1211C72.6399 10.4012 72.7117 10.6751 72.8354 10.9262C72.3119 11.5103 72.1108 10.2922 71.5369 10.7454L71.8791 11.5805L71.4162 12.104L69.8859 11.0978H69.8355C69.6038 11.4298 69.8355 11.6213 70.057 11.8423C70.2786 12.0638 70.1675 12.2853 69.7749 12.4162C69.5636 12.104 69.3324 11.7618 69.0203 11.2786L69.8355 11.0978C69.8564 10.9588 69.9252 10.8315 70.0301 10.7378C70.135 10.6441 70.2689 10.5896 70.4094 10.584C71.1845 10.4933 71.6071 9.83897 72.1912 9.45654C72.3572 9.30886 72.4611 9.10416 72.483 8.88264C72.563 8.36308 72.6037 7.83811 72.6042 7.31233C72.5691 7.07549 72.4637 6.85459 72.3022 6.67809C71.8689 6.09421 71.4162 5.52036 70.9329 4.88612C71.4971 4.88576 72.0471 5.06236 72.5059 5.39102C72.9647 5.71967 73.309 6.18389 73.4898 6.71837ZM68.567 4.40291C69.2616 4.48347 69.5738 5.08747 70.0066 5.51028C70.3942 5.92459 70.7603 6.35804 71.104 6.80896C71.0628 6.87038 71.0154 6.92771 70.963 6.98011C70.274 6.76726 69.6665 6.34933 69.2214 5.7821C68.8604 5.16278 68.343 4.64907 67.7212 4.2922C67.4534 4.09717 67.1977 3.88533 66.9564 3.65796C67.8826 3.39622 67.9931 4.33243 68.567 4.40291ZM65.5468 2.22841C65.6237 2.30235 65.6792 2.39558 65.7077 2.4983C65.7357 2.60101 65.7363 2.70947 65.7082 2.81234C65.6273 2.96332 65.3156 3.0338 65.1038 3.01364C64.8925 2.99352 64.8222 2.80225 64.6913 2.67138L63.5435 1.56401C64.4296 1.81568 65.0035 1.98683 65.587 2.22841H65.5468ZM34.4396 55.9465C34.0961 56.6645 33.6704 57.3403 33.1711 57.96L33 57.8795C33.0005 57.7151 33.0277 57.5516 33.0805 57.3963C33.9362 55.4933 34.8121 53.6112 35.6476 51.7082C36.0503 50.8023 36.3624 49.8658 36.7147 48.94C36.8331 48.5551 36.9917 48.1838 37.1879 47.8325C38.0738 46.5136 38.4563 44.9233 39.5235 43.7047C39.83 42.6933 40.356 41.762 41.0637 40.9767C42.0704 39.5876 42.6443 37.9565 43.7013 36.6279C45.1409 34.8054 46.4899 32.9131 47.8691 31.0407C48.1007 30.7387 48.3221 30.4668 48.7147 30.4566C49.0369 30.7285 48.8356 30.9297 48.7147 31.1211C47.4866 32.6814 46.2383 34.2218 45.0503 35.8121C44.4967 36.547 44.0436 37.3826 43.5906 38.1582C43.3691 38.5004 43.1175 38.8023 42.8859 39.1644C41.7383 40.8459 40.8725 42.6679 39.7751 44.4094C38.73 46.1714 37.818 48.0087 37.047 49.9061C36.161 51.8793 35.2953 53.9132 34.4396 55.9465ZM72.7952 52.5642C71.8572 54.6633 70.5434 56.5739 68.9194 58.2014C68.7183 58.3928 68.5065 58.5538 68.2951 58.735L68.0838 58.5843C68.2549 58.3124 68.4163 58.0303 68.5971 57.7685C69.4027 56.5505 70.2786 55.3726 71.0134 54.1245C71.9697 52.4934 72.8054 50.7921 73.7215 49.0908C74.275 48.1192 74.7109 47.0849 75.02 46.0105C75.2792 45.2171 75.6163 44.4517 76.0267 43.725C76.4978 43.0982 76.7269 42.3226 76.6709 41.5405C77.2448 41.6209 77.2046 42.0135 77.1043 42.3155C76.8848 42.9291 76.6185 43.5244 76.3088 44.0973C75.8353 44.9187 75.5593 45.8388 75.5032 46.7855C75.4579 47.1827 75.3311 47.5667 75.131 47.9129C74.3758 49.4635 73.5402 50.9933 72.7952 52.5642ZM48.5839 32.9029C48.8154 33.6678 48.3322 34.0507 48.0805 34.5034C47.5369 35.4501 46.9429 36.356 46.349 37.2619C45.755 38.1678 45.0302 39.0539 44.4463 40C43.4396 41.6107 42.1107 43.0203 41.5067 44.8423C41.4946 44.9054 41.4669 44.964 41.4262 45.0134C40.1678 46.121 40.0067 47.8024 39.2517 49.1712C39.2132 49.2553 39.1585 49.3306 39.0906 49.3927C39.0906 49.3927 38.9798 49.3927 38.7886 49.3927C38.8124 48.6014 39.0451 47.8304 39.4631 47.1577C40.1879 45.7085 40.9027 44.2587 41.7383 42.8894C42.5738 41.5206 43.4396 40.4833 44.2953 39.2352C44.9597 38.2284 45.5738 37.2217 46.2383 36.2149C46.9027 35.2082 47.5772 34.2722 48.2517 33.2955C48.3221 33.1947 48.4127 32.9732 48.5839 32.9029ZM48.6342 57.3561C48.6875 57.1447 48.7688 56.9415 48.8758 56.7521C49.8826 55.393 50.9697 54.0537 51.9565 52.7251C52.9429 51.3961 53.7485 50.0369 54.6646 48.6982C55.3791 47.6914 56.1241 46.6246 56.8492 45.5776C56.9999 45.3561 57.141 45.104 57.282 44.8728L57.9766 43.695L58.2684 43.8157C58.1656 44.2536 58.024 44.6814 57.8458 45.0944C57.5336 45.6683 57.1206 46.1816 56.7682 46.7351C56.4158 47.2886 56.1948 47.7418 55.8725 48.2449C55.5502 48.7486 55.0572 49.4936 54.6244 50.0975C54.191 50.7015 53.6176 51.5167 53.0539 52.1716C52.9857 52.2266 52.9297 52.2953 52.8884 52.3728C52.8477 52.4502 52.8227 52.5352 52.8151 52.6223C52.808 52.7099 52.8176 52.7974 52.8451 52.881C52.8721 52.9645 52.9154 53.0414 52.973 53.1076C52.0268 53.2889 51.7045 54.0639 51.2518 54.6984C50.7987 55.3324 50.4966 55.836 50.0939 56.3997C49.9294 56.6508 49.7149 56.8652 49.4637 57.0296C49.2126 57.1941 48.9302 57.3051 48.6342 57.3561ZM47.1544 54.678C49.3188 51.5575 50.9798 48.1044 53.2953 45.0944L53.4562 45.1646C53.4618 45.1911 53.4618 45.2186 53.4562 45.2451C53.471 45.3047 53.471 45.3668 53.4562 45.4264C53.1364 46.1653 52.7733 46.8848 52.369 47.5809C50.7483 50.0772 49.349 52.7353 47.3355 54.9398C47.2852 55.0004 47.1745 55.01 47.0335 55.0706C47.0464 54.9235 47.0875 54.7799 47.1544 54.648V54.678ZM60.2417 47.0269C59.7783 47.6812 59.2349 48.3157 58.8423 48.9803C58.6106 49.3327 58.5001 49.7752 58.2582 50.1179C57.5937 51.2341 56.8217 52.2826 55.953 53.2486C55.0572 54.1245 54.3723 55.1613 53.527 56.057C53.335 56.2393 53.1334 56.4104 52.9231 56.5708L52.7214 56.3692C53.6777 55.1715 54.6544 53.9834 55.5705 52.745C56.4866 51.5071 57.4226 50.1276 58.3188 48.799C58.8021 48.0738 59.2248 47.3192 59.678 46.5844C59.7564 46.4494 59.8587 46.3297 59.9799 46.232C60.0604 46.1714 60.2519 46.1311 60.312 46.1816C60.3726 46.232 60.5335 46.4433 60.5136 46.5538C60.4698 46.7147 60.3944 46.8654 60.2921 46.9968L60.2417 47.0269ZM58.1075 60.2149C56.537 61.876 54.8556 63.4464 53.2148 65.0474C53.0549 65.163 52.8828 65.2613 52.7015 65.3392C52.339 65.0067 52.2081 64.745 52.5905 64.443C53.1542 64.0101 53.6879 63.5269 54.272 63.1343C56.1373 61.8413 57.7566 60.225 59.0537 58.3628C59.9397 57.1447 60.6745 55.8156 61.6105 54.3358C61.4598 54.7987 61.3895 55.0706 61.2887 55.3426C60.5564 57.159 59.4758 58.814 58.1075 60.2149ZM71.0638 50.7218C71.6219 49.6076 72.1128 48.4614 72.5334 47.2886C72.5686 47.0992 72.6674 46.9276 72.814 46.8028C72.9612 46.6781 73.1465 46.6083 73.339 46.6042C73.2637 47.1252 73.1389 47.6374 72.9663 48.1344C72.5737 48.9803 72.0604 49.7655 71.6479 50.591C71.3357 51.1949 71.1443 51.8595 70.8122 52.443C70.2281 53.4498 69.5738 54.4565 68.9296 55.4633C68.7891 55.7016 68.6236 55.9241 68.4362 56.1278C68.1948 56.3794 67.9229 56.6111 67.6713 56.8524L67.5099 56.7317C67.5501 56.578 67.6077 56.4298 67.681 56.2887C68.8089 54.4265 70.0066 52.6141 71.0638 50.7218ZM54.6544 58.675C55.4193 57.7787 56.064 56.9232 56.8186 56.168C58.161 54.7193 59.3612 53.1447 60.4026 51.4668C60.5635 51.2249 60.7448 50.9933 60.9261 50.7621L61.1175 50.8624C60.9592 51.3528 60.7499 51.8253 60.4932 52.2719C59.5145 53.9223 58.3382 55.447 56.9897 56.8122C56.8477 56.9741 56.6812 57.1137 56.4968 57.2252C56.2952 57.3031 56.1123 57.4233 55.9616 57.5781C55.8104 57.7324 55.6943 57.9177 55.6209 58.1209C55.5619 58.32 55.429 58.4886 55.2487 58.592C55.0684 58.6948 54.8556 58.7249 54.6544 58.675ZM66.4431 63.8996C66.3224 64.0198 66.2175 64.1553 66.1309 64.3024C64.9867 64.8437 63.9937 65.66 63.2415 66.678C62.7583 66.5171 62.7384 66.1749 62.9798 65.8928C63.3174 65.4548 63.7299 65.08 64.1979 64.7857C66.2297 63.7031 68.0481 62.2599 69.5636 60.527C69.6746 61.1513 69.6746 61.2017 69.1511 61.6443C68.2951 62.3893 67.379 63.1445 66.4431 63.8996ZM43.6007 46.1714C45.2013 43.7149 46.7919 41.2487 48.4832 38.6312C48.506 38.8909 48.4855 39.1532 48.4228 39.4063C47.859 40.5139 47.2752 41.6107 46.6711 42.6984C46.4295 43.1313 46.0973 43.5035 45.8456 43.9262C45.302 44.9233 44.3456 45.4366 43.6409 46.2218L43.6007 46.1714ZM61.7113 64.8662L66.1508 60.6783C66.3224 60.94 66.2215 61.1916 66.0301 61.4533C65.7082 61.906 65.3961 62.3796 65.0839 62.8323C64.9933 62.953 64.8925 63.1144 64.7718 63.1648C63.8755 63.5997 63.0745 64.2087 62.4161 64.9568C62.2048 65.2084 61.9328 65.3494 61.7113 64.8662ZM75.5537 37.3225H75.3423C75.2934 36.989 75.2695 36.6524 75.2715 36.3158C75.4381 34.5849 75.4381 32.8418 75.2715 31.111C75.2715 31.111 75.3423 31.0203 75.433 30.9195C76.0369 31.0809 76.0873 31.7047 76.0771 32.0877C76.1046 33.8465 75.929 35.6034 75.5537 37.3225ZM71.1743 46.7957L71.7482 45.1443L73.2886 40.715C73.4597 40.8744 73.5779 41.0827 73.6262 41.3113C73.6751 41.5399 73.6522 41.7783 73.5605 41.9937C73.0727 43.529 72.4565 45.021 71.7182 46.4535C71.6591 46.5477 71.5796 46.6276 71.4854 46.6867C71.3917 46.7463 71.2853 46.7835 71.1743 46.7957ZM53.6675 57.7589C54.2516 57.1142 54.8658 56.4904 55.4595 55.8559C55.5466 55.7235 55.6596 55.6104 55.792 55.5239C55.953 55.4434 56.2447 55.3125 56.3257 55.3828C56.5773 55.6043 56.396 55.8258 56.2045 56.0071L55.5303 56.6513L52.1276 59.9531C51.9362 60.1344 51.7854 60.3559 51.6042 60.5571L51.3928 60.3763C52.1475 59.5101 52.9027 58.6245 53.6675 57.7589ZM61.9028 58.4835C61.3793 58.9566 61.1175 59.7418 60.1913 59.9633L65.7887 53.1778C65.6196 53.85 65.2917 54.4718 64.8324 54.9902C64.3593 55.5641 63.9163 56.168 63.4427 56.7419C62.9676 57.3545 62.4527 57.9366 61.9028 58.4835ZM50.4463 64.5739C50.4463 64.4231 50.4463 64.2821 50.5167 64.2317C52.0675 63.1399 53.5163 61.9101 54.8454 60.5571C54.8454 60.5571 54.9666 60.5571 55.1071 60.4868C54.7451 61.685 52.6409 63.5172 50.4463 64.5739ZM67.0872 54.789C66.6121 56.3727 65.6059 57.7451 64.2381 58.675C64.98 57.2389 65.9415 55.9282 67.0872 54.789ZM73.5605 45.5975C73.8569 44.139 74.2638 42.7056 74.7786 41.3088C75.2715 41.4198 75.3525 41.6413 75.2619 41.9132C75.1208 42.3863 74.9497 42.8492 74.7684 43.3024C74.5871 43.7551 74.3356 44.4599 74.0937 45.0236C73.9812 45.2665 73.7943 45.4671 73.5605 45.5975ZM68.5268 52.715C68.9408 51.3319 69.5331 50.0089 70.2887 48.7786C70.772 49.4635 70.3794 49.9565 70.1981 50.3694C69.8676 51.2876 69.2932 52.0983 68.537 52.715H68.5268ZM76.3491 51.1043L77.6476 48.8693H77.8589C77.9002 49.1061 77.9002 49.3474 77.8589 49.5842C77.5167 50.3089 77.285 50.953 76.3593 51.1043H76.3491ZM49.3289 64.0606C49.8903 63.1709 50.7234 62.4865 51.7045 62.1077C51.0572 62.9163 50.2479 63.5819 49.3289 64.0606ZM49.4295 60.3763C49.7568 59.6466 50.3408 59.0625 51.0705 58.735C50.6822 59.4205 50.115 59.9877 49.4295 60.3763ZM66.2317 58.3628L66.3926 58.4835L65.1848 60.0035C65.2652 59.2988 65.2652 59.2988 66.2317 58.3628ZM58.9732 10.2316L58.822 10.282C58.822 10.1613 58.7517 10.0406 58.7114 9.91994L58.8622 9.86952C58.9029 10.0406 58.9431 10.1109 58.9732 10.2316ZM24.1611 72.195C24.2112 72.2011 24.2593 72.2184 24.302 72.2454C24.302 72.3055 24.302 72.3763 24.302 72.4063L23.8087 72.8188C23.7483 72.7185 23.6376 72.6074 23.6577 72.527C23.6657 72.4705 23.6856 72.4165 23.7161 72.3681C23.7466 72.3202 23.787 72.279 23.8346 72.2474C23.8822 72.2164 23.9359 72.1955 23.9922 72.1863C24.0484 72.1771 24.106 72.1802 24.1611 72.195Z" fill="#101A24"/>
</g>
</svg>
