<svg width="588" height="458" viewBox="0 0 588 458" fill="none" xmlns="http://www.w3.org/2000/svg">
<path d="M485.225 -120.001C485.225 94.5068 300.822 268.499 73.2251 268.499C-154.372 268.499 -338.775 94.5068 -338.775 -120.001C-338.775 -334.51 -154.372 -508.501 73.2251 -508.501C300.822 -508.501 485.225 -334.51 485.225 -120.001Z" stroke="#D9D9D9" stroke-width="2"/>
<path d="M567.225 -164.001C567.225 50.5068 382.822 224.499 155.225 224.499C-72.3722 224.499 -256.775 50.5068 -256.775 -164.001C-256.775 -378.51 -72.3722 -552.501 155.225 -552.501C382.822 -552.501 567.225 -378.51 567.225 -164.001Z" stroke="#D9D9D9" stroke-width="2"/>
<path d="M406.607 -269.188C505.805 -78.9941 422.765 160.551 220.966 265.802C19.1674 371.053 -224.794 302.059 -323.992 111.865C-423.19 -78.3286 -340.15 -317.874 -138.351 -423.125C63.4476 -528.375 307.409 -459.381 406.607 -269.188Z" stroke="#D9D9D9" stroke-width="2"/>
</svg>
