<svg width="45" height="45" viewBox="0 0 45 45" fill="none" xmlns="http://www.w3.org/2000/svg">
<path d="M18 14C15.243 14 13 16.243 13 19V27C13 29.757 15.243 32 18 32H26C28.757 32 31 29.757 31 27V19C31 16.243 28.757 14 26 14H18ZM18 16H26C27.654 16 29 17.346 29 19V27C29 28.654 27.654 30 26 30H18C16.346 30 15 28.654 15 27V19C15 17.346 16.346 16 18 16ZM27 17C26.7348 17 26.4804 17.1054 26.2929 17.2929C26.1054 17.4804 26 17.7348 26 18C26 18.2652 26.1054 18.5196 26.2929 18.7071C26.4804 18.8946 26.7348 19 27 19C27.2652 19 27.5196 18.8946 27.7071 18.7071C27.8946 18.5196 28 18.2652 28 18C28 17.7348 27.8946 17.4804 27.7071 17.2929C27.5196 17.1054 27.2652 17 27 17ZM22 18C19.243 18 17 20.243 17 23C17 25.757 19.243 28 22 28C24.757 28 27 25.757 27 23C27 20.243 24.757 18 22 18ZM22 20C23.654 20 25 21.346 25 23C25 24.654 23.654 26 22 26C20.346 26 19 24.654 19 23C19 21.346 20.346 20 22 20Z" fill="black"/>
<circle cx="22.5" cy="22.5" r="22" stroke="#101A24"/>
</svg>
