<svg width="100" height="103" viewBox="0 0 100 103" fill="none" xmlns="http://www.w3.org/2000/svg">
<g id="Group" opacity="0.1">
<path id="Vector" fill-rule="evenodd" clip-rule="evenodd" d="M7.50694 71.5843C8.00694 72.532 8.57161 73.4442 9.19694 74.3143C9.77694 75.1543 10.537 75.8843 11.057 76.7643C12.0062 78.4113 13.2036 79.9021 14.607 81.1843C16.087 82.5143 17.297 84.1143 19.107 85.1043C20.4055 85.8362 21.5912 86.7524 22.627 87.8243C25.0064 90.0041 27.6385 91.8909 30.467 93.4443C32.7535 94.8383 35.1361 96.0681 37.597 97.1243C41.087 98.6243 44.657 99.9243 48.217 101.254C48.9571 101.459 49.7194 101.573 50.487 101.594C51.707 101.714 52.937 101.784 54.157 101.904C54.917 101.984 55.667 102.154 56.437 102.204C59.347 102.424 62.267 102.554 65.177 102.814C67.8518 103.018 70.5418 102.866 73.177 102.364C73.9321 102.221 74.6985 102.148 75.467 102.144C78.7481 102.164 81.9984 101.51 85.017 100.224C86.297 99.7043 87.647 99.3743 89.017 98.9643C89.6686 98.824 90.3074 98.63 90.927 98.3843C92.927 97.3843 94.927 96.4643 96.777 95.3043C97.729 94.8785 98.5355 94.1832 99.097 93.3043C99.5635 92.225 99.7426 91.0434 99.617 89.8743C99.632 89.4348 99.5502 88.9974 99.3774 88.593C99.2046 88.1887 98.945 87.8272 98.617 87.5343C98.0156 86.898 97.4481 86.2304 96.917 85.5343C95.797 84.1943 94.767 82.7743 93.547 81.5343C90.9258 79.0011 88.5425 76.2328 86.427 73.2643C85.357 71.6743 84.247 70.0043 83.017 68.4043C81.017 65.7343 78.917 63.1343 76.897 60.4643C76.6064 59.9227 76.3911 59.3441 76.257 58.7443C75.707 58.7443 75.257 58.3643 74.737 57.7443C73.1076 55.9257 71.5914 54.0087 70.197 52.0043C67.807 48.4743 65.197 45.1243 62.647 41.6843C62.017 40.8143 61.497 39.8743 60.847 39.0143C58.2302 35.6277 55.9115 32.0209 53.917 28.2343C53.257 26.9643 52.437 25.7743 51.657 24.5643C50.757 23.1343 49.817 21.7243 48.897 20.3043C48.058 18.8884 47.1468 17.5166 46.167 16.1943C44.1946 13.6783 42.4351 11.0024 40.907 8.19428C39.327 5.43428 37.907 2.51428 34.777 1.07428C34.682 1.04241 34.5985 0.983285 34.537 0.90428C34.017 -0.26572 33.017 0.0042804 32.137 0.0842804C31.1594 0.175782 30.198 0.394288 29.277 0.73428C25.7518 1.91859 22.4569 3.70133 19.537 6.00428C17.187 7.91428 15.017 10.0043 12.797 12.1043C11.3092 13.2737 9.9663 14.6165 8.79694 16.1043C6.83502 19.0621 5.10006 22.1643 3.60694 25.3843C1.88565 28.7785 0.768944 32.4467 0.306937 36.2243C0.113603 38.2776 0.0169363 40.331 0.0169363 42.3843C-0.0384051 43.8187 0.0419523 45.2551 0.256937 46.6743C0.686937 49.2443 1.31694 51.7943 1.84694 54.3643C2.05694 55.3643 2.15694 56.4943 2.42694 57.5343C2.83694 59.0743 3.42694 60.5343 3.80694 62.1043C4.64259 65.4054 5.88546 68.5899 7.50694 71.5843Z" fill="white"/>
<path id="Vector_2" fill-rule="evenodd" clip-rule="evenodd" d="M7.50694 71.5843C8.00694 72.532 8.57161 73.4442 9.19694 74.3143C9.77694 75.1543 10.537 75.8843 11.057 76.7643C12.0062 78.4113 13.2036 79.9021 14.607 81.1843C16.087 82.5143 17.297 84.1143 19.107 85.1043C20.4055 85.8362 21.5912 86.7524 22.627 87.8243C25.0064 90.0041 27.6385 91.8909 30.467 93.4443C32.7535 94.8383 35.1361 96.0681 37.597 97.1243C41.087 98.6243 44.657 99.9243 48.217 101.254C48.9571 101.459 49.7194 101.573 50.487 101.594C51.707 101.714 52.937 101.784 54.157 101.904C54.917 101.984 55.667 102.154 56.437 102.204C59.347 102.424 62.267 102.554 65.177 102.814C67.8518 103.018 70.5418 102.866 73.177 102.364C73.9321 102.221 74.6985 102.148 75.467 102.144C78.7481 102.164 81.9984 101.51 85.017 100.224C86.297 99.7043 87.647 99.3743 89.017 98.9643C89.6686 98.824 90.3074 98.63 90.927 98.3843C92.927 97.3843 94.927 96.4643 96.777 95.3043C97.729 94.8785 98.5355 94.1832 99.097 93.3043C99.5635 92.225 99.7426 91.0434 99.617 89.8743C99.632 89.4348 99.5502 88.9974 99.3774 88.593C99.2046 88.1887 98.945 87.8272 98.617 87.5343C98.0156 86.898 97.4481 86.2304 96.917 85.5343C95.797 84.1943 94.767 82.7743 93.547 81.5343C90.9258 79.0011 88.5425 76.2328 86.427 73.2643C85.357 71.6743 84.247 70.0043 83.017 68.4043C81.017 65.7343 78.917 63.1343 76.897 60.4643C76.6064 59.9227 76.3911 59.3441 76.257 58.7443C75.707 58.7443 75.257 58.3643 74.737 57.7443C73.1076 55.9257 71.5914 54.0087 70.197 52.0043C67.807 48.4743 65.197 45.1243 62.647 41.6843C62.017 40.8143 61.497 39.8743 60.847 39.0143C58.2302 35.6277 55.9115 32.0209 53.917 28.2343C53.257 26.9643 52.437 25.7743 51.657 24.5643C50.757 23.1343 49.817 21.7243 48.897 20.3043C48.058 18.8884 47.1468 17.5166 46.167 16.1943C44.1946 13.6783 42.4351 11.0024 40.907 8.19428C39.327 5.43428 37.907 2.51428 34.777 1.07428C34.682 1.04241 34.5985 0.983285 34.537 0.90428C34.017 -0.26572 33.017 0.0042804 32.137 0.0842804C31.1594 0.175782 30.198 0.394288 29.277 0.73428C25.7518 1.91859 22.4569 3.70133 19.537 6.00428C17.187 7.91428 15.017 10.0043 12.797 12.1043C11.3092 13.2737 9.9663 14.6165 8.79694 16.1043C6.83502 19.0621 5.10006 22.1643 3.60694 25.3843C1.88565 28.7785 0.768944 32.4467 0.306937 36.2243C0.113603 38.2776 0.0169363 40.331 0.0169363 42.3843C-0.0384051 43.8187 0.0419523 45.2551 0.256937 46.6743C0.686937 49.2443 1.31694 51.7943 1.84694 54.3643C2.05694 55.3643 2.15694 56.4943 2.42694 57.5343C2.83694 59.0743 3.42694 60.5343 3.80694 62.1043C4.64259 65.4054 5.88546 68.5899 7.50694 71.5843ZM17.427 21.1343C17.1737 21.9655 17.0029 22.8196 16.917 23.6843C16.8858 24.1415 16.728 24.5809 16.4613 24.9535C16.1947 25.3262 15.8296 25.6173 15.407 25.7943C15.007 26.0043 14.627 26.2543 14.177 26.5243C13.707 25.0843 14.537 23.9543 14.777 22.7443C15.087 21.4007 15.5016 20.0833 16.017 18.8043C16.517 17.4643 17.017 16.0943 18.477 15.4643C18.6855 15.4021 18.9 15.3619 19.117 15.3443C18.507 17.4043 17.937 19.2643 17.427 21.1343ZM20.167 15.8143C20.567 14.7243 20.987 13.5643 22.517 13.2043C22.337 13.7343 22.217 14.2043 22.047 14.5743C21.157 16.8143 20.247 19.0443 19.367 21.2843C19.1804 21.7027 19.0622 22.1484 19.017 22.6043C19.017 23.4043 18.507 23.6043 17.577 23.8243C17.897 22.8243 18.157 22.0143 18.417 21.2143C19.017 19.4043 19.517 17.5843 20.167 15.8143ZM17.927 25.7243L17.507 27.1943C17.017 26.2343 17.017 26.2343 17.927 25.7243ZM31.927 83.6343C31.3049 83.4586 30.7358 83.1321 30.27 82.6838C29.8043 82.2355 29.4563 81.6792 29.257 81.0643C29.067 81.0643 28.817 81.2043 28.697 81.1243C27.6755 80.5135 26.8122 79.6708 26.177 78.6643C26.757 78.4343 26.997 78.7543 27.267 79.0343L29.267 81.0343L31.927 83.6343ZM33.247 86.4243L32.907 87.1643C32.717 87.1643 32.607 87.2443 32.527 87.1643C29.827 85.8443 27.617 83.8243 25.257 82.0143C25.1527 81.8858 25.0788 81.7355 25.0407 81.5744C25.0026 81.4134 25.0013 81.2459 25.037 81.0843C25.2055 80.56 25.4266 80.0541 25.697 79.5743L33.247 86.4243ZM34.247 86.9243L41.807 92.1443L39.807 92.6143C38.157 91.4743 36.417 90.3143 34.727 89.0843C33.747 88.4243 33.707 88.0743 34.227 86.9243H34.247ZM24.797 79.3243C21.547 76.7543 19.407 73.4643 16.937 70.3743L17.727 68.5843C20.217 71.8543 22.417 75.0543 25.567 77.5843L24.797 79.3243ZM11.577 43.7443C11.777 46.3843 11.947 48.8043 12.157 51.2243C12.1307 52.2414 12.276 53.2556 12.587 54.2243C13.257 55.6743 12.367 56.2243 11.507 57.0843C11.2928 56.7282 11.1279 56.3447 11.017 55.9443C10.627 52.8443 10.257 49.7443 9.92694 46.6343C9.87205 46.0415 10.0009 45.4461 10.2962 44.9291C10.5914 44.412 11.0385 43.9984 11.577 43.7443ZM9.10694 44.4143C9.21694 42.1943 9.27694 40.4143 9.40694 38.5543C9.53694 36.6943 9.74694 34.7943 9.92694 32.9143C9.93232 32.221 10.1553 31.5469 10.5644 30.987C10.9735 30.4272 11.548 30.01 12.207 29.7943C12.057 31.5543 11.937 33.1643 11.767 34.7943C11.4022 37.0112 11.2615 39.2592 11.347 41.5043C11.3825 41.8625 11.2786 42.2207 11.057 42.5043C10.547 43.0543 9.94694 43.5843 9.10694 44.4143ZM13.457 56.5743C13.947 57.9143 14.357 59.1243 14.837 60.3043C15.497 61.9143 16.107 63.5543 16.907 65.0943C17.707 66.6343 17.087 67.8943 16.257 69.4543C15.5754 68.5659 14.9794 67.615 14.477 66.6143C13.587 64.2143 12.817 61.7643 12.067 59.3143C11.777 58.3743 12.017 58.1143 13.457 56.5743ZM19.017 67.3243C20.097 69.2043 21.177 71.0643 22.257 72.9243L22.057 73.0643C21.787 72.6843 21.527 72.2843 21.227 71.9143C20.437 70.9143 19.627 69.9143 18.827 68.9143C18.247 68.1643 18.267 68.0643 19.017 67.3243ZM15.847 58.0543C16.2066 60.3991 16.9392 62.6711 18.017 64.7843C18.187 65.1443 18.627 65.5543 18.107 66.0943C17.537 64.8543 16.917 63.6943 16.447 62.4743C15.707 60.5543 15.087 58.5943 14.387 56.6543C14.2452 56.3505 14.2115 56.0073 14.2916 55.6818C14.3716 55.3562 14.5605 55.0678 14.827 54.8643C15.2869 55.8882 15.6388 56.9574 15.877 58.0543H15.847ZM13.407 54.4643C13.207 52.7643 12.987 51.3143 12.877 49.8543C12.727 47.9143 12.677 45.9643 12.537 44.0243C12.4775 43.3046 12.6201 42.5826 12.9488 41.9395C13.2774 41.2964 13.7789 40.7578 14.397 40.3843C14.397 41.7543 14.347 42.9543 14.397 44.1443C14.467 47.1443 14.557 50.0643 14.647 53.0243C14.667 53.6143 14.687 53.6143 13.437 54.4643H13.407ZM13.917 39.4643C13.347 40.0243 12.807 40.6043 12.247 41.1743L12.017 41.0043C12.017 40.0043 12.017 39.0043 12.167 38.0043C12.467 35.4643 12.887 32.9443 13.167 30.4043C13.2492 29.609 13.5404 28.8495 14.0111 28.2032C14.4818 27.5569 15.1152 27.0466 15.847 26.7243C15.687 27.7243 15.537 28.6143 15.407 29.4743C15.127 31.2843 14.817 33.0943 14.587 34.9143C14.5339 35.5279 14.5812 36.146 14.727 36.7443C14.8608 37.2224 14.8587 37.7283 14.721 38.2052C14.5832 38.6822 14.3151 39.1113 13.947 39.4443L13.917 39.4643ZM16.817 27.6543L17.197 27.7743C16.947 28.4743 16.697 29.1743 16.457 29.8643C16.3496 29.4873 16.329 29.0908 16.3965 28.7046C16.4641 28.3185 16.618 27.9526 16.847 27.6343L16.817 27.6543ZM14.437 20.6543C14.017 22.4543 13.577 24.2443 13.147 26.0443C13.0553 26.7098 12.7776 27.3359 12.346 27.8507C11.9144 28.3654 11.3463 28.748 10.707 28.9543C10.927 27.8643 11.067 26.8743 11.327 25.9543C11.867 24.0243 12.447 22.1143 13.037 20.2043C13.1843 19.7744 13.4274 19.3836 13.7479 19.0614C14.0684 18.7392 14.4579 18.494 14.887 18.3443C14.757 19.1343 14.637 19.8743 14.467 20.6043L14.437 20.6543ZM10.437 26.4143C10.3834 27.0688 10.2933 27.7199 10.167 28.3643C9.95342 29.1871 9.61624 29.9727 9.16694 30.6943C8.45481 31.6337 7.69376 32.5349 6.88694 33.3943C6.57694 32.5343 6.99694 29.8043 7.88694 26.8843C8.46272 24.6589 9.70066 22.6608 11.437 21.1543C11.107 23.0043 10.767 24.6543 10.467 26.3643L10.437 26.4143ZM7.79694 34.4143C7.98957 33.8315 8.28788 33.2891 8.67694 32.8143L9.03694 32.9343C9.01694 33.6043 9.01694 34.2943 9.01694 35.0043C8.82361 37.671 8.62694 40.3376 8.42694 43.0043C8.42694 43.2143 8.28694 43.4543 8.36694 43.6143C9.22694 45.5243 7.67694 46.4843 6.83694 47.7143L6.50694 47.6343C6.47196 47.1483 6.47196 46.6603 6.50694 46.1743C6.88694 42.2043 7.31694 38.2943 7.82694 34.3943L7.79694 34.4143ZM9.09694 47.0643C9.18694 48.0643 9.27694 49.0643 9.35694 50.0643C9.43291 52.5785 9.83288 55.0724 10.547 57.4843C10.5974 57.67 10.6101 57.8638 10.5843 58.0545C10.5586 58.2451 10.4949 58.4287 10.397 58.5943C9.92694 59.2643 9.57694 60.2043 8.33694 59.9443C8.04694 57.9443 7.73694 55.9443 7.44694 53.9443C7.4059 53.1798 7.31908 52.4184 7.18694 51.6643C6.64694 49.7143 7.54694 48.3243 9.09694 47.0643ZM15.097 69.6243C15.375 69.9764 15.5196 70.4155 15.5049 70.8639C15.4903 71.3123 15.3174 71.7411 15.017 72.0743C14.1581 71.2818 13.5029 70.2939 13.107 69.1943C12.367 67.3243 11.507 65.5143 10.707 63.6743C10.477 63.1543 10.327 62.6043 10.077 62.1043C9.59694 61.1043 9.89694 60.4443 10.917 59.8543C11.251 60.4499 11.5353 61.072 11.767 61.7143C12.4835 64.5063 13.6198 67.1734 15.137 69.6243H15.097ZM15.867 75.3243C16.257 75.7243 16.607 76.0443 16.917 76.3943C18.417 78.1443 19.917 79.9043 21.427 81.6443C21.6819 81.9001 21.9937 82.092 22.337 82.2043C22.827 82.3943 23.127 82.2043 23.147 81.6443C20.4981 79.7888 18.3033 77.3582 16.727 74.5343C16.6514 74.401 16.5608 74.2769 16.457 74.1643C15.537 73.1643 15.537 72.9343 16.627 71.6543L24.127 80.1943C23.837 81.3643 23.567 82.4343 23.277 83.6343C22.9796 83.5152 22.6975 83.3607 22.437 83.1743C20.437 81.3543 18.517 79.5443 16.617 77.6643C16.2481 77.415 15.9761 77.0463 15.8469 76.6203C15.7176 76.1942 15.7388 75.7366 15.907 75.3243H15.867ZM31.547 91.2043C29.547 90.0543 27.637 89.0143 25.797 87.8143C25.3525 87.6056 24.9781 87.2726 24.7189 86.8555C24.4598 86.4385 24.3271 85.9552 24.337 85.4643C24.4888 85.6264 24.6526 85.7768 24.827 85.9143C26.827 87.2543 28.827 88.5743 30.827 89.9143C31.237 90.1843 31.837 90.3643 31.547 91.2043ZM31.797 89.3643C30.4532 88.8355 29.1828 88.1365 28.017 87.2843C27.017 86.7443 26.237 86.0043 25.357 85.4043C23.997 84.4043 23.987 84.4643 24.627 82.6143L29.717 86.5143C30.367 87.0143 31.027 87.5143 31.717 87.9643C32.407 88.4143 32.227 88.7743 31.797 89.3643ZM41.927 96.1143C39.1655 94.9808 36.5447 93.5311 34.117 91.7943C33.637 91.4443 33.117 91.0843 33.347 90.2843C33.417 90.0043 33.067 89.6143 32.757 88.9443C33.667 89.4443 34.297 89.7443 34.867 90.1143C36.587 91.2243 38.287 92.3643 39.987 93.4943C40.4798 93.7657 40.9082 94.1403 41.2431 94.5925C41.5779 95.0446 41.8111 95.5637 41.927 96.1143ZM50.927 98.6943C48.827 98.1143 46.747 97.4843 44.647 96.9543C44.2445 96.8642 43.8694 96.6792 43.5528 96.4148C43.2362 96.1504 42.9874 95.8143 42.827 95.4343C43.1442 95.4493 43.4591 95.4962 43.767 95.5743C45.767 96.3343 47.767 97.0943 49.767 97.8943C50.1769 98.1205 50.5623 98.3887 50.917 98.6943H50.967C51.677 98.3243 51.687 98.3243 52.487 98.8443L50.927 98.6943ZM44.667 95.1843C45.507 94.9243 45.507 94.9243 46.477 95.7343L44.667 95.1843ZM48.167 96.5343L48.327 96.1743L51.407 97.3343C50.197 97.5243 49.217 96.9143 48.177 96.5343H48.167ZM54.397 99.4643L53.627 99.2043L53.777 98.8843L54.487 99.2343L54.397 99.4643ZM51.397 96.5543L43.847 93.5543C43.5335 93.4232 43.2729 93.1908 43.107 92.8943C43.3634 92.8794 43.6205 92.8794 43.877 92.8943C46.387 93.0343 48.597 94.1243 50.877 95.0243C51.8611 95.3583 52.8625 95.6387 53.877 95.8643C54.187 95.9643 54.487 96.1143 55.077 96.3643C53.617 96.7343 52.537 97.0043 51.387 96.5543H51.397ZM54.557 98.0743C55.557 97.6643 59.267 98.6543 61.897 100.074C60.6018 100.369 59.2539 100.341 57.9722 99.9922C56.6905 99.6434 55.5142 98.9848 54.547 98.0743H54.557ZM62.477 99.0743L56.017 97.0943C55.887 97.0943 55.797 96.9043 55.677 96.8043C55.777 96.1743 56.087 96.0943 56.677 96.2443C58.297 96.7043 59.947 97.0743 61.577 97.5043C62.457 97.7343 63.327 98.0043 64.337 98.2943C64.155 98.6102 63.8694 98.8535 63.5286 98.9829C63.1878 99.1123 62.8127 99.1199 62.467 99.0043L62.477 99.0743ZM66.477 100.264C66.4234 99.9528 66.3114 99.6542 66.147 99.3843C65.977 99.2143 65.617 99.2143 65.087 99.0743C65.527 98.8343 65.777 98.5743 66.007 98.5943C68.137 98.7643 70.277 98.9743 72.417 99.1943C72.537 99.1943 72.657 99.3243 72.937 99.4743C71.647 100.264 69.297 100.524 66.487 100.214L66.477 100.264ZM73.857 99.9543C75.527 98.5943 77.477 99.3843 79.417 99.2043C78.657 99.7843 76.667 100.084 73.867 99.9043L73.857 99.9543ZM92.857 93.9543C90.9717 94.6242 89.0096 95.0543 87.017 95.2343C86.2529 95.3072 85.4946 95.4308 84.747 95.6043C83.147 96.1043 81.497 95.7443 79.877 95.8943C78.8086 95.8617 77.7396 95.9388 76.687 96.1243C76.0224 96.2585 75.3348 96.2241 74.687 96.0243C73.157 95.6678 71.587 95.5132 70.017 95.5643C67.3594 95.6073 64.7093 95.2705 62.147 94.5643C59.197 93.8943 56.247 93.2743 53.307 92.5643C51.307 92.1043 49.307 91.6543 47.307 91.0543C46.1955 90.6407 45.1131 90.1529 44.067 89.5943C44.117 89.1743 44.167 88.8243 44.207 88.4543C44.3694 88.4298 44.5346 88.4298 44.697 88.4543C45.4862 88.6845 46.2609 88.9616 47.017 89.2843C49.5931 90.433 52.2716 91.337 55.017 91.9843C56.417 92.3743 57.897 92.5143 59.337 92.7743C60.447 92.9643 61.567 93.1243 62.657 93.3743C67.5761 94.4902 72.6519 94.7406 77.657 94.1143C79.657 93.8676 81.6936 93.6343 83.767 93.4143C84.917 93.2943 86.077 93.1643 87.237 93.0943C89.9629 92.7921 92.6464 92.185 95.237 91.2843C96.007 91.0743 96.807 90.6543 97.527 91.4943C96.1188 92.5418 94.557 93.3648 92.897 93.9343L92.857 93.9543ZM95.017 85.4243C95.497 86.0843 95.927 86.7643 96.277 87.2743L95.557 88.8043C95.317 89.2843 95.007 89.5243 94.497 89.1143C94.197 88.8843 93.887 88.6743 93.577 88.4543C93.427 88.8643 93.287 89.2643 93.127 89.6643C93.0825 89.7573 93.0324 89.8475 92.977 89.9343C92.8749 90.01 92.7586 90.0643 92.635 90.0938C92.5113 90.1233 92.383 90.1274 92.2578 90.1059C92.1325 90.0844 92.0129 90.0377 91.9062 89.9687C91.7995 89.8997 91.7079 89.8097 91.637 89.7043C91.5701 89.5879 91.4683 89.4955 91.346 89.4402C91.2237 89.3848 91.0871 89.3693 90.9556 89.3958C90.824 89.4224 90.7041 89.4896 90.6128 89.588C90.5215 89.6865 90.4635 89.8111 90.447 89.9443C90.4115 90.1911 90.2932 90.4186 90.1115 90.5894C89.9298 90.7602 89.6955 90.8642 89.447 90.8843L87.837 89.9443C87.687 90.3243 87.537 90.7043 87.297 91.2843L86.467 91.5143C86.4345 91.2999 86.3633 91.0932 86.257 90.9043C86.067 90.6943 85.757 90.3643 85.597 90.4143C85.437 90.4643 84.907 90.8143 84.887 91.0543C84.837 91.7643 84.617 92.1243 84.147 92.0543L82.707 90.7443L81.707 92.3043L80.917 92.4443C79.127 91.6243 79.127 91.6243 79.107 92.6043C78.773 92.6509 78.433 92.6305 78.107 92.5443C76.697 91.7943 76.707 91.7743 75.517 92.1543C75.227 91.6543 74.837 91.0743 74.137 91.2943C73.867 91.3843 73.717 91.8543 73.407 92.2943C72.647 92.2243 71.587 92.6343 70.877 91.5143C70.777 91.3643 70.297 91.3243 70.057 91.4143C69.6601 91.6116 69.2847 91.8495 68.937 92.1243C68.717 91.6443 68.517 91.2043 68.337 90.8343C67.257 90.5743 66.907 91.3243 66.427 92.1243L65.017 91.0543C63.577 91.4943 63.577 91.4943 62.797 90.4443C61.937 91.3543 61.117 91.0643 60.257 90.5643C59.9231 90.3862 59.5432 90.313 59.167 90.3543C58.387 90.4443 57.657 90.5043 57.107 89.7743C56.9325 89.6202 56.7097 89.5318 56.477 89.5243C55.887 89.4543 55.287 89.4343 54.727 89.3943C54.667 88.9343 54.617 88.6143 54.557 88.1043C53.907 88.5143 53.407 88.8143 52.797 89.1843L51.667 88.7343L52.667 86.7343C51.7044 87.0357 50.8247 87.556 50.097 88.2543L48.657 87.7443L49.437 86.1943L49.227 86.0043L47.337 87.2643L46.017 86.8143L46.497 85.6243C46.217 85.5643 45.947 85.4343 45.867 85.5143C44.717 86.6143 43.867 85.8643 42.927 85.1543C43.047 84.6143 43.157 84.1043 43.317 83.3643C43.015 83.4854 42.721 83.6257 42.437 83.7843C42.2137 83.9699 42.0032 84.1704 41.807 84.3843L40.487 83.7043C40.177 82.8943 41.267 82.3643 40.487 81.6043C40.057 81.9043 39.617 82.1943 39.077 82.6043L37.867 81.9043C38.217 81.2543 38.507 80.6843 38.867 80.0943C37.927 79.4043 37.777 80.6443 37.057 80.6543C35.627 80.2443 36.757 79.0643 36.507 78.1743L34.957 78.8043C34.567 77.2943 32.957 77.0443 32.147 75.9643C31.577 75.2443 31.077 74.7443 31.757 73.8743C31.817 73.7943 31.757 73.5943 31.667 73.3143L30.237 73.5843C28.877 72.7743 29.937 71.6643 29.967 70.5843L28.267 71.3743C26.537 70.2843 28.017 69.0443 28.157 67.8843C27.237 67.3743 27.067 68.5443 26.157 68.5443C25.81 68.0364 25.5655 67.4658 25.437 66.8643C25.437 66.2943 25.937 65.7343 26.367 64.8643L24.727 65.2043C23.537 63.4943 23.537 63.4943 24.727 61.4943C24.037 60.4243 23.537 61.7743 22.927 61.6443C21.647 60.6443 23.317 60.1243 23.267 59.1143H21.897C21.287 58.2543 21.017 57.3943 22.137 56.5643C21.597 56.4043 21.077 56.4043 20.837 56.1443C20.6146 55.7934 20.4619 55.4029 20.387 54.9943C20.477 54.0843 21.727 53.9943 21.497 52.8943L20.017 53.0043C19.557 51.5543 21.777 51.7343 21.607 50.2943L20.017 50.5843C19.597 49.7343 20.147 49.2443 20.727 48.8043C21.1203 48.5572 21.5008 48.2902 21.867 48.0043C22.027 47.8443 21.977 47.4743 22.017 47.1943C21.777 47.1943 21.507 47.0243 21.307 47.0943C20.8647 47.2979 20.437 47.5318 20.027 47.7943C19.9048 47.2558 19.963 46.6921 20.1924 46.1898C20.4219 45.6875 20.8099 45.2745 21.297 45.0143C21.967 44.5243 21.977 44.5343 22.077 43.6243L20.477 43.9943C19.947 42.2543 22.167 42.2243 22.357 40.8143L21.017 40.4943C20.637 38.8243 22.717 38.7743 23.017 37.5543C22.347 37.1143 22.347 37.1143 20.557 37.9443C20.807 36.6143 22.457 36.5543 22.807 35.2143L21.257 35.0643C21.777 33.6743 22.967 33.0643 24.117 32.3643C23.807 31.5543 23.247 31.6943 22.717 31.9043C22.187 32.1143 21.767 32.3643 21.317 31.7343C22.037 30.3543 23.697 29.8643 24.687 28.7343L24.417 28.3043L22.417 28.6843C22.417 26.8643 24.757 26.9743 25.097 25.2943L23.597 25.4343C23.427 23.6643 25.387 23.5243 26.337 21.9543L24.917 21.8143C24.917 21.7043 24.857 21.5643 24.917 21.5143C25.1927 21.263 25.4079 20.9525 25.5465 20.6061C25.685 20.2597 25.7433 19.8864 25.717 19.5143C25.717 18.8443 26.327 18.1343 26.717 17.4543C28.2503 14.4876 29.7803 11.4843 31.307 8.44428C31.847 7.44428 32.407 6.35428 33.077 5.07428C33.277 6.68428 32.427 7.74428 32.077 8.92428C31.317 11.7443 30.147 14.4643 29.577 17.3143C28.647 21.9343 27.057 26.4143 26.757 31.1843C26.4419 34.0238 26.4017 36.8871 26.637 39.7343C26.8556 41.9271 26.9391 44.1313 26.887 46.3343C27.0168 49.2598 27.5347 52.1552 28.427 54.9443C28.867 56.5343 29.327 58.1143 29.877 59.6543C30.427 61.1943 31.067 62.6543 31.637 64.1043C31.857 64.6943 31.977 65.3243 32.197 66.1043C33.727 66.5043 33.817 68.3243 34.697 69.5243C35.227 70.2443 35.537 71.1543 36.127 71.8143C37.697 73.7133 39.513 75.3948 41.527 76.8143C42.007 77.1243 42.527 77.3243 42.527 78.0143C43.527 78.4043 43.647 80.0143 45.057 79.8743C45.31 79.9069 45.5435 80.0272 45.717 80.2143C48.1722 82.1521 50.9153 83.6941 53.847 84.7843C55.277 85.3643 56.677 86.0143 58.107 86.5643C58.8587 86.7305 59.6 86.9409 60.327 87.1943C61.6778 87.7303 63.0993 88.0672 64.547 88.1943C67.0211 88.6352 69.5362 88.8029 72.047 88.6943C74.6554 88.7046 77.2625 88.5744 79.857 88.3043C82.387 87.9843 84.977 87.9043 87.407 86.8643C89.237 86.0843 91.167 85.5343 93.047 84.8643C94.097 84.4643 94.407 84.5343 95.017 85.4243ZM92.627 83.1543L92.957 83.0743L93.197 83.8243C93.0754 83.8542 92.9517 83.8743 92.827 83.8843C92.7553 83.6447 92.6985 83.4009 92.657 83.1543H92.627ZM81.627 69.3243C82.117 69.9943 81.777 70.3243 81.047 70.4843C81.047 70.0143 81.047 69.6243 81.047 69.0543C81.357 69.1843 81.587 69.2043 81.677 69.3243H81.627ZM73.027 58.5643C73.027 58.5643 73.027 58.8043 73.027 59.0643C72.8245 59.0081 72.6321 58.9204 72.457 58.8043C72.457 58.8043 72.517 58.5443 72.557 58.4043C72.7368 58.4337 72.9117 58.4875 73.077 58.5643H73.027ZM51.647 28.0043C53.357 30.5643 55.047 33.1443 56.647 35.7543C57.457 37.0543 58.167 38.4343 58.897 39.7543C60.507 42.7543 62.897 45.1143 64.987 47.6943C66.417 49.4443 67.767 51.2543 69.117 53.0543C69.807 53.9643 70.437 54.9043 71.117 55.8343C71.3924 56.142 71.579 56.5188 71.657 56.9243C71.6567 57.1288 71.6128 57.3309 71.5283 57.5171C71.4438 57.7033 71.3206 57.8694 71.167 58.0043C71.0521 58.0589 70.9259 58.0857 70.7987 58.0825C70.6715 58.0792 70.5469 58.0461 70.4349 57.9857C70.3229 57.9253 70.2267 57.8394 70.1541 57.7349C70.0815 57.6305 70.0345 57.5103 70.017 57.3843C69.9352 57.0435 69.8283 56.7092 69.697 56.3843L68.417 56.8143L67.017 55.3943C66.7158 55.4391 66.4114 55.4592 66.107 55.4543C65.107 55.3843 64.917 55.0443 65.047 53.9743C65.0548 53.7745 65.0277 53.5748 64.967 53.3843C64.967 53.2943 64.827 53.2443 64.657 53.0843C64.397 53.2043 64.097 53.3743 63.787 53.4843C63.197 53.6743 62.697 53.3143 62.887 52.7743C63.077 52.2343 63.217 51.7743 62.677 51.6043C62.307 51.4743 61.807 51.7443 61.167 51.8843C60.9066 51.7621 60.7032 51.5444 60.5989 51.2763C60.4947 51.0082 60.4975 50.7103 60.607 50.4443C60.787 49.8243 60.387 49.5643 59.677 49.6843C58.677 49.8543 58.427 49.5643 58.677 48.5443C58.927 47.5243 58.797 47.4443 57.747 47.5443C57.3493 47.5374 56.9537 47.4871 56.567 47.3943C56.8903 46.9527 57.181 46.4881 57.437 46.0043C57.4788 45.8678 57.488 45.7233 57.4636 45.5826C57.4393 45.4419 57.3822 45.3089 57.297 45.1943C57.157 45.0743 56.747 45.1943 56.507 45.2543C56.2096 45.4557 55.865 45.5764 55.507 45.6043C55.7149 45.2851 55.8988 44.9509 56.057 44.6043C56.297 44.0143 55.957 43.6043 55.317 43.6743C54.897 43.7343 54.467 44.1943 54.097 43.3943C54.2653 43.1988 54.4096 42.984 54.527 42.7543C54.6366 42.4294 54.7137 42.0944 54.757 41.7543C54.4287 41.6711 54.0943 41.6142 53.757 41.5843C53.587 41.5843 53.407 41.7243 53.267 41.7943C52.267 41.0543 52.547 40.2643 53.267 39.2643L51.467 38.9943C51.277 38.5743 51.037 38.0743 50.817 37.5943C50.817 36.9043 52.047 36.6543 51.467 35.8643C51.257 35.5743 50.717 35.5343 50.187 35.3243C49.257 33.7543 49.257 33.7543 50.447 32.4543C50.247 31.3443 49.367 32.0843 48.917 31.7343C48.517 30.5943 50.067 30.3343 49.977 29.1243L48.447 28.7243C47.687 27.6543 49.447 27.1243 49.237 26.0843C48.747 25.6343 47.657 25.8143 47.747 24.8143C47.747 24.4543 48.167 24.1243 48.527 23.5843C49.677 25.2343 50.707 26.5643 51.647 28.0043ZM47.137 21.8043C47.307 22.0843 47.527 22.4643 47.457 22.7243C47.292 23.1348 47.0624 23.5163 46.777 23.8543L46.427 23.7643C46.3278 23.3407 46.2676 22.9089 46.247 22.4743C46.2808 22.1943 46.4075 21.9337 46.607 21.7343C46.6901 21.6936 46.782 21.6741 46.8745 21.6776C46.967 21.6811 47.0572 21.7074 47.137 21.7543V21.8043ZM45.917 25.6643C46.157 26.7943 46.487 27.8343 45.347 28.8843C45.6934 28.8888 46.0253 29.0243 46.2758 29.2637C46.5263 29.5031 46.6768 29.8284 46.697 30.1743C46.887 31.2343 47.197 32.2743 47.317 33.3443C47.297 33.8343 47.1956 34.3176 47.017 34.7743C47.4892 35.6398 47.897 36.5389 48.237 37.4643C49.2068 40.5682 50.7464 43.4643 52.777 46.0043C53.937 47.5643 54.927 49.2743 56.197 50.7543C58.0713 53.1333 60.3493 55.1642 62.927 56.7543C64.8198 57.7864 66.7658 58.7177 68.757 59.5443C70.1215 60.1819 71.6612 60.3405 73.127 59.9943C73.5258 59.8918 73.9474 59.9245 74.3257 60.0874C74.7039 60.2503 75.0174 60.5341 75.217 60.8943C76.987 63.2843 78.797 65.6343 80.717 68.1543L79.327 68.2743C80.107 70.4643 79.937 71.0143 78.257 71.3343C78.257 70.4643 78.257 69.6243 78.307 68.7543C77.307 68.3243 76.877 68.9843 76.367 69.4943C77.447 71.3743 77.207 72.0943 75.477 72.2443C75.557 71.3943 75.627 70.5443 75.697 69.7143C74.517 69.4343 74.427 69.4643 74.317 70.2543C74.3207 70.7142 74.2771 71.1733 74.187 71.6243C74.067 71.9643 73.687 72.2143 73.187 72.7743C72.777 71.6543 72.487 70.8843 72.187 69.9243C71.457 69.5443 71.107 70.1643 70.797 70.9243L69.417 70.6043C69.417 70.1543 69.417 69.7443 69.467 69.3443C69.4845 69.241 69.4779 69.135 69.4476 69.0347C69.4174 68.9343 69.3644 68.8424 69.2928 68.7659C69.2212 68.6894 69.1328 68.6305 69.0347 68.5938C68.9365 68.5571 68.8312 68.5436 68.727 68.5543C68.277 68.5543 67.927 68.7643 68.037 69.3343C68.026 69.5079 67.9923 69.6794 67.937 69.8443L67.047 69.3443C66.817 68.6943 67.677 68.0343 66.857 67.5843C66.037 67.1343 65.957 68.0643 65.567 68.2743C64.007 67.9343 65.357 66.0943 63.907 65.6743L63.127 66.6743C62.827 66.4743 62.297 66.3143 62.217 66.0243C62.1362 65.7364 61.9635 65.4828 61.7252 65.3023C61.4868 65.1217 61.196 65.0241 60.897 65.0243C60.5593 64.9264 60.2504 64.748 59.997 64.5043C59.927 63.6243 60.097 62.6543 59.777 62.4543C59.457 62.2543 58.477 62.3843 57.477 62.3843C57.2801 62.0754 57.1318 61.7381 57.037 61.3843C56.897 60.5543 56.677 60.0343 55.657 60.2243C55.077 60.3243 54.747 60.0343 54.777 59.3243C54.777 57.9143 54.687 57.8343 53.367 58.2643C52.467 57.5843 53.137 56.8943 53.467 56.1643L52.467 55.3043L51.807 56.3643C51.6653 56.368 51.525 56.3358 51.3991 56.2707C51.2732 56.2056 51.1658 56.1097 51.0869 55.9919C51.0081 55.8741 50.9603 55.7383 50.9481 55.5971C50.9359 55.4559 50.9596 55.3139 51.017 55.1843C51.327 54.5843 51.567 54.0743 50.807 53.4943C50.487 53.7143 50.127 53.9443 49.697 54.2143C49.547 53.9443 49.257 53.6643 49.287 53.4443C49.3366 53.1439 49.2978 52.8355 49.1753 52.5568C49.0528 52.278 48.8518 52.0409 48.597 51.8743C48.017 51.3843 48.127 50.8043 48.597 50.2343C48.8734 49.8654 49.124 49.4778 49.347 49.0743C49.567 48.6343 49.457 48.2743 48.857 48.0743L47.597 49.4043C47.037 48.6443 46.597 48.0443 46.877 47.1043C47.157 46.1643 47.097 46.1043 46.047 45.7243C45.8935 45.621 45.7635 45.4867 45.6653 45.3299C45.5671 45.1731 45.5029 44.9975 45.477 44.8143C45.427 44.5643 45.697 44.2643 45.807 43.9743C46.157 43.1243 45.927 42.8443 44.937 42.8843H44.467C44.3679 42.6968 44.281 42.503 44.207 42.3043C44.107 42.0143 44.037 41.7143 43.927 41.3043C44.1756 41.0717 44.391 40.8058 44.567 40.5143C44.7065 40.2197 44.7245 39.882 44.617 39.5743C44.337 39.1043 44.017 39.4743 43.727 39.6743C43.6238 39.7155 43.5165 39.7456 43.407 39.7643C42.977 39.3243 42.687 38.8643 43.227 38.3243C43.607 37.9443 43.837 37.4843 43.397 37.1443C43.127 36.9343 42.597 37.0543 41.997 37.0243C41.557 36.4443 41.587 35.8443 42.387 35.2543C42.5227 35.1279 42.6276 34.972 42.6935 34.7986C42.7594 34.6252 42.7845 34.439 42.767 34.2543C42.607 33.7543 42.137 33.7243 41.617 33.9043C41.097 34.0843 41.057 34.0343 40.177 33.4443L42.327 31.8043C41.607 30.0343 40.757 32.0643 39.967 31.5143C39.8724 31.3562 39.8148 31.1787 39.7986 30.9952C39.7824 30.8117 39.8079 30.6268 39.8734 30.4546C39.9388 30.2823 40.0424 30.1272 40.1764 30.0007C40.3104 29.8742 40.4712 29.7797 40.647 29.7243C40.777 29.6543 40.967 29.5943 41.027 29.4843C41.177 29.1843 41.417 28.8143 41.337 28.5743C41.177 28.0843 40.747 28.1043 40.337 28.3443C40.137 28.4643 39.907 28.5443 39.657 28.6643C38.997 26.9043 41.067 27.0743 41.277 25.6643L40.727 24.8343L39.397 25.8343C39.147 25.2943 38.987 24.8943 39.567 24.5943C39.977 24.3843 40.397 24.1943 40.807 23.9743C41.507 23.5843 41.507 23.5843 41.807 22.5643C40.567 21.3643 40.227 23.5043 39.197 23.2443C39.017 22.3343 39.117 21.5943 40.197 21.1843C40.7243 20.9505 41.1976 20.61 41.587 20.1843C41.777 20.0043 41.717 19.5643 41.767 19.2443C41.447 19.2443 41.087 19.0643 40.767 19.1643C40.3366 19.3598 39.9306 19.6048 39.557 19.8943C39.047 19.0243 39.187 18.5143 40.027 18.1243C40.6314 17.8346 41.1961 17.4682 41.707 17.0343C41.927 16.8543 41.947 16.4443 42.057 16.1343C41.727 16.0843 41.357 15.9143 41.057 16.0243C40.4816 16.3081 39.9328 16.6428 39.417 17.0243C39.417 16.3643 39.417 15.8943 39.417 15.5343L42.207 13.6843L45.967 19.6843C44.727 21.6743 45.497 23.6943 45.917 25.6643ZM39.547 13.9243C39.547 13.1143 39.547 12.6743 39.607 12.1443C40.277 12.0243 40.917 11.5643 41.607 12.4843L39.547 13.9243ZM37.397 5.92428C38.227 6.99428 38.897 7.92428 39.617 8.81428C37.877 11.7643 38.227 15.0043 38.017 18.1843C37.867 21.0034 37.897 23.8291 38.107 26.6443C38.3729 31.4808 39.3848 36.247 41.107 40.7743C41.2205 41.212 41.3073 41.6561 41.367 42.1043C41.4035 42.3982 41.5291 42.6739 41.727 42.8943C42.132 43.2422 42.4597 43.6711 42.6887 44.1533C42.9178 44.6356 43.0433 45.1606 43.057 45.6943C43.0967 45.9989 43.1916 46.2937 43.337 46.5643C44.637 49.1143 45.897 51.7043 47.337 54.2043C47.9574 55.1502 48.6673 56.0343 49.457 56.8443C50.347 57.8443 51.297 58.8443 52.157 59.9643C52.4595 60.4644 52.7108 60.9937 52.907 61.5443C53.4421 61.5998 53.9508 61.8045 54.3752 62.1351C54.7995 62.4658 55.1224 62.909 55.307 63.4143C55.467 63.7843 56.017 63.9743 56.307 64.3043C59.117 67.2043 62.547 69.3043 65.857 71.5243C67.2557 72.5054 68.8341 73.2012 70.502 73.5718C72.1698 73.9424 73.8943 73.9807 75.577 73.6843C78.1531 73.335 80.5789 72.2676 82.577 70.6043C84.297 72.5443 85.577 74.7143 87.157 76.7943C86.637 77.1943 86.297 77.3643 86.057 76.7943C85.817 76.2243 85.527 75.6643 84.707 75.9643C84.647 76.5343 84.597 77.0743 84.547 77.6043L84.247 77.6643C84.017 77.0043 84.137 76.1243 83.017 76.1443C82.577 77.1443 82.927 78.8943 80.957 78.4643C80.427 78.0543 80.957 76.5943 79.447 77.0443C79.447 77.6143 79.447 78.1643 79.447 78.8043L78.117 79.0043C77.697 78.5943 78.117 77.6843 77.327 77.6543C76.217 77.6543 76.727 78.8043 76.107 79.3343L74.107 79.4443C74.107 78.9443 74.107 78.5043 74.107 78.0643C74.107 77.6243 73.877 77.2343 73.387 77.2543C72.897 77.2743 72.747 77.6543 72.827 78.1343C72.8233 78.3703 72.7931 78.6051 72.737 78.8343L71.247 78.6343C71.1752 78.527 71.1211 78.4088 71.087 78.2843C71.027 77.7843 71.137 77.1043 70.467 77.0343C69.617 76.9543 69.877 77.7943 69.667 78.4343L68.297 78.0043C67.877 77.5043 68.637 76.5043 67.647 76.4743C67.247 76.4743 66.837 77.0043 66.327 77.3643C66.285 77.1501 66.2616 76.9326 66.257 76.7143C66.257 76.2643 66.257 75.8743 65.747 75.7143C65.237 75.5543 64.997 75.9043 64.827 76.3343C64.7349 76.5077 64.6313 76.6747 64.517 76.8343L62.797 76.1243C62.917 75.7743 63.117 75.4743 63.067 75.2343C62.9938 74.9066 62.7967 74.6199 62.517 74.4343C62.3803 74.4054 62.2386 74.4123 62.1054 74.4544C61.9722 74.4964 61.8522 74.5722 61.757 74.6743C61.427 75.5243 60.987 75.0543 60.457 74.7943C60.367 74.2743 61.157 73.3743 59.917 73.0943L59.047 74.0943C57.477 73.5443 58.817 72.3743 58.347 71.4743L57.417 71.1843C57.227 71.8443 57.067 72.4243 56.887 73.0743L55.367 72.4243C55.497 72.0243 55.577 71.6843 55.707 71.3643C55.837 71.0443 56.017 70.3643 55.477 70.1743C54.937 69.9843 54.477 70.1743 54.407 70.8643C54.3409 71.1013 54.2398 71.3272 54.107 71.5343C53.527 70.6643 54.357 69.9443 54.057 69.2243C52.957 68.5943 52.987 69.9843 52.317 70.2243C51.617 69.6943 51.057 69.1643 51.627 68.2243C51.7138 68.0952 51.7461 67.9371 51.717 67.7843C51.6465 67.511 51.4927 67.2663 51.277 67.0843C51.147 67.0043 50.757 67.1443 50.627 67.3043C50.3981 67.6175 50.2005 67.9525 50.037 68.3043C49.247 68.3043 49.147 67.9343 49.377 67.3043C49.8473 66.4878 50.1052 65.5663 50.127 64.6243C49.397 64.3443 48.937 64.5243 48.747 65.2843C48.627 65.7643 48.517 66.2843 48.377 66.8243C47.517 66.3743 46.907 66.0043 47.317 65.1043C47.537 64.6143 47.837 64.1043 47.317 63.7243C46.997 63.5143 46.397 63.7243 45.777 63.7243C45.857 63.2543 45.947 62.7243 46.027 62.1943C45.917 62.0543 45.867 61.9343 45.797 61.9043C44.127 61.4643 44.127 61.4743 45.027 60.0343C45.1393 59.8304 45.2395 59.62 45.327 59.4043C44.637 58.4043 44.157 59.6043 43.437 59.4043C43.547 59.1043 43.667 58.8543 43.737 58.6043C43.807 58.3543 43.847 58.0743 43.907 57.8043L42.777 57.6543L42.317 56.6543L43.317 55.3843L43.157 55.0743L41.597 55.2843C41.277 54.7543 41.177 54.2843 41.787 53.8343C42.157 53.5743 42.397 53.2643 41.997 52.7343L40.777 53.0343C39.857 52.4943 40.777 51.8243 40.617 51.1643C40.137 51.0043 39.217 51.0043 39.267 50.0043C39.607 49.6243 39.947 49.2343 40.267 48.8543L40.097 48.5443L38.557 48.6443L38.107 47.8143L39.357 46.3343C39.357 46.2143 39.257 46.1043 39.197 45.9843L37.817 46.0043C37.177 45.0043 37.177 45.0043 37.937 44.1843C38.297 43.8243 38.297 43.8243 38.137 42.9643L36.777 43.2743C36.627 42.9043 36.487 42.5343 36.337 42.1143L38.397 40.1843C38.3377 40.0739 38.2842 39.9604 38.237 39.8443L36.537 40.0643C35.887 39.0043 35.897 38.9343 36.697 38.3543C37.087 38.0843 37.457 37.7943 37.947 37.4243C37.6139 37.2548 37.2473 37.1614 36.8737 37.151C36.5001 37.1407 36.1289 37.2135 35.787 37.3643L35.287 36.0843L36.847 34.8343C36.227 33.9743 35.537 34.6743 34.847 34.5443L33.987 33.5443L36.657 32.1343C35.797 31.2043 34.977 31.9943 34.067 32.0543C33.977 31.6743 33.887 31.3043 33.797 30.9543C34.367 30.5443 34.917 30.1643 35.457 29.7943L35.337 29.4543L33.537 29.2743L36.057 27.0243C35.237 26.0243 34.607 27.1443 33.857 27.1243C33.7768 26.9948 33.7273 26.8487 33.7123 26.6971C33.6972 26.5456 33.7169 26.3926 33.77 26.2498C33.823 26.107 33.908 25.9783 34.0184 25.8733C34.1288 25.7684 34.2617 25.6901 34.407 25.6443C34.6487 25.5551 34.8722 25.423 35.067 25.2543C35.2174 25.0073 35.3351 24.7417 35.417 24.4643C35.1132 24.3642 34.8024 24.2873 34.487 24.2343C34.2952 24.2634 34.1114 24.3315 33.947 24.4343C33.127 22.9343 34.647 22.6443 35.317 21.7743L33.927 21.2143C33.457 19.8143 35.257 20.3043 35.407 19.2643L34.157 18.6743C33.807 16.9443 35.467 17.3643 36.267 16.8143C36.037 15.7143 35.057 16.2443 34.437 15.8743C34.437 15.521 34.477 15.131 34.557 14.7043L36.877 13.6343L35.017 13.1443C34.807 12.3343 35.217 11.9943 35.947 11.7243C36.467 11.5343 37.247 11.5643 37.347 10.5343L35.587 10.3643C35.147 8.77428 37.077 9.47428 37.327 8.36428L36.327 7.72428C36.587 7.24428 36.947 6.67428 37.397 5.93428V5.92428ZM34.937 4.64428C35.147 4.20428 35.427 3.80428 35.997 4.20428C36.567 4.60428 36.447 4.98428 35.997 5.34428C35.3584 5.95145 34.9487 6.76023 34.837 7.63428C33.7552 11.9676 33.0591 16.3882 32.757 20.8443C32.4217 25.6541 32.6128 30.4861 33.327 35.2543C33.967 38.7743 34.477 42.3243 35.327 45.8143C35.9372 47.9847 36.6717 50.1183 37.527 52.2043C37.6035 52.3401 37.6639 52.4844 37.707 52.6343C38.157 55.5043 39.907 57.8043 41.037 60.3743C41.237 60.8243 41.317 61.3743 41.487 61.7843C41.5941 62.0537 41.7281 62.3117 41.887 62.5543C42.437 63.4143 42.967 64.2843 43.567 65.1043C43.9111 65.5401 44.2962 65.942 44.717 66.3043C46.717 68.3043 48.717 70.3043 50.867 72.1343C52.0305 73.0563 53.2874 73.854 54.617 74.5143C57.447 76.0543 60.307 77.5743 63.187 79.0243C66.162 80.4791 69.4786 81.0912 72.777 80.7943C76.247 80.5243 79.707 79.9543 83.147 79.4043C84.2456 79.1314 85.3193 78.7668 86.357 78.3143C87.737 77.8343 87.737 77.9143 88.697 78.9843C89.507 79.8943 90.487 80.6543 91.387 81.4943C91.5687 81.684 91.739 81.8843 91.897 82.0943L90.827 82.8243C91.0163 83.3825 91.147 83.959 91.217 84.5443C91.217 84.7043 90.587 84.8543 90.217 85.0143C89.287 82.7943 89.287 82.7943 88.087 83.1843C88.327 83.8543 88.567 84.5443 88.857 85.3743L87.387 85.8043C86.547 85.1843 87.207 83.4343 85.387 83.8043C85.547 84.6343 85.687 85.4043 85.857 86.3343L84.197 86.4343C84.1358 85.8871 84.0321 85.3455 83.887 84.8143C83.807 84.6043 83.367 84.2943 83.237 84.3543C83.107 84.4143 82.647 84.8143 82.647 85.0643C82.683 85.6077 82.7837 86.1448 82.947 86.6643L81.547 86.8643C81.5003 86.4418 81.4064 86.0259 81.267 85.6243C81.157 85.4043 80.747 85.1243 80.587 85.1843C80.2955 85.3271 80.0675 85.573 79.947 85.8743C79.857 86.1243 79.947 86.4543 80.037 86.9843L77.707 86.8743C77.6181 86.4067 77.4978 85.9457 77.347 85.4943C77.2764 85.3979 77.1866 85.3171 77.0834 85.2568C76.9802 85.1966 76.8657 85.1583 76.747 85.1443C76.627 85.1443 76.387 85.3643 76.347 85.5343C76.237 86.0122 76.1568 86.4965 76.107 86.9843H73.967C73.737 86.3943 73.557 85.9843 73.377 85.4443C73.0724 85.3742 72.7529 85.4153 72.476 85.5602C72.1991 85.7051 71.9831 85.9442 71.867 86.2343C71.467 86.9143 70.777 86.8843 70.507 86.2343C70.317 85.7443 70.267 85.0843 69.597 85.2343C69.1102 85.4514 68.6918 85.7971 68.387 86.2343C67.697 86.4143 67.057 86.4443 66.787 85.4743C66.657 85.0143 66.107 85.0343 65.787 85.3643C65.467 85.6943 65.467 86.0743 64.867 85.9743C64.267 85.8743 64.027 85.4843 63.807 84.9743C63.747 84.8443 63.607 84.7543 63.447 84.6043C62.647 84.8943 61.847 85.6043 61.077 84.9643C60.847 84.2043 60.817 83.4043 60.517 83.2843C59.677 82.9543 59.667 83.9143 59.347 84.2843C58.147 84.5643 58.547 83.3343 58.107 82.9543L56.017 83.0043C55.817 82.2943 55.837 81.5643 55.517 81.3543C54.747 80.8643 54.617 81.8743 54.237 82.1543C53.127 82.1543 53.237 81.0643 52.547 80.6343L50.547 80.9943C50.317 80.2143 51.057 79.4443 50.187 78.9943C49.717 79.2143 49.087 79.7243 48.827 79.5743C48.567 79.4243 48.337 78.6843 48.087 78.1343L46.467 78.3143C46.387 77.4443 47.317 76.3943 45.797 76.0643L44.797 77.3143C44.157 76.2143 45.687 75.8343 45.167 74.7643C44.8031 74.9787 44.4672 75.2373 44.167 75.5343C43.607 76.2243 43.167 76.0243 42.517 75.3743L43.727 73.2843C42.657 73.0043 42.347 74.0043 41.577 74.5043L40.257 73.3043C40.757 72.6443 41.187 72.0943 41.687 71.4543C40.497 70.9843 40.037 72.1143 39.227 72.3743C39.0809 72.3241 38.9495 72.2387 38.8443 72.1256C38.7392 72.0126 38.6635 71.8753 38.6239 71.7261C38.5844 71.5768 38.5822 71.4201 38.6176 71.2698C38.653 71.1195 38.7249 70.9802 38.827 70.8643C39.147 70.3443 39.587 69.8643 39.947 69.4043C40.1354 69.1204 40.3025 68.8229 40.447 68.5143C38.827 68.5143 38.447 69.8343 37.447 70.5143C36.827 70.3143 36.607 69.9243 37.037 69.2843C37.305 68.9649 37.5554 68.6311 37.787 68.2843C37.8812 67.9868 37.9284 67.6764 37.927 67.3643C37.605 67.3632 37.2858 67.4243 36.987 67.5443C36.62 67.8422 36.2849 68.1773 35.987 68.5443C35.177 67.7843 35.077 68.3143 37.147 65.0843C36.407 64.6443 36.407 64.6443 34.847 65.9843C33.267 64.5443 35.197 63.7343 35.517 62.5443C34.427 62.0043 34.177 63.2543 33.347 63.4543C32.647 62.0343 34.237 61.4543 34.497 60.3743C34.187 59.9043 33.757 59.9143 33.297 60.3243C33.037 60.5643 32.827 60.8643 32.557 61.1043C32.127 61.4843 31.817 61.2643 31.557 60.7243C31.807 60.3143 32.097 59.8443 32.397 59.3843C32.697 58.9243 32.947 58.6243 33.217 58.2343C32.087 57.5043 31.807 58.8743 31.047 58.8043C30.537 58.2443 30.977 57.8043 31.247 57.4343C31.6272 56.9504 31.9811 56.4463 32.307 55.9243C32.437 55.6843 32.307 55.3143 32.307 54.6843L30.277 56.2043C29.497 55.5243 29.947 54.9043 30.357 54.3043C30.767 53.7043 31.357 52.9243 31.867 52.1843C30.407 51.3443 30.347 53.1043 29.477 53.1143C28.677 51.6643 28.677 51.4943 29.607 50.4143C30.077 49.8643 30.607 49.4143 31.097 48.8543C31.397 48.5343 31.837 48.2043 31.277 47.6343C30.207 47.8543 29.587 48.8143 28.687 49.4043C28.5582 49.2743 28.4595 49.1177 28.3979 48.9454C28.3363 48.7731 28.3133 48.5894 28.3304 48.4072C28.3476 48.2251 28.4045 48.0489 28.4973 47.8911C28.59 47.7334 28.7162 47.5979 28.867 47.4943C29.727 46.6243 30.597 45.7443 31.437 44.8543C31.5977 44.5875 31.7253 44.302 31.817 44.0043C30.007 43.8243 29.637 45.7443 28.197 46.0043C28.0183 45.6897 27.9593 45.321 28.031 44.9664C28.1026 44.6117 28.3001 44.2949 28.587 44.0743C29.2973 43.3503 29.9651 42.5857 30.587 41.7843C30.7357 41.5045 30.8435 41.2048 30.907 40.8943C29.497 40.7443 29.007 41.8943 28.067 42.4843C27.637 41.6143 27.587 40.9543 28.427 40.3243C29.1117 39.7344 29.7565 39.0997 30.357 38.4243C29.997 37.5243 29.577 37.9243 29.147 38.2243C28.717 38.5243 28.307 38.7543 27.627 39.2243C28.017 37.3543 29.627 36.5443 30.227 35.0443C28.877 34.6443 28.697 36.1343 27.707 36.2543C27.5491 35.9131 27.532 35.5235 27.6593 35.1698C27.7865 34.8161 28.048 34.5267 28.387 34.3643C28.9388 33.9418 29.4479 33.4662 29.907 32.9443C28.797 31.5943 28.527 33.2043 27.857 33.3043C27.267 32.1143 28.547 31.7243 28.857 30.8843L27.907 30.6743C28.057 29.0343 30.357 28.9043 30.527 26.9443L28.407 28.2243C28.077 26.2243 30.167 25.6143 30.567 23.9743L29.247 24.0043C29.037 22.3443 30.797 22.0043 31.527 20.5343L30.247 20.3443C30.007 19.2943 30.587 18.5643 31.457 17.8843C30.457 16.5143 31.177 15.5243 32.037 14.7143C31.9434 14.1079 31.9434 13.4907 32.037 12.8843C32.627 10.8843 33.317 8.88428 34.037 6.88428C34.2945 6.12123 34.5949 5.37336 34.937 4.64428ZM31.377 3.64428C31.6817 3.26812 32.0161 2.917 32.377 2.59428L32.657 2.78428C32.367 3.33428 32.067 3.87428 31.807 4.44428C31.547 5.01428 31.397 5.60428 31.127 6.15428C28.927 10.4443 26.687 14.7143 24.507 19.0143C23.5223 21.0816 22.7581 23.2469 22.227 25.4743C22.227 25.6743 22.227 25.9343 22.097 26.0643C20.827 27.4443 21.377 29.3243 20.737 30.8943C20.1634 32.5707 19.6794 34.2765 19.287 36.0043L20.067 35.5643C20.067 35.6443 20.197 35.7643 20.177 35.8043C19.7494 36.4391 19.5551 37.2024 19.627 37.9643C19.627 37.9643 19.627 38.0843 19.627 38.1143C18.627 39.3343 19.127 40.8543 18.867 42.2143C17.7868 47.1535 17.7629 52.2653 18.797 57.2143C19.2457 59.3709 19.9159 61.4754 20.797 63.4943L20.937 63.4343L20.857 63.6343C21.127 64.1843 21.417 64.7343 21.737 65.2743C23.237 67.7243 24.887 70.0943 26.427 72.5243C27.6034 74.4046 29.064 76.0913 30.757 77.5243C31.242 78.0509 31.6961 78.6051 32.117 79.1843C34.2498 81.6174 36.7378 83.7144 39.497 85.4043C40.867 86.2043 42.137 87.1743 43.497 88.1343L43.057 89.2043C42.8702 89.2021 42.6847 89.1718 42.507 89.1143C39.897 87.9043 37.327 86.6443 35.507 84.2443C35.417 84.1243 35.347 83.9643 35.227 83.8943C32.407 82.4543 30.277 80.1943 28.147 77.8943C27.6919 77.2181 27.3129 76.4937 27.017 75.7343C26.017 75.8143 25.787 74.5743 25.087 73.8943C24.4778 73.2677 23.9472 72.5692 23.507 71.8143C22.277 69.7543 21.097 67.6543 19.967 65.7043L20.837 63.5543L20.777 63.4143L19.417 63.9243C19.3165 63.8247 19.2321 63.71 19.167 63.5843C18.1597 61.1114 17.4871 58.5152 17.167 55.8643C16.8403 53.011 16.567 50.1576 16.347 47.3043C16.3495 46.4482 16.4062 45.5932 16.517 44.7443C16.577 43.7443 16.517 42.7443 16.637 41.8143C16.937 39.0743 17.167 36.3143 17.637 33.6043C18.0407 31.9593 18.5518 30.3425 19.167 28.7643C19.637 27.2943 20.037 25.7643 20.557 24.3643C21.207 22.5343 22.067 20.7743 22.607 18.9143C23.3509 16.7875 24.3126 14.7433 25.477 12.8143C26.4236 10.8307 27.5838 8.95624 28.937 7.22428C29.877 6.13428 30.547 4.83428 31.377 3.66428V3.64428ZM28.307 3.64428L28.657 3.83428C27.5636 5.46761 26.5003 7.09428 25.467 8.71428C25.927 6.72428 26.557 4.85428 28.307 3.66428V3.64428ZM23.307 11.1243C23.0192 11.5281 22.644 11.8619 22.2095 12.1008C21.775 12.3397 21.2921 12.4777 20.797 12.5043C22.217 10.1343 22.797 7.50428 25.167 5.95428C24.6565 7.71776 24.0455 9.4506 23.337 11.1443L23.307 11.1243ZM18.477 10.2243C19.477 9.54428 20.407 8.91428 21.657 8.07428C21.5567 8.54871 21.4264 9.01632 21.267 9.47428C20.827 10.4743 20.267 11.3843 19.917 12.4043C19.7652 12.868 19.5176 13.2945 19.1902 13.6563C18.8629 14.0181 18.4632 14.307 18.017 14.5043L15.727 15.5643C16.407 13.9343 16.947 12.5643 17.567 11.2443C17.7935 10.8389 18.1163 10.4955 18.507 10.2443L18.477 10.2243ZM15.757 12.6543C15.3297 14.0485 14.8324 15.4202 14.267 16.7643C14.017 17.2743 13.267 17.5643 12.637 18.0543C12.7668 16.99 13.1132 15.9635 13.655 15.0382C14.1967 14.1129 14.9223 13.3084 15.787 12.6743L15.757 12.6543ZM12.287 16.0043C12.3291 17.2111 11.9149 18.3894 11.127 19.3043C9.48694 21.2543 7.74694 23.1143 6.21694 25.1543C6.08213 25.2854 5.92673 25.3935 5.75694 25.4743C7.39077 21.9759 9.59784 18.7751 12.287 16.0043ZM5.92694 28.2843C6.18694 27.7543 6.24694 27.1143 6.45694 26.5443C6.60922 26.2613 6.79745 25.9991 7.01694 25.7643L7.18694 25.9343C6.77694 28.6043 6.42694 31.2843 5.93694 33.9343C5.66507 34.746 5.2957 35.5216 4.83694 36.2443C4.64339 36.0311 4.50414 35.7743 4.43103 35.4957C4.35791 35.2172 4.35308 34.9251 4.41694 34.6443C4.56986 32.4561 5.07994 30.3077 5.92694 28.2843ZM2.25694 38.2343C2.62318 37.0032 2.7488 35.713 2.62694 34.4343C2.62739 32.6208 3.14421 30.8449 4.11694 29.3143C4.00694 30.3143 3.93694 31.0643 3.86694 31.7643C3.65694 33.6943 3.43694 35.6243 3.23694 37.5643C3.25126 37.8154 3.23447 38.0673 3.18694 38.3143C2.94694 38.9343 2.63694 39.5143 2.35694 40.1143L2.01694 40.0043C2.04943 39.4088 2.12969 38.8169 2.25694 38.2343ZM2.07694 40.6443C2.51694 40.7843 2.73694 40.7943 2.78694 40.8843C3.09951 43.1325 3.06917 45.4152 2.69694 47.6543C2.50694 45.3843 1.93694 43.1443 2.07694 40.6443ZM3.92694 50.3343C3.92694 47.3843 3.58694 44.4243 4.42694 41.4943C4.62694 40.8243 4.15694 40.0043 4.01694 39.0043L6.32694 35.8143C6.32694 36.4043 6.38694 36.6443 6.32694 36.8743C6.12027 40.0143 5.90027 43.1443 5.66694 46.2643C5.61257 46.6189 5.61257 46.9797 5.66694 47.3343C6.16694 48.9743 5.43694 50.3343 4.32694 51.7243C4.13429 51.2801 3.99984 50.8129 3.92694 50.3343ZM2.80694 50.4443H3.17694C3.36694 51.4443 4.31694 52.3743 3.17694 53.5043L2.80694 50.4443ZM6.01694 59.7743C5.73694 58.8443 5.46694 57.9043 5.23694 56.9543C4.83694 55.3143 4.47694 53.6543 5.67694 52.1543C5.80266 52.0067 5.94342 51.8727 6.09694 51.7543C6.21313 52.0374 6.31002 52.3281 6.38694 52.6243C6.90694 55.6243 7.13694 58.7343 8.10694 61.6843C8.25872 62.0581 8.28822 62.4704 8.19121 62.8621C8.0942 63.2537 7.87566 63.6045 7.56694 63.8643C6.51694 62.6043 6.37694 61.1443 6.01694 59.7743ZM13.197 75.0043L13.507 74.8143C13.3689 74.5095 13.2085 74.2154 13.027 73.9343C11.6965 72.2236 10.6313 70.3223 9.86694 68.2943C9.35614 66.9587 8.92866 65.5928 8.58694 64.2043C8.49694 63.8443 8.78694 63.3943 8.90694 63.0043C9.74694 63.0943 9.90694 63.6243 10.087 64.0743C10.897 65.9143 11.657 67.7743 12.497 69.5943C13.097 70.9043 13.787 72.1643 14.447 73.4443C14.6754 73.781 14.8476 74.1525 14.957 74.5443C14.957 74.8243 14.697 75.1343 14.407 75.7143C14.5977 76.2225 14.8714 76.6956 15.217 77.1143C17.687 79.5543 20.217 81.9243 22.717 84.3643C23.0444 84.7664 23.3168 85.2103 23.527 85.6843L23.157 85.9043C20.207 82.9943 17.267 80.0643 14.277 77.1843C11.6782 74.6862 9.6043 71.6944 8.17694 68.3843C7.98774 67.8061 7.96008 67.1871 8.09694 66.5943C9.53694 69.5443 10.687 72.6943 13.197 75.0043ZM6.01694 63.7143C6.69694 64.5743 8.01694 65.2243 7.01694 66.8643C6.65694 65.6843 6.35694 64.6943 6.01694 63.7143Z" fill="#111B24"/>
</g>
</svg>
