<svg width="333" height="370" viewBox="0 0 333 370" fill="none" xmlns="http://www.w3.org/2000/svg">
<path d="M111.246 83.3538C111.964 83.8475 112.735 84.2684 112.848 85.2757C111.562 85.4106 110.696 84.4602 109.851 83.8377C106.244 81.4037 102.861 78.6509 99.7694 75.6344C98.8629 74.7873 97.8322 74.0683 96.727 73.511C94.8305 72.371 93.109 70.9472 91.658 69.3162C90.8762 68.5282 89.9196 67.5626 90.679 66.4631C92.0504 67.8469 93.2948 69.1013 94.5546 70.3726C95.3227 71.0952 96.1771 71.7329 97.0905 72.2667C100.484 74.3104 103.045 77.2529 106.076 79.6457C107.769 80.9447 109.529 82.1325 111.246 83.3538ZM34.9802 70.8037C30.3814 67.6471 25.8638 64.3677 21.2777 61.1718C18.7207 59.4101 16.1108 57.7488 13.5825 55.9639C12.2897 55.0947 11.0235 54.1753 9.75759 53.2552C8.78333 54.0363 9.35036 54.7368 10.1493 55.3377C11.2775 56.1947 12.3913 57.0633 13.5741 57.8476C16.595 59.8725 19.6403 61.8202 22.6608 63.8457C26.9261 66.6922 31.1655 69.5882 35.4325 72.4624C36.8189 73.4011 38.2763 74.2827 39.6484 75.233C42.6764 77.3678 45.6923 79.5413 48.7484 81.6536C49.3867 82.0026 50.0563 82.2733 50.7358 82.4568L50.9594 82.0176C49.4686 80.7034 47.9199 79.4487 46.3207 78.2578C42.5688 75.7504 38.7199 73.3497 34.9802 70.8037ZM134.126 5.53294C135.203 6.98601 136.113 8.51426 136.84 10.0856C138.366 13.7284 139.228 17.4455 139.386 21.0659C139.557 24.0762 140.119 27.1484 140.335 30.1523C140.716 35.4196 141.113 40.7031 141.239 45.9434C141.39 50.4419 141.254 54.8814 141.163 59.3146C141.092 62.4897 140.809 65.604 140.754 68.7954C140.713 70.8501 141.174 73.0793 140.904 75.0568C140.607 77.5822 140.551 80.1765 140.737 82.8135C140.983 87.3303 142.139 91.9623 144.147 96.4799C145.12 98.5313 146.4 100.504 147.943 102.33C147.67 100.673 147.397 99.0431 147.014 97.3011C145.313 89.8336 144.608 82.4148 144.917 75.219C145.185 72.5442 145.267 69.8175 145.161 67.0543C144.945 62.9249 144.384 58.7544 144.017 54.6012C143.94 53.4707 143.975 52.3594 144.124 51.2827C144.622 47.3887 147.873 45.9387 151.174 44.5912C151.392 44.4849 151.647 44.4352 151.918 44.4459C152.189 44.4565 152.468 44.5273 152.734 44.6529C152.999 44.7784 153.243 44.955 153.444 45.1676C153.646 45.3803 153.799 45.6234 153.892 45.8765C155.019 47.9219 155.652 50.0765 155.74 52.1633C155.502 56.3966 155.506 60.6958 155.449 64.985C155.173 68.3987 154.625 71.7326 153.809 74.962C152.466 80.5926 151.848 86.492 151.963 92.5543C151.976 93.3103 152.165 94.0931 152.518 94.8526C153.161 93.3546 153.773 91.8245 154.495 90.3799C157.712 84.0161 161.765 78.1628 166.584 72.9215C167.805 71.5966 168.835 70.0788 169.975 68.6729C171.072 67.2683 172.627 66.2482 174.486 65.7153C176.346 65.1825 178.444 65.1548 180.572 65.6359C180.94 65.6474 181.321 65.7397 181.683 65.9043C182.046 66.0696 182.381 66.3029 182.663 66.5873C182.945 66.871 183.164 67.1971 183.305 67.5403C183.446 67.8836 183.504 68.2342 183.474 68.5646C183.375 69.724 183.172 70.8523 182.866 71.9393C182.588 73.1152 182.279 74.2867 181.878 75.4162C181.635 76.1469 181.285 76.8242 180.838 77.4344C178.022 81.1638 174.022 83.851 170.652 87.0722C168.582 89.0489 166.624 91.1381 164.632 93.1676C164.283 93.6006 163.88 93.9905 163.431 94.3334C161.493 95.7231 160.004 97.5573 159.059 99.7142C158.265 101.188 157.301 102.567 156.675 104.109C155.507 107.262 154.897 110.668 154.865 114.221C154.787 115.919 155.193 117.709 156.045 119.426C156.321 120.103 156.746 120.748 157.287 121.318C160.671 124.553 162.286 128.484 164.277 132.23C166.638 136.633 168.606 141.175 170.765 145.654C171.095 146.36 171.594 147.022 172.217 147.579C172.244 147.223 172.25 146.862 172.234 146.497C172.048 144.827 171.878 143.173 171.664 141.525C171.221 139.496 170.908 137.472 170.725 135.464C170.702 132.176 170.868 128.931 171.221 125.739C171.352 124.418 171.887 123.239 172.769 122.328C173.651 121.418 174.848 120.81 176.232 120.568C176.653 120.422 177.152 120.433 177.644 120.597C178.135 120.762 178.589 121.071 178.925 121.47C179.594 122.11 180.123 122.856 180.465 123.646C180.808 124.436 180.954 125.248 180.893 126.013C180.617 129.671 180.645 133.431 180.396 137.067C180.275 140.841 180.623 144.717 181.435 148.621C182.185 152.524 183.109 156.575 183.865 160.532C184.653 165.717 186.358 170.945 188.913 176.005C190.927 179.673 193.25 183.269 195.555 186.849C199.388 192.786 203.785 198.501 206.615 204.808C206.873 205.171 207.16 205.521 207.473 205.852C207.331 205.053 207.128 204.25 206.867 203.451C204.341 197.348 202.217 191.191 200.506 185.017C199.382 180.432 198.064 175.83 196.643 171.252C194.764 165.164 192.677 159.069 190.662 152.946C188.77 147.689 187.527 142.384 186.961 137.146C186.905 135.127 187.114 133.167 187.583 131.305C187.809 130.553 188.277 129.923 188.936 129.487C189.595 129.05 190.418 128.824 191.316 128.833C192.231 128.98 193.14 129.383 193.918 129.984C194.697 130.586 195.305 131.358 195.66 132.194C196.455 134.069 196.927 136.029 197.601 137.885C199.331 144.144 200.53 150.407 201.185 156.61C201.682 159.821 202.147 162.999 202.523 166.191C203.009 170.133 203.301 174.058 203.801 177.988C204.211 181.24 204.786 184.503 205.27 187.753C205.464 187.771 205.661 187.815 205.841 187.844C206.274 180.948 205.725 173.823 204.204 166.635C203.476 161.916 203.335 157.261 203.785 152.765C203.839 151.797 203.985 150.871 204.133 149.945C204.25 148.603 204.96 147.484 206.111 146.829C206.556 146.601 206.88 146.231 207.037 145.769C207.31 144.741 208.069 144.739 209.039 145.232C210.243 145.639 211.372 146.347 212.283 147.266C213.193 148.185 213.846 149.274 214.158 150.397C214.472 151.762 214.876 153.141 215.086 154.504C215.397 156.478 215.38 158.455 215.85 160.388C216.526 164.586 216.396 168.688 215.468 172.504C215.003 175.561 214.916 178.721 214.605 181.858C214.622 182.224 214.616 182.585 214.588 182.94C213.79 187.939 212.947 192.917 212.194 197.91C212.078 199.362 212.052 200.838 212.117 202.331C211.964 203.539 211.922 204.779 211.992 206.041C212.288 207.633 212.703 209.23 213.233 210.821C213.562 211.65 213.807 212.488 213.965 213.323C214.406 216.263 215.687 219.224 217.676 221.898C220.71 226.801 223.629 231.765 226.664 236.667C227.464 237.96 228.584 239.141 229.486 240.41C230.716 242.269 232.084 244.069 233.579 245.792C232.789 243.537 231.811 241.145 231.015 238.809C228.546 231.434 225.674 224.062 223.859 216.683C222.079 209.774 221.415 202.897 221.889 196.289C222.114 194.411 222.468 192.574 222.95 190.789C223.078 190.228 223.338 189.725 223.714 189.31C223.904 189.014 224.189 188.788 224.54 188.655C224.891 188.522 225.297 188.487 225.717 188.554C226.136 188.62 226.555 188.786 226.932 189.035C227.308 189.283 227.63 189.605 227.864 189.969C228.62 191.002 229.149 192.129 229.407 193.265C230.344 197.942 231.088 202.629 231.917 207.249C232.919 213.375 233.907 219.484 235.024 225.519C235.192 226.336 235.557 227.15 236.089 227.898C235.794 225.248 235.296 222.471 235.117 219.784C234.97 217.68 235.021 215.611 235.27 213.599C235.666 212.436 236.491 211.51 237.627 210.952C238.763 210.394 240.151 210.233 241.593 210.494C242.219 210.659 242.821 210.986 243.322 211.432C243.823 211.879 244.201 212.425 244.407 213.001C245.778 215.839 246.419 218.788 246.274 221.583C246.102 224.81 246.506 228.182 246.651 231.473C246.773 233.743 247.015 236.032 246.97 238.262C247.117 242.012 247.726 245.833 248.785 249.655C249.269 251.78 249.695 253.922 250.141 255.932C254.463 258.606 258.002 262.368 260.194 266.612C261.178 268.368 262.572 269.969 264.254 271.27C264.124 270.231 263.935 269.188 263.688 268.143C262.841 265.242 262.009 262.358 261.072 259.47C260.807 258.546 260.802 257.629 261.055 256.812C261.309 255.996 261.813 255.308 262.517 254.818C262.8 254.557 263.158 254.372 263.566 254.275C263.972 254.178 264.42 254.174 264.876 254.261C265.331 254.347 265.784 254.523 266.201 254.776C266.619 255.029 266.992 255.353 267.293 255.725C268.167 256.712 268.874 257.798 269.381 258.931C270.723 262.33 271.963 265.754 273.143 269.169C274.906 274.194 276.55 279.228 278.328 284.242C278.678 284.973 279.241 285.639 279.942 286.152C282.101 287.973 284.346 289.726 286.907 291.773C286.579 290.881 286.384 290.172 286.102 289.53C284.374 285.689 282.673 281.826 280.842 278.01C277.85 271.47 275.792 264.781 274.728 258.138C273.527 252.477 273.228 246.877 273.842 241.523C274.018 240.309 274.381 239.163 274.925 238.115C275.062 237.732 275.327 237.418 275.689 237.211C276.05 237.004 276.493 236.911 276.968 236.944C277.442 236.977 277.927 237.134 278.37 237.396C278.812 237.659 279.193 238.017 279.467 238.429C280.249 239.46 280.798 240.591 281.071 241.735C282.45 247.473 283.68 253.214 284.906 258.872C285.632 262.16 286.372 265.464 287.049 268.704C287.726 271.944 288.374 275.409 289.133 278.757C289.533 280.361 290.022 281.964 290.598 283.559C290.869 284.202 291.206 284.832 291.601 285.44L292.181 285.437C292.12 284.072 291.998 282.697 292.041 281.334C292.05 276.562 290.328 271.706 289.427 266.885C288.767 263.459 288.524 260.043 287.862 256.589C287.327 254.04 287.478 251.556 288.303 249.364C288.84 248.038 289.497 247.859 291.123 248.604C292.168 249.046 293.142 249.685 293.971 250.472C294.799 251.26 295.461 252.175 295.904 253.147C297.62 256.821 298.566 260.612 298.684 264.286C298.895 267.899 299.393 271.572 299.542 275.148C299.691 278.724 299.85 282.668 299.883 286.28C299.354 292.565 299.947 299.124 301.64 305.718C301.903 307.113 302.558 308.504 303.539 309.748C304.518 310.993 305.787 312.045 307.214 312.8C307.601 313.013 307.948 313.301 308.222 313.638C311.727 317.229 315.531 320.572 319.582 323.616C321.332 325.101 323.135 326.255 324.821 327.675C326.934 329.475 327.112 330.574 325.655 332.146C324.505 333.626 322.692 334.525 320.558 334.673C320.095 334.733 319.591 334.654 319.109 334.447C318.628 334.24 318.193 333.915 317.862 333.513C314.741 329.98 310.51 328.319 306.496 326.34C304.066 325.141 301.518 324.18 299.022 323.12L293.497 320.792C294.027 321.608 294.252 322.065 294.577 322.496C297.145 325.751 299.571 329.119 302.351 332.231C306.307 336.683 310.592 340.929 314.675 345.278C317.494 348.302 320.229 351.394 323.021 354.44C323.443 354.974 323.959 355.449 324.539 355.836C325.119 356.224 325.751 356.517 326.399 356.699C327.59 357.238 328.702 357.978 329.668 358.872L332.213 360.672C331.885 363.563 331.886 366.709 328.846 368.395C326.435 369.721 325.139 369.028 323.829 367.22C321.904 364.39 319.833 361.626 317.624 358.94C315.009 355.867 312.197 352.953 309.343 350.073C308.172 349.039 306.89 348.124 305.532 347.354C299.175 342.926 292.612 338.814 285.88 335.041C282.43 333.273 278.892 331.749 275.379 330.148C270.57 327.852 265.597 325.775 260.744 323.486C258.025 322.147 255.629 320.15 253.877 317.759C253.292 316.998 252.897 316.153 252.732 315.306C252.566 314.459 252.634 313.637 252.929 312.917C253.186 312.246 253.708 311.731 254.41 311.456C255.113 311.181 255.955 311.162 256.8 311.403C260.197 311.871 263.617 312.972 266.847 314.638C271.792 317.402 276.645 320.355 281.484 323.116C286.324 325.878 290.883 328.662 295.712 331.923C294.923 329.873 293.701 327.9 292.128 326.135C289.775 323.429 287.41 320.735 285.085 318.007C284.177 317.089 283.521 316.172 282.114 316.491C281.481 316.519 280.807 316.351 280.193 316.01C274.484 313.562 268.646 311.631 262.777 310.25C259.213 309.355 255.699 307.95 252.37 306.09C251.327 305.439 250.374 304.651 249.552 303.758C248.618 302.823 247.756 301.834 246.974 300.799C246.442 300.12 246.016 299.388 245.714 298.634C245.465 298.168 245.335 297.679 245.336 297.21C245.337 296.741 245.47 296.308 245.721 295.951C245.974 295.594 246.336 295.324 246.777 295.166C247.218 295.009 247.721 294.968 248.242 295.048C249.493 295.134 250.765 295.377 252.024 295.77C256.775 297.189 261.527 298.635 266.284 300.162C267.291 300.604 268.311 301.002 269.339 301.352C265.653 296.943 260.76 294.716 255.734 292.738C255.505 293.095 255.36 293.385 255.293 293.496C250.874 292.36 246.601 291.167 242.312 290.216C239.909 289.76 237.513 289.462 235.142 289.322C228.352 288.759 221.591 288.432 214.774 287.689C211.423 287.556 207.977 286.806 204.631 285.483C204.401 285.379 204.104 285.386 203.886 285.243C201.629 283.732 199.303 282.306 197.17 280.665C195.038 279.025 195.166 277.825 196.776 276.535C199.112 275.004 201.963 274.125 205.083 273.976C206.684 273.765 208.348 273.728 210.045 273.868C212.401 274.174 214.799 274.907 217.164 275.35C221.443 276.164 225.718 276.925 230.093 277.402C229.652 277.068 229.189 276.763 228.709 276.491C221.691 273.194 214.665 269.991 207.672 266.617C202.959 264.418 198.416 261.88 193.758 259.609C191.945 258.646 190.402 257.206 189.38 255.524C189.101 255.158 188.9 254.757 188.793 254.349C188.687 253.942 188.676 253.539 188.762 253.169C188.849 252.799 189.029 252.471 189.292 252.209C189.555 251.947 189.893 251.757 190.282 251.654C191.256 251.3 192.388 251.244 193.544 251.493C202.196 253.988 210.787 257.01 219.255 260.536C222.289 261.858 225.168 263.766 228.191 265.154C235.619 268.583 242.033 273.751 248.858 278.182C250.159 279.176 251.518 280.095 252.923 280.93C252.644 280.519 252.392 280.086 252.067 279.682C248.614 275.405 245.118 271.162 241.751 266.845C239.768 264.226 237.298 261.898 234.497 260.012C227.448 255.552 219.936 251.982 212.223 249.427C206.908 247.567 201.671 245.325 196.391 243.321C193.368 242.164 190.327 241.165 187.308 240.063C184.29 238.96 181.458 237.765 178.519 236.742C174.255 235.253 169.96 233.988 165.801 232.501C162.858 231.424 159.987 230.086 157.06 228.795C155.802 228.216 154.58 227.52 154.591 225.895C154.519 225.13 154.708 224.421 155.132 223.863C155.556 223.307 156.194 222.93 156.957 222.785C157.49 222.699 158.048 222.679 158.619 222.723C161.951 222.809 165.358 223.3 168.757 224.184C172.56 225.234 176.38 225.867 180.16 226.996C183.939 228.125 187.852 229.491 191.699 230.97C195.886 232.637 200.153 234.386 204.304 236.17C206.085 236.972 207.914 237.608 209.755 238.065C208.367 237.099 206.966 236.172 205.592 235.195C200.753 231.767 195.7 228.661 190.485 225.909C186.647 223.85 182.647 222.203 178.585 221.011C173.895 219.602 169.232 217.94 164.605 216.135C161.232 215.079 157.953 213.503 154.924 211.48C153.071 210.115 151.359 208.577 149.829 206.901C149.287 206.312 148.896 205.632 148.695 204.934C148.494 204.236 148.491 203.543 148.686 202.928C148.881 202.313 149.268 201.796 149.806 201.434C150.344 201.07 151.014 200.872 151.747 200.86C152.788 200.836 153.861 200.947 154.937 201.19C157.092 201.6 159.235 202.075 161.381 202.579C163.7 203.071 166 203.951 168.159 205.173C171.581 207.194 175.136 208.992 178.717 210.713C184.638 213.821 190.376 217.335 195.869 221.218C198.516 222.994 200.946 225.088 203.555 226.953C204.773 227.824 206.166 228.411 207.441 229.237C210.334 231.133 213.186 233.092 216.068 235.026C216.277 235.139 216.492 235.237 216.712 235.319C216.81 235.239 216.801 235.102 216.769 235.07C212.862 231.128 210.182 226.404 205.874 222.697C204.103 220.976 202.471 219.143 201.002 217.219C199.795 215.847 198.586 214.449 197.308 213.134C193.975 209.771 190.626 206.393 187.294 203.029C183.96 199.667 179.987 196.067 176.418 192.517C174.003 189.854 171.319 187.394 168.417 185.186C167.764 184.726 167.085 184.305 166.385 183.928C164.004 182.594 161.579 181.358 159.117 180.225C154.217 178.119 149.244 176.042 144.162 174.341C139.24 172.687 134.255 171.564 129.318 170.996C124.648 170.518 120.019 170.314 115.458 170.383C111.128 170.36 106.642 169.797 102.203 169.459C100.05 169.307 97.966 169.275 95.8405 169.073C93.2348 168.822 92.7211 168.483 91.55 166.073C90.9727 165.176 90.5861 164.217 90.4177 163.262C90.2487 162.307 90.3011 161.377 90.5698 160.535C90.9025 159.52 91.6663 158.745 92.716 158.353C96.5926 156.83 101.194 156.616 105.869 157.742C109.761 158.779 113.604 159.973 117.488 161.335C121.371 162.697 125.618 163.48 129.58 164.461C132.291 165.176 134.959 165.925 137.641 166.662L141.126 167.622C139.565 166.39 137.783 165.47 135.934 164.94C133.172 163.892 130.354 163.119 127.569 162.176C122.988 160.621 118.388 158.996 113.807 157.442C109.636 156.021 105.466 154.6 101.289 153.3C99.8936 152.897 98.4887 152.698 97.1288 152.708C95.3293 152.707 93.6847 152.582 92.358 150.757C91.7323 149.821 91.4282 148.786 91.4931 147.822C91.5589 146.858 91.9898 146.02 92.7176 145.445C93.3331 144.871 94.0653 144.411 94.8875 144.08C97.3482 143.098 100.132 142.662 103.061 142.799C105.991 142.937 109 143.646 111.898 144.882C114.199 145.925 116.466 146.677 118.691 147.695C120.928 148.708 123.124 149.84 125.267 151.085C131.177 154.49 136.965 158.08 142.821 161.585C143.499 162.014 144.226 162.35 144.97 162.577C141.523 159.739 138.02 156.945 134.641 154.023C131.691 151.48 128.893 148.785 125.968 146.193C122.078 142.727 118.257 139.179 114.186 135.916C111.043 133.233 107.213 131.46 103.365 130.904C99.9147 130.465 96.3798 129.429 92.9939 129.285C85.2616 129.042 77.7842 129.808 70.7737 131.563C67.9045 132.246 65.1127 133.213 62.4097 134.167C62.2967 134.258 62.0679 134.181 61.9549 134.272C59.1313 136.535 55.1311 136.104 51.3294 135.975C48.9824 135.973 46.5521 135.551 44.1658 134.73C42.6492 134.172 41.2173 133.307 39.9917 132.209C38.7665 131.11 37.7833 129.811 37.1259 128.42C37.0111 128.262 36.9278 128.091 36.8798 127.918C36.8323 127.744 36.8215 127.571 36.848 127.41C36.875 127.249 36.9386 127.102 37.0353 126.978C37.1324 126.854 37.2603 126.756 37.4123 126.689C37.9832 126.28 38.6933 126.038 39.4776 125.986C41.4273 126.126 43.3306 126.036 45.1418 125.719C51.599 125.031 57.871 123.864 63.904 122.228C69.7878 120.575 76.1378 119.858 82.7279 120.103C83.2972 120.121 83.8041 119.941 84.1517 119.597C83.6188 119.369 83.073 119.196 82.5255 119.081C77.6199 118.683 72.7427 118.261 67.7863 117.99C64.2996 117.898 60.7677 118.246 57.2172 118.089C53.5514 117.903 49.8501 117.514 46.1324 116.927C41.8355 116.316 37.5129 115.009 33.3656 113.07C29.7299 111.468 26.4303 109.026 23.8522 106.028C22.831 104.768 21.9689 103.438 22.7318 102.162C23.0634 101.594 23.5903 101.166 24.2515 100.928C24.9127 100.689 25.6801 100.65 26.4645 100.816L42.7845 103.528L61.3417 106.554C63.1618 106.856 64.9676 107.17 66.7697 107.429L80.0402 109.236C79.3162 108.766 78.5719 108.331 77.8105 107.933C71.5012 104.725 64.9481 102.213 58.3177 100.46C49.7147 98.3767 41.1256 96.0509 32.5387 93.7522C27.829 92.5036 23.128 90.9303 18.4704 89.784C15.4031 89.1314 12.3587 88.0059 9.47223 86.4581C6.33308 84.747 3.59831 82.3248 1.59978 79.4868C1.05787 78.7303 0.70399 77.9022 0.571539 77.0782C0.439087 76.2541 0.532445 75.4606 0.842363 74.7717C1.15236 74.0828 1.66891 73.521 2.34515 73.1368C3.02086 72.7532 3.83377 72.5609 4.70927 72.5764C10.0184 72.527 15.546 73.5476 20.9288 75.5709C25.4697 77.4168 29.8542 78.9263 34.0768 80.6808C39.1434 82.8273 44.126 85.2721 49.1593 87.5896L56.6118 90.942L56.8497 90.4913C56.2888 90.0649 55.7107 89.661 55.1178 89.281C51.3344 86.9723 47.5508 84.6636 43.727 82.416C35.8614 77.7778 27.9307 73.2786 20.1038 68.5517C15.6405 65.864 11.2407 63.0097 6.9645 59.9986C4.78161 58.3301 3.20961 56.0716 2.58477 53.707C1.95993 51.3425 2.33229 49.059 3.6217 47.3463C4.40324 46.6657 5.40975 46.2253 6.54829 46.0648C7.68737 45.9036 8.92096 46.0286 10.1349 46.4275C11.0178 46.7956 11.8729 47.2542 12.6807 47.7936C17.864 51.4127 22.8959 55.2437 27.7553 59.271C31.943 62.9593 36.3371 66.3956 40.7454 69.8203C45.1533 73.2457 50.216 76.6655 54.6553 80.5565C59.5831 84.8643 65.223 88.0239 70.3098 92.0308C71.9459 93.2054 73.6381 94.2984 75.3771 95.3027C75.5064 95.2116 75.6287 95.1137 75.7444 95.0082C75.0744 94.3328 74.3889 93.6406 73.6339 93.0332L60.7844 81.909C56.0316 77.7787 51.2224 73.6934 46.5544 69.4949C41.4028 65.1206 36.79 60.2255 32.8522 54.9542C31.9385 53.6889 31.3813 52.2885 31.2454 50.9153C31.109 49.5427 31.3991 48.2539 32.0821 47.1981C32.5518 46.3943 33.3961 45.8707 34.4352 45.7387C35.4738 45.6073 36.6247 45.8785 37.6431 46.4938C39.5368 47.8321 41.3657 49.2585 43.1191 50.7665C44.5025 51.8808 45.7198 53.1861 47.1701 54.1892C52.3213 57.827 56.2271 62.6361 60.9443 66.6797C65.6615 70.7231 70.0023 75.8193 74.5155 80.3727C77.6482 83.4878 80.5496 86.7826 83.1896 90.2241C85.3828 92.9992 87.3627 95.9164 89.3842 98.7999C91.9805 102.493 94.24 106.255 97.0035 109.785C99.4715 113.134 102.203 116.344 105.17 119.38C107.162 121.69 109.571 123.694 112.241 125.261C112.984 125.745 113.658 126.33 114.23 126.987C115 127.827 115.895 128.565 116.875 129.17C116.16 128.039 115.459 126.897 114.702 125.801C111.405 120.966 108.182 116.129 104.741 111.38C100.327 104.743 95.519 98.2796 90.3452 92.0237C87.724 89.0725 84.7479 86.3762 81.9571 83.5604C80.9047 82.4983 79.9229 81.3796 78.8524 80.2744C78.3918 79.8497 78.0712 79.3218 77.9455 78.7803C77.8199 78.2388 77.8971 77.7166 78.1633 77.3043C78.416 76.8414 78.8168 76.4792 79.3244 76.2546C79.8317 76.0308 80.4283 75.9521 81.0534 76.0268C81.2934 76.0349 81.5411 76.0925 81.7786 76.1961C85.1579 78.0205 88.9209 79.133 91.6381 82.1809C93.1484 83.8583 94.7318 85.3031 96.1659 86.9545C97.1917 88.1472 97.9968 89.4631 98.536 90.8283C99.4578 92.6038 100.58 94.3197 101.882 95.9425L113.112 112.003C115.071 114.822 117.187 117.572 118.973 120.472C121.038 123.783 122.755 127.228 124.732 130.552C126.024 132.75 127.517 134.845 128.91 136.991C129.472 137.839 129.948 138.729 130.552 139.544C132.209 141.853 133.951 144.124 135.607 146.434C138.849 150.53 142.43 154.425 146.305 158.071C145.358 156.204 144.142 154.416 142.694 152.765C141.41 150.907 139.984 149.162 138.715 147.293C136.494 144.03 134.321 140.747 132.197 137.445C131.22 135.947 130.373 134.403 129.482 132.865C126.945 128.489 124.45 124.107 121.87 119.766C119.462 115.632 117.539 111.357 116.143 107.033C115.174 104.113 116.934 103.511 118.997 102.55C120.614 101.804 122.348 102.607 124.085 104.564C126.346 107.236 128.241 110.112 129.712 113.105L136.691 126.307C137.137 126.239 137.567 126.135 137.978 125.996C138.389 125.722 138.922 125.609 139.493 125.675C140.065 125.741 140.64 125.982 141.127 126.36C143.743 128.183 146.272 130.128 148.699 132.186C153.801 136.871 158.321 142.051 162.131 147.579C164.269 150.389 166.542 153.125 168.941 155.778C169.096 155.653 169.155 155.432 169.122 155.373C164.411 148.984 159.71 142.706 155.02 136.185C153.386 133.687 151.89 131.137 150.539 128.545C150.07 127.739 149.687 126.919 149.275 126.094C148.806 125.335 148.52 124.523 148.44 123.728C148.361 122.931 148.493 122.175 148.822 121.52C149.029 121.162 149.101 120.728 149.029 120.273C148.956 119.819 148.741 119.362 148.413 118.96C146.459 116.097 143.968 113.504 141.093 111.345C136.28 107.435 131.148 103.868 126.16 100.216C123.565 98.3391 120.878 96.6242 118.241 94.7825C115.007 92.466 111.718 90.1952 108.664 87.6763C103.76 83.7255 98.91 79.7018 94.1431 75.5822C90.5561 72.4227 87.1645 69.0781 83.7734 65.7328C82.5813 64.4501 81.5043 63.0891 80.5573 61.6699C80.2498 61.265 80.0376 60.819 79.9388 60.3689C79.8395 59.9194 79.856 59.4795 79.9873 59.0856C80.1187 58.6917 80.3603 58.3564 80.6923 58.107C81.0242 57.8576 81.4372 57.7012 81.8956 57.6522C82.8279 57.4455 83.8559 57.469 84.8911 57.7207C85.9261 57.9724 86.9375 58.4446 87.8378 59.0967C90.3418 60.9584 92.8742 62.7976 95.1629 64.7744C100.989 69.8344 106.928 74.8047 112.432 80.1518C117.935 85.4995 123.533 90.0496 129.056 95.0074C130.199 96.0016 131.478 96.8415 132.836 97.4914C131.279 95.3105 129.441 93.2752 127.375 91.4457C122.91 86.9399 118.355 82.4975 113.709 78.1173C111.358 75.873 108.851 73.7533 106.442 71.5271C104.331 69.5512 102.206 67.5598 100.207 65.4663C97.6622 62.8955 95.2401 60.2298 92.9511 57.481C90.3059 54.173 87.9469 50.6936 85.4005 47.3063C84.4697 45.9622 83.9362 44.4813 83.8672 43.0494C83.629 40.815 84.8953 40.1753 87.3841 40.6923C88.7528 40.973 90.107 41.5251 91.3481 42.3085C92.5891 43.0919 93.6858 44.0867 94.5582 45.2205L103.95 56.4602C107.283 60.4874 110.688 64.4853 113.941 68.6624C117.432 73.0867 121.209 77.3427 125.247 81.3991C130.462 86.6608 135.974 91.6846 140.322 97.5544C140.948 98.4686 141.76 99.2871 142.698 99.9517C141.916 98.2883 141.001 96.656 139.963 95.0704C137.975 92.5581 136.307 89.8857 135 87.1232C131.926 80.2896 126.899 74.2715 121.916 68.2469C117.256 62.5988 112.51 57.0187 107.965 51.3073C104.344 46.7599 100.779 42.1398 97.5329 37.4077C94.409 33.1534 91.9058 28.6283 90.1079 23.9853C89.388 21.9637 88.717 19.9317 88.095 17.8895C87.9545 17.3472 87.9186 16.8086 87.9889 16.2998C88.1211 14.4902 89.0677 13.9625 91.0636 14.6725C92.258 15.0533 93.4077 15.656 94.4333 16.4392C95.4588 17.2223 96.3358 18.1671 97.0036 19.2083C99.187 22.6554 101.323 26.1311 103.411 29.6353C106.442 34.7129 109.227 39.9007 112.461 44.9022C114.851 48.617 117.838 52.1421 120.547 55.7449L121.146 55.5823C120.721 54.4479 120.223 53.3229 119.657 52.2139C116.231 46.4049 113.432 40.4092 111.31 34.3329C108.926 27.5817 105.611 20.9132 104.201 14.0453C103.702 11.835 103.411 9.63357 103.331 7.46642C103.379 5.97299 103.876 4.6144 104.769 3.53249C105.663 2.4507 106.92 1.68535 108.409 1.31639C108.795 1.09326 109.262 0.983678 109.765 0.998528C110.268 1.01332 110.789 1.15202 111.277 1.40079C111.764 1.64963 112.201 1.99978 112.544 2.41657C112.886 2.83331 113.123 3.30205 113.229 3.77615C114.478 7.1065 115.533 10.447 116.768 13.7886C118.002 17.1303 119.278 19.9768 120.377 23.0801C122.533 29.0901 124.571 35.1084 126.697 41.1138C127.872 44.473 129.221 47.7516 130.385 51.1497C131.255 53.7151 131.891 56.3245 132.554 58.9112C132.996 60.6356 133.39 62.3116 133.794 64.3553C134.824 62.5407 135.073 60.3103 134.502 58.0135C133.971 52.0579 133.468 46.0797 132.877 40.1147C132.682 38.0771 132.186 35.9913 132.02 33.9581C131.545 27.0962 130.556 20.162 129.06 13.2036C128.65 10.7637 128.539 8.35328 128.73 6.01894C128.722 5.01429 128.955 3.81731 130.291 3.78535C130.96 3.71731 131.685 3.84782 132.369 4.15977C133.054 4.47165 133.666 4.95026 134.126 5.53294ZM245.264 278.494C245.193 278.55 245.108 278.618 245.118 278.755L246.467 279.58C246.467 279.58 246.595 279.478 246.665 279.421L245.264 278.494ZM231.023 274.838C235.319 276.793 239.654 278.688 243.962 280.606C244.653 280.919 245.355 281.193 246.043 281.479C246.003 281.269 245.915 281.06 245.784 280.866C245.653 280.671 245.482 280.497 245.284 280.354C242.749 278.691 240.213 277.028 237.639 275.454C235.316 273.986 232.942 272.614 230.522 271.341C226.443 269.27 222.299 267.365 218.196 265.398C212.927 262.894 207.814 260.035 202.195 258.765C201.444 258.466 200.721 258.073 200.049 257.596C201.137 257.241 202.399 257.238 203.664 257.587C208.328 259.131 212.92 261.068 217.377 263.37C220.892 264.999 224.321 266.899 227.713 268.685C230.145 269.911 232.617 271.077 235.047 272.276C235.174 272.405 235.45 272.3 235.657 272.278L237.933 274.293L241.537 276.139L241.729 276.333L241.872 276.478L243.608 277.974C243.68 277.836 243.76 277.703 243.85 277.578L241.936 276.543L241.761 276.365L241.601 276.204C240.675 275.474 239.78 274.776 238.812 274.08C238.7 273.968 238.273 274.252 237.997 274.357C237.837 273.071 236.841 272.629 235.721 272.342C235.358 271.886 234.939 271.464 234.477 271.087C232.2 269.736 229.91 268.396 227.594 267.134C224.093 265.262 220.577 263.403 217.051 261.61C210.058 258.307 202.869 255.639 195.607 253.651C194.6 253.388 193.592 253.227 192.6 253.174C191.79 253.072 190.725 252.944 190.774 253.888C190.816 254.211 190.934 254.54 191.121 254.849C191.31 255.157 191.562 255.439 191.859 255.674C195.721 258.651 199.958 261.111 204.393 262.951C206.165 263.638 207.951 264.315 209.712 265.096C214.68 267.313 219.634 269.559 224.575 271.835C226.789 272.688 228.906 273.878 231.023 274.838ZM254.971 287.98C250.786 286.165 246.477 284.865 242.174 284.119C240.276 283.863 238.37 283.511 236.465 283.064C230.77 281.792 225.083 281.048 219.494 280.846C217.819 280.715 216.168 280.941 214.47 280.888C211.926 280.878 209.498 280.629 207.004 280.463L206.768 279.612C210.222 278.981 214.089 279.866 217.596 279.595C221.287 279.522 225.057 279.766 228.86 280.324C232.549 280.775 236.308 281.601 240.026 282.259C239.976 282.13 239.895 282.007 239.789 281.901C239.684 281.795 239.557 281.708 239.42 281.648C233.859 280.331 228.382 278.947 222.792 277.653C217.756 276.637 212.735 275.841 207.758 275.268C204.551 275.064 201.533 275.626 198.987 276.899C198.483 277.246 198.04 277.658 197.67 278.128C198.184 278.823 198.811 279.455 199.52 279.995C202.649 281.847 205.892 283.866 209.309 284.043C212.728 284.219 216.831 283.962 220.6 283.827C223.286 283.725 225.948 283.497 228.652 283.437C233.191 283.514 237.856 284.254 242.482 285.632C243.103 285.798 243.977 285.964 244.273 285.699C245.175 284.975 246.195 285.313 247.244 285.655C248.872 286.199 250.491 286.836 252.213 287.448C253.117 287.873 254.079 288.059 254.971 287.98ZM256.544 286.372L249.925 281.688L249.641 282.118C251.842 283.673 253.58 285.861 256.544 286.372ZM269.045 304.099C268.297 303.765 267.561 303.39 266.843 302.976C261.44 300.242 255.768 298.328 250.09 297.321C249.039 297.205 248.001 297.176 246.989 297.236C249.31 300.804 251.495 303.673 255.249 304.879C260.388 306.535 265.653 308.089 270.748 309.548L278.234 311.835C277.215 310.146 275.88 308.588 274.307 307.25C272.734 305.914 270.954 304.825 269.072 304.049L269.045 304.099ZM301.191 340.468L297.455 337.976C294.11 335.778 290.82 333.506 287.439 331.424C284.708 329.744 281.848 328.34 279.119 326.687C278.397 326.387 277.723 325.946 277.152 325.401C276.582 324.856 276.128 324.221 275.831 323.548L285.427 328.705C285.258 328.22 284.911 327.768 284.45 327.439C280.188 324.718 275.819 322.186 271.361 319.856C267.613 317.651 263.586 316.084 259.525 315.252C257.971 314.848 256.427 314.317 254.913 313.666C254.247 313.94 254.243 314.78 254.711 315.763C255.057 316.555 255.6 317.297 256.29 317.921C256.978 318.545 257.792 319.03 258.652 319.33C261.43 320.395 264.17 321.548 266.962 322.602C273.852 325.33 280.585 328.638 287.062 332.477C291.24 334.902 295.459 337.728 299.679 340.322C299.868 340.488 300.292 340.379 301.217 340.417L301.191 340.468ZM297.615 336.144L296.334 335.236C296.236 335.315 296.137 335.394 296.052 335.463L297.332 336.371C297.425 336.269 297.528 336.177 297.641 336.094L297.615 336.144ZM210.74 188.363L210.391 188.267L210.221 189.502L210.765 189.642L210.74 188.363ZM202.411 186.378C202.345 184.948 202.164 183.502 201.87 182.048C201.328 177.717 200.923 173.423 200.411 169.098C200.188 167.313 199.785 165.5 199.442 163.696C199.373 162.451 199.349 161.2 199.221 159.946C198.7 154.588 197.095 149.032 197.05 143.669C197.019 143.447 196.96 143.224 196.872 143.003C196.223 140.635 195.444 138.112 194.688 135.687C194.173 134.069 193.027 132.555 191.491 131.464C191.233 131.63 190.997 131.819 190.785 132.031C189.289 133.79 188.735 136.186 189.238 138.728C189.852 141.903 190.115 144.954 190.887 148.061C191.493 150.462 192.522 152.727 193.259 155.08C194.609 159.254 195.899 163.437 197.13 167.628C198.386 171.963 199.553 176.31 200.795 180.657C201.262 182.534 201.848 184.403 202.405 186.295L202.411 186.378ZM209.363 196.484C209.667 194.809 209.614 193.021 209.204 191.211C208.792 189.959 208.739 188.704 209.051 187.58C209.218 186.969 209.315 186.331 209.341 185.674C209.381 182.263 209.525 178.856 209.327 175.435C209.016 168.984 208.525 162.506 208.217 156.112C208.231 155.404 208.295 154.707 208.406 154.027C208.834 154.204 209.121 154.262 209.124 154.317C210.321 164.455 210.826 174.503 210.639 184.402L211.318 184.551L211.864 172.881C211.885 172.518 211.778 172.026 211.972 171.813C213.655 170.06 213.297 167.603 213.212 165.217C213.183 163.653 213.107 162.068 213.106 160.508C213.227 157.938 212.91 155.272 212.163 152.602C211.837 151.547 211.309 150.511 210.606 149.548C209.474 147.972 208.643 147.773 207.383 148.726C206.877 149.107 206.522 149.63 206.353 150.243C206.067 151.394 205.882 152.584 205.802 153.804C205.356 157.925 205.385 162.177 205.89 166.495C206.826 171.838 207.314 177.143 207.349 182.361C207.334 185.26 207.198 188.113 207.182 191.013C207.212 192.869 207.986 194.813 209.363 196.484ZM210.414 208.692C210.528 208.601 210.77 208.667 210.932 208.652L209.657 205.805L209.244 205.876L210.414 208.692ZM139.929 106.387L140.254 106.127L137.01 103.212C135.588 101.769 134.059 100.416 132.441 99.1648C126.17 95.0103 120.926 89.7715 115.266 84.9542C109.604 80.1375 104.632 75.1719 99.1976 70.4043C95.6101 67.2455 91.8555 64.2492 88.0778 61.3585C87.1151 60.4879 85.9277 59.8858 84.7138 59.6509C83.4994 59.4167 82.3314 59.5635 81.4022 60.0688C82.798 61.9222 84.2887 63.7252 85.868 65.4685C89.137 68.7675 92.4383 72.098 95.9757 75.1815C99.9776 78.7593 104.136 82.2389 108.349 85.6194C111.727 88.3387 115.273 90.8676 118.691 93.4982C119.583 94.031 120.494 94.5239 121.422 94.9758C119.716 92.1283 116.397 90.5446 115.211 87.4815C119.36 90.5943 123.105 94.1169 127.223 97.1977C131.341 100.278 135.652 103.376 139.888 106.449L139.929 106.387ZM83.5917 100.037C84.776 101.079 85.7916 102.257 86.8924 103.367C88.3597 104.847 89.8107 106.311 91.7619 108.127C91.3061 106.21 91.0524 104.855 89.4978 103.848C88.6423 103.27 87.8439 102.61 87.1212 101.885C85.8768 100.63 84.8306 99.2165 83.5882 97.9889C78.3737 92.7274 73.9089 86.8936 67.877 82.3159L67.6377 82.0746L60.4053 75.11C59.1774 73.8709 57.9176 72.5997 56.6897 71.3607C53.1943 68.2437 49.6287 65.1826 46.1337 62.0649C44.8962 60.9321 43.7193 59.7445 42.6091 58.5094C41.971 57.866 41.4388 57.0221 41.9978 56.2563C46.193 60.054 50.3362 63.7493 54.4395 67.5052C56.7052 69.587 58.8882 71.764 61.1258 73.8684C63.0766 75.6825 64.9846 77.5315 67.004 79.2621C71.1277 83.0135 75.0377 86.9589 78.7097 91.0722C81.4047 93.7914 83.8298 96.6985 86.3976 99.5191C85.6251 97.1747 84.3426 94.8953 82.6349 92.8343C79.7324 89.9059 76.8686 86.8888 74.2225 83.7836C70.7946 79.6136 67.0621 75.6336 63.0612 71.8837C61.1171 70.199 59.2693 68.4197 57.5298 66.5583C52.1416 60.483 45.663 55.4549 39.6185 50.0213C38.5038 49.1492 37.2437 48.4815 35.933 48.0669C35.6455 47.945 35.3471 47.8753 35.0567 47.8624C34.7662 47.8493 34.4905 47.8928 34.2465 47.9908C34.0028 48.0881 33.7962 48.2378 33.6402 48.4299C33.4841 48.6219 33.3817 48.8525 33.34 49.106C33.1322 49.6672 33.0632 50.2892 33.1369 50.9348C33.2106 51.5803 33.4255 52.2363 33.7688 52.8625C34.8382 55.1155 36.3683 57.2435 38.261 59.1072C43.0312 63.9662 48.0551 68.6172 53.3055 73.0343C57.3477 76.3193 61.0882 79.9907 64.9781 83.4558C71.1041 88.9975 77.391 94.4969 83.5917 100.037ZM93.2089 111.096L94.2607 112.591C94.626 113.061 94.9566 113.549 95.2502 114.05C95.7134 114.895 96.4019 115.655 97.2358 116.243C98.0697 116.831 99.0153 117.224 99.9643 117.374L93.2089 111.096ZM89.0126 110.85C90.0822 111.494 91.0574 112.3 92.0883 113.033L92.5123 112.694C91.148 110.565 89.5865 108.518 87.8507 106.584C85.156 104.031 82.2698 101.658 79.2266 99.4932C74.7089 96.2137 70.0577 93.1568 65.4573 89.9726C62.4788 87.9136 59.5109 85.7885 56.5589 83.6794C53.6068 81.5703 51.0764 79.7585 48.3826 77.7311C44.1381 74.5213 39.8522 71.3738 35.7609 68.0122C30.6154 63.7923 25.8052 59.2459 20.3421 55.3964C17.3619 53.3098 14.3961 51.2117 11.3752 49.1868C9.03993 47.6227 5.35223 47.8645 4.69293 49.5769C3.71693 52.1207 4.95009 56.5605 7.6839 58.2959C12.8394 61.5549 17.863 65.064 23.0489 68.3276C27.0855 70.8667 31.2013 73.0243 35.2023 75.4766C42.3813 79.8566 49.4721 84.2494 56.6603 88.7664C58.9104 90.1678 61.0163 91.858 63.2912 93.1816C65.1626 94.251 66.8229 95.952 69.278 96.4094C65.6322 93.2685 61.1622 91.3654 58.5092 87.7175C59.3874 87.8654 60.2622 88.2191 61.0466 88.744C62.7307 89.906 64.3055 91.2134 65.9875 92.3484C68.4168 93.9814 70.9272 95.4916 73.3003 97.1696C73.9864 97.7209 74.6041 98.344 75.1339 99.0204C75.8154 99.9915 76.6275 100.897 77.5448 101.707C80.6661 103.681 83.8526 105.516 87.2953 107.404C87.0341 109.058 86.845 109.122 85.4963 108.298C82.8597 106.687 80.2073 105.059 77.5203 103.575C75.6612 102.582 73.7684 101.67 71.8497 100.844C68.0021 99.1358 64.1893 97.2836 60.2325 95.7202C55.1825 93.8201 50.1824 92.2268 45.016 90.5935C39.8496 88.9602 35.5486 87.5857 30.8424 86.161C26.665 84.8612 22.4892 83.3575 18.2911 82.1895C14.7582 81.1812 11.1488 79.2526 7.60751 80.128C6.7403 78.9463 7.30335 78.4662 8.19793 78.4999C9.79653 78.4879 11.4413 78.685 13.0863 79.0854C17.3659 80.3615 21.6197 81.9179 25.903 83.2487C33.8792 85.7478 41.8495 88.1653 49.8358 90.5989C50.3826 90.767 50.9239 90.8527 51.9355 91.0813C51.5962 90.7396 51.2208 90.4295 50.818 90.1581C41.3321 85.3891 31.6425 81.1822 21.8207 77.5699C17.2138 76.0351 12.5484 75.0031 7.93092 74.4984C6.55896 74.4021 5.22694 74.4968 3.97827 74.7794C3.66237 74.8212 3.37645 74.9301 3.14029 75.0984C2.9046 75.2661 2.72373 75.4898 2.61139 75.7527C2.49905 76.0156 2.45673 76.3128 2.48834 76.6226C2.52004 76.9324 2.62437 77.2479 2.79427 77.5476C4.43503 79.8414 6.01759 82.3841 8.82256 83.6295C12.1556 85.1937 15.5632 86.5186 19.0081 87.5918C24.5193 89.2664 30.0726 90.676 35.6113 92.0978C40.3188 93.3193 45.0314 94.3923 49.7529 95.6029C53.385 96.5315 57.0347 97.5038 60.649 98.6201C64.2638 99.7358 67.5147 101.201 70.972 102.183C77.2361 104.238 83.3287 107.165 89.0126 110.85ZM82.3862 125.69C84.4837 125.25 86.6393 124.561 88.8665 124.278C91.0941 123.994 93.3893 124.059 95.7034 123.966C95.5919 123.853 95.4642 123.724 95.3999 123.66C90.8441 122.575 86.2932 122.072 81.8837 122.166C76.9687 122.169 72.1991 122.689 67.6629 123.72C63.153 124.936 58.5018 125.878 53.7349 126.54C49.299 127.34 44.7496 127.872 40.1118 128.134C39.7338 128.212 39.3772 128.333 39.0498 128.494C39.3487 128.773 39.675 129.026 40.0222 129.245C45.3515 131.565 50.9644 132.355 56.014 131.498C59.8522 131.011 63.5796 130.252 67.1674 129.228C68.8918 128.769 70.569 128.263 72.2616 127.772C70.5088 127.272 68.7611 127.31 67.3003 127.879C62.4431 129.066 57.3283 129.709 52.048 129.798C51.7208 129.8 51.3492 129.578 51.0145 129.471L50.9093 129.007L55.5353 128.562C56.4812 128.467 57.4484 128.471 58.3602 128.318C61.4778 127.782 64.5441 127.143 67.6641 126.635C69.1732 126.351 70.727 126.168 72.3127 126.085C75.3979 125.951 78.5232 125.986 81.6426 125.911C81.9042 125.863 82.1534 125.789 82.3862 125.69ZM101.616 127.195C96.559 125.216 91.3158 124.635 86.6152 125.534L86.6765 126.005L101.616 127.195ZM158.609 177.948L154.246 175.67C150.808 173.694 147.286 171.899 143.699 170.294C139.376 168.697 135.013 167.316 130.631 166.16C127.963 165.411 125.168 164.764 122.43 164.072C120.782 163.661 119.104 163.273 117.481 162.785C113.963 161.793 110.587 160.687 107.133 159.529C102.416 158.119 97.6935 158.229 93.8113 159.842C93.2247 160.092 92.7421 160.479 92.3993 160.974C91.5531 162.115 92.1684 163.527 92.6888 164.87C93.4503 166.917 94.0048 167.426 96.2207 167.642C98.4358 167.858 100.095 167.741 102.048 167.82C107.509 168.064 112.941 168.329 118.399 168.544C120.532 168.625 122.655 168.569 124.768 168.579L124.842 168.116C124.256 167.7 123.638 167.334 122.998 167.023C122.555 166.831 122.026 166.937 121.525 166.789C115.173 164.828 108.752 164.28 102.84 165.194C101.896 165.315 100.823 165.714 99.3376 164.421C100.235 164.342 101.115 164.214 101.975 164.04C106.36 163.008 111.188 162.999 116.09 164.015C120.056 164.875 124.017 165.984 127.942 167.333C129.901 167.929 131.827 168.696 133.811 169.241C136.177 169.914 138.582 170.295 140.941 171.091C143.3 171.885 145.272 172.903 147.401 173.824C149.085 174.553 150.784 175.27 152.482 175.959C154.178 176.649 156.508 177.466 158.466 178.265L158.609 177.948ZM174.098 186.061L176.443 188.426C173.315 184.35 169.987 180.405 166.705 176.454C163.145 172.467 159.971 168.237 157.236 163.832C156.345 162.294 155.44 160.768 154.462 159.27C150.861 153.668 147.246 148.078 143.574 142.532C142.654 140.923 141.46 139.415 140.049 138.081C138.997 137.168 138.192 136.045 137.736 134.853C136.243 131.633 134.901 128.464 133.257 125.22C131.337 121.417 129.272 117.672 127.165 113.961C125.66 111.241 124.14 108.505 122.475 105.855C121.542 104.35 120.785 104.149 119.291 104.508C119.014 104.555 118.763 104.655 118.553 104.802C118.342 104.95 118.176 105.143 118.064 105.369C117.952 105.596 117.896 105.853 117.9 106.123C117.903 106.395 117.967 106.674 118.086 106.948C118.445 108.103 118.819 109.247 119.267 110.39C121.793 117.028 125.99 123.104 129.33 129.464C131.817 134.199 134.99 138.729 137.956 143.281C139.433 145.563 140.953 147.838 142.617 150.054C145.228 153.507 147.953 156.895 150.649 160.306C151.413 161.281 152.25 162.227 153.444 163.637C151.499 159.681 148.482 156.816 146.633 153.391C143.873 148.586 140.649 143.952 137.636 139.149C135.887 136.335 134.035 133.547 132.446 130.691C129.778 125.929 127.227 121.131 124.764 116.319C123.468 114.224 122.648 111.988 122.365 109.783C124.012 110.397 124.238 111.544 124.684 112.429C126.001 115.011 127.101 117.681 128.463 120.256C130.425 124.025 132.505 127.786 134.586 131.546C136.338 134.618 138.133 137.682 140 140.69C141.304 142.849 142.636 144.986 144.015 147.145C145.394 149.302 146.645 151.128 147.997 153.105C150.917 157.405 153.953 161.671 156.86 166.01C157.669 167.209 158.507 168.414 159.217 169.666C159.456 169.907 159.183 170.501 158.946 170.748C158.71 170.995 158.224 170.633 157.856 170.466C157.489 170.3 157.49 170.096 157.315 169.919C155.72 168.31 153.866 166.62 152.123 165.015C149.002 162.146 145.852 159.301 142.732 156.459C141.234 155.219 139.834 153.876 138.552 152.447C135.229 148.326 131.945 144.144 128.956 139.927C126.575 136.553 124.596 132.971 122.433 129.536C120.777 126.792 119.268 124.017 117.655 121.239C116.716 119.653 115.746 118.035 114.69 116.483C113.107 114.144 111.394 111.879 109.765 109.546C106.737 105.188 103.869 100.76 100.683 96.4713C97.496 92.1817 95.2522 87.9754 90.984 84.64C89.1172 81.6322 85.812 80.4703 83.0287 78.659C82.0017 77.9809 80.8125 77.5483 79.9614 78.8368C80.7226 79.7421 81.5309 80.6175 82.3823 81.4583C88.3707 87.0048 93.6835 93.1214 98.1723 99.6386C102.214 105.609 106.545 111.435 110.689 117.381C113.791 121.738 116.804 126.108 119.949 130.431C121.247 132.277 122.616 134.067 124.036 135.96C123.736 135.172 123.35 134.397 122.886 133.649C121.542 131.578 120.127 129.536 118.799 127.455C115.687 122.124 112.183 116.931 108.317 111.92C106.111 109.363 104.123 106.674 102.382 103.886C100.496 101.033 98.4483 98.2496 96.2481 95.55L88.6049 85.1036C88.1474 84.4886 87.9145 83.8955 89.118 83.6529L91.9165 87.4733C93.3265 89.4328 94.6335 91.4163 96.1014 93.3575C98.4216 96.4649 101.103 99.4258 103.116 102.634C105.13 105.842 108.08 109.252 110.459 112.599C111.787 114.423 113.438 115.987 114.651 117.902C116.878 121.4 118.815 125.017 120.926 128.579C121.832 130.105 122.955 131.571 123.742 133.107C125.418 136.626 127.593 140.017 130.2 143.176C131.076 144.061 130.837 144.714 129.878 144.819C129.016 143.951 128.452 143.075 127.779 142.344C125.737 140.054 123.653 137.798 121.597 135.519C121.103 135.02 120.784 134.265 120.229 133.959C116.814 132.048 114.204 128.597 110.128 127.936C110.128 127.936 109.842 127.647 109.697 127.271L110.841 127.453L112.124 127.751L104.563 121.426C103.419 122.343 102.322 121.721 100.868 120.663C98.3117 118.453 95.2126 116.936 92.0567 116.35C85.2155 115.088 78.3958 114.227 71.6407 113.775C65.2416 113.504 58.6989 112.426 52.2226 111.669C50.6486 111.487 49.1312 111.26 47.5161 110.909C43.54 110.169 39.5634 109.43 35.5978 108.624C35.0845 108.516 34.5586 107.985 34.0291 107.63L34.1642 107.204C34.9463 107.206 35.7404 107.265 36.5408 107.378C38.4407 107.76 40.3514 108.308 42.2156 108.603C44.6068 108.996 46.987 108.994 49.3769 109.59C54.6237 110.871 59.7245 110.853 64.9047 111.58C67.4414 111.962 69.9662 112.213 72.4665 112.332C74.609 112.313 76.7982 112.491 79.0025 112.868C81.5244 113.288 84.0369 113.578 86.5283 113.737C82.7709 111.798 78.766 110.633 74.847 110.338C69.5856 109.503 64.3511 109.079 59.0948 108.326C55.7543 107.972 52.3805 107.125 48.9528 106.581C41.6711 105.344 34.3949 104.189 27.1271 102.941C26.6198 102.782 26.1076 102.764 25.6606 102.889C25.2136 103.015 24.8537 103.278 24.6303 103.643C26.3843 105.933 28.7107 107.855 31.3363 109.182C38.9857 112.826 47.0698 114.836 54.8712 115.032C60.0064 115.305 65.095 115.326 70.2083 115.499C76.1719 115.518 82.2873 116.242 88.4107 117.656C93.1771 118.9 97.911 120.528 102.554 122.517C103.288 122.824 104.113 123.144 104.148 124.126C104.183 125.108 103.372 124.979 102.576 125.097C102.168 125.193 101.788 125.343 101.446 125.541L101.601 126.082C105.066 127.404 108.533 128.754 111.994 130.022C112.969 130.367 113.831 130.599 113.765 132.066L110.699 131.349C111.383 132.059 112.158 132.693 112.996 133.232C119.992 138.22 125.945 144.277 132.456 149.798C135.625 152.484 138.598 155.356 141.726 158.104C144.854 160.85 148.151 163.435 151.179 166.234C154.726 169.916 158.793 173.156 163.211 175.818C163.966 176.302 164.669 176.866 165.301 177.492C165.69 177.769 165.987 178.146 166.14 178.553C166.293 178.961 166.29 179.372 166.133 179.712C163.256 177.832 160.495 176.12 157.84 174.234C153.859 171.419 149.96 168.481 146.034 165.594C139.529 160.846 132.31 157.423 125.468 153.204C122.216 151.223 118.78 149.614 115.258 148.425C112.429 147.488 109.669 146.033 106.72 145.307C102.403 144.476 98.1952 144.732 94.5575 146.049C94.0035 146.374 93.6049 146.869 93.4101 147.47C93.2149 148.073 93.2328 148.757 93.4598 149.441C94.0143 150.614 95.0549 151.05 96.8616 151.16C97.9175 151.183 98.9998 151.346 100.078 151.643C105.215 153.3 110.407 155.086 115.58 156.829C119.096 158.024 122.611 159.423 126.169 160.353C130.131 161.448 134.072 162.752 137.972 164.26C138.898 164.649 139.811 165.085 140.706 165.562C140.579 165.246 140.388 164.943 140.141 164.673C139.895 164.403 139.601 164.171 139.278 163.993C134.803 161.805 130.426 158.845 125.589 157.238C123.327 156.328 121.098 155.299 118.913 154.158C118.365 153.898 117.802 153.682 117.234 153.511C115.169 152.886 113.122 152.303 111.061 151.732L102.164 149.249C101.527 149.067 100.915 148.807 100.214 148.56C100.256 147.631 100.483 147.246 101.499 147.53C104.054 148.369 106.619 148.912 109.151 149.856C113.502 151.536 117.878 152.244 122.118 154.477C123.238 154.982 124.375 155.431 125.524 155.817C127.619 156.678 129.711 157.485 131.799 158.467C134.541 159.879 137.262 161.422 139.856 163.068C141.607 164.119 143.264 165.33 144.948 166.492C145.306 166.725 145.94 167.084 145.936 167.259C145.787 169.025 147.551 169.17 148.567 169.914C150.097 170.789 151.551 171.802 152.905 172.935C154.005 173.937 155.27 174.761 156.621 175.355C159.519 176.804 162.37 178.374 165.16 180.059C166.495 180.895 167.584 181.61 169.048 180.582L169.078 182.376C170.529 183.61 172.994 184.001 172.826 186.388C173.291 186.218 173.658 186.153 174.056 186.095L174.098 186.061ZM149.365 147.302L150.735 149.322C151.432 150.409 152.216 151.456 152.824 152.556C155.577 157.556 158.717 162.435 162.217 167.145C165.064 171.05 168.103 174.859 171.322 178.556C175.652 183.487 180.182 188.288 184.724 193.049C187.45 195.8 190.29 198.461 193.032 201.201C195.773 203.941 198.725 206.945 201.495 209.893C202.164 210.569 202.819 211.229 203.552 211.969C203.592 211.677 203.672 211.527 203.62 211.424L194.249 197.136C193.933 196.559 193.655 195.972 193.417 195.378C192.616 193.257 191.604 191.166 190.398 189.135C186.663 184.14 182.501 179.377 177.966 174.905C174.462 171.217 170.773 167.648 167.17 164.012C164.187 161.003 161.29 157.927 158.239 155.002C155.442 152.334 152.451 149.853 149.528 147.287L149.365 147.302ZM195.784 209.679C198.08 211.996 200.377 214.313 202.657 216.613C204.076 218.045 205.298 219.636 206.663 221.14C208.625 223.35 210.632 225.554 212.732 227.826C214.199 229.306 215.65 230.77 217.212 232.55C216.319 229.936 214.713 227.432 212.563 225.304C209.533 222.247 206.602 219.111 203.7 215.979C199.483 211.391 195.363 206.724 191.117 202.159C189.099 199.994 186.854 198.011 184.739 195.953L183.234 196.582C185.482 198.85 187.635 201.023 189.788 203.195C191.941 205.367 193.664 207.566 195.742 209.713L195.784 209.679ZM206.218 231.429C205.441 230.927 204.609 230.496 203.806 230.043L227.367 247.884C226.419 246.392 225.752 245.309 225.042 244.261C224.853 243.901 224.541 243.587 224.166 243.376C221.997 242.44 219.978 241.095 218.266 239.443C216.661 237.947 214.885 236.621 212.99 235.5C210.652 234.306 208.386 232.943 206.218 231.429ZM201.434 226.603C200.014 225.604 198.606 224.567 197.146 223.631C193.788 221.471 190.391 219.372 187.054 217.283C183.716 215.194 180.664 213.137 177.346 211.35C173.32 209.178 169.176 207.274 165.048 205.385C163.673 204.834 162.268 204.429 160.863 204.178C158.807 203.689 156.741 203.266 154.688 202.804C154.114 202.644 153.54 202.516 152.966 202.423C152.337 202.304 151.732 202.382 151.25 202.642C150.768 202.903 150.437 203.332 150.311 203.859C150.166 204.344 150.226 204.902 150.478 205.436C150.731 205.97 151.161 206.449 151.696 206.791C153.689 208.276 155.801 209.593 157.997 210.719C161.516 212.302 165.096 213.667 168.712 214.806C175.538 216.977 182.298 219.577 188.939 222.586C190.504 223.296 192.109 223.943 193.668 224.571L193.847 224.138C188.082 220.405 182.124 217.008 176.019 213.973C169.812 211.009 163.442 209.618 156.989 206.763C157.933 205.747 159.023 206.259 160.046 206.652C163.059 207.672 166.097 208.615 169.123 209.597C170.182 209.96 171.232 210.371 172.269 210.828C173.311 211.293 174.305 211.911 175.357 212.308C182.218 215.098 188.815 218.755 194.927 223.156C196.899 224.726 199.161 225.892 201.505 226.546L201.434 226.603ZM230.718 253.08C226.84 250.035 222.794 247.199 218.61 244.596C214.007 241.938 209.253 239.605 204.4 237.622C199.53 235.751 194.575 233.487 189.613 231.575C186.446 230.384 183.248 229.351 180.035 228.482C175.929 227.356 171.848 226.382 167.665 225.434C164.86 224.846 162.059 224.428 159.282 224.185C158.175 224.091 156.662 223.945 156.522 225.415C156.462 226.3 157.567 227.262 159.518 227.951C164.729 229.809 169.952 231.627 175.149 233.496C179.893 235.274 184.7 236.705 189.52 237.77C190.514 238.013 191.503 238.343 192.472 238.753L210.977 245.921C211.624 246.18 212.264 246.467 212.894 246.781C219.612 249.691 226.244 252.885 232.765 256.348C233.149 256.509 233.541 256.63 233.935 256.71C233.046 255.381 231.981 254.134 230.773 253.008L230.718 253.08ZM327.727 360.774C327.919 360.967 328.333 360.951 328.727 361.04C328.737 360.744 328.775 360.424 328.713 360.388C328.373 360.233 328.027 360.105 327.677 360.006C327.749 360.207 327.64 360.584 327.782 360.701L327.727 360.774ZM327.797 363.605C327.683 364.563 327.478 365.507 327.303 366.456C328.171 365.414 329.548 364.656 329.331 362.953C328.192 362.394 327.883 362.67 327.788 363.468L327.797 363.605ZM320.753 354.555C318.632 352.415 316.612 350.224 314.53 347.994C312.447 345.766 310.405 343.476 308.307 341.231C306.208 338.986 304.266 336.847 302.149 334.762C300.031 332.676 298.549 330.082 295.906 327.697C295.911 328.328 296.074 328.984 296.384 329.616C296.694 330.248 297.143 330.838 297.696 331.344C299.178 332.6 300.438 334.062 301.404 335.647C302.266 337.382 303.561 338.979 305.165 340.285C305.834 340.96 306.504 341.637 307.333 342.473C306.952 342.779 306.542 342.876 306.228 343.071L306.148 342.99L301.804 338.964L301.437 339.259C301.851 340.147 302.509 340.964 303.335 341.616C304.16 342.268 305.119 342.728 306.1 342.942L306.228 343.071C306.85 343.698 307.488 344.342 308.239 344.894C308.989 345.447 309.765 345.692 309.866 346.102C310.362 348.188 312.471 349.241 313.734 350.798C314.999 352.354 316.176 353.517 317.341 354.922C319.396 357.404 321.35 359.938 323.418 362.408C324.093 363.104 324.818 363.759 325.587 364.366L326.916 361.106C324.88 358.898 322.826 356.647 320.744 354.418L320.753 354.555ZM288.714 320.006L287.932 318.757L287.497 318.932L288.469 320.116L288.714 320.006ZM275.416 297.462C274.271 296.133 273.215 294.751 272.254 293.327C270.094 290.149 268.02 286.932 265.888 283.732C264.55 281.744 263.154 279.774 261.861 277.779C261.398 277.081 261.363 276.099 260.776 275.559C259.272 274.195 258.354 272.476 256.995 271.054C254.919 268.679 253.208 266.09 251.933 263.389C251.78 263.107 251.935 262.752 252.011 261.883C253.488 263.65 254.776 265.524 255.848 267.468C256.86 269.228 258.05 270.926 259.399 272.534C260.898 274.046 260.731 276.433 263.395 277.588C262.92 276.699 262.623 276.042 262.238 275.398C260.26 272.046 258.196 268.763 256.287 265.355C255.212 263.134 253.596 261.074 251.59 259.362L248.88 259.772C249.092 261.369 249.499 262.98 250.092 264.575C252.556 269.487 255.573 274.247 259.086 278.761C262.217 282.892 265.566 286.936 268.726 291.044C271.236 294.344 273.545 297.748 275.984 301.077C276.656 302.011 277.409 302.823 278.216 303.763C277.974 301.6 276.971 299.404 275.359 297.507L275.416 297.462ZM298.01 318.878C297.493 318.409 296.89 318.034 296.248 317.782C295.608 317.53 294.946 317.407 294.314 317.423L289.92 314.882L289.741 315.315C290.371 315.924 291.11 316.426 291.905 316.786C292.7 317.147 293.532 317.356 294.342 317.401C295.426 318.221 296.692 318.754 297.954 318.924L298.01 318.878ZM303.645 318.606C298.326 315.796 293.406 312.059 287.565 310.562C287.549 311.038 287.733 311.544 288.081 311.981C288.431 312.419 288.918 312.754 289.447 312.922L302.33 318.967C302.719 319.112 303.116 319.211 303.51 319.262L303.645 318.606ZM302.585 315.875L286.22 298.213C285.511 297.435 284.766 296.683 283.987 295.961C283.333 295.301 282.526 294.794 281.552 294.015C281.448 294.467 281.43 294.95 281.499 295.444C282.69 299.023 283.955 302.6 285.159 306.167C285.315 306.621 285.593 307.057 285.962 307.429C286.331 307.802 286.78 308.099 287.264 308.291C292.057 310.57 296.698 313.029 301.438 315.408C301.811 315.596 302.196 315.752 302.585 315.875ZM320.2 327.742C319.746 328.51 319.313 329.174 318.884 329.866L319.33 330.546C319.907 330.488 320.673 330.597 321.04 330.302C321.442 329.808 321.725 329.228 321.877 328.591L320.2 327.742ZM297.258 295.544L297.753 295.609C297.712 292.756 297.656 289.913 297.478 286.793C296.113 286.617 295.978 285.714 295.9 284.766C295.575 282.139 295.351 279.662 295.181 277.114C294.816 271.632 293.624 266.033 292.824 260.495C292.709 259.664 292.344 258.656 293.058 257.996C294.61 259.843 294.842 260.436 296.223 270.648C296.789 274.901 297.01 279.113 297.353 283.37C297.504 283.265 297.622 283.127 297.7 282.965C297.779 282.803 297.817 282.619 297.811 282.426C297.985 275.627 297.744 268.735 297.089 261.782C297.04 258.937 296.144 255.975 294.494 253.208C294.077 252.43 293.484 251.713 292.764 251.116C292.045 250.518 291.219 250.058 290.353 249.771C289.56 251.274 289.212 253.016 289.339 254.857C289.945 258.587 290.565 262.306 291.274 266.039C292.463 272.555 293.718 279.037 295.04 285.484C295.797 288.804 296.602 292.173 297.306 295.593L297.258 295.544ZM288.742 290.302C288.804 289.838 288.719 289.337 288.498 288.853C288.277 288.369 287.928 287.919 287.488 287.554C287.115 288.66 288.138 289.487 288.79 290.35L288.742 290.302ZM296.153 301.946C295.026 298.431 293.784 294.98 292.38 291.544C291.134 288.472 289.472 285.414 288.347 282.361C285.653 274.531 284.725 266.64 282.95 258.765C282.441 256.488 282.127 254.228 281.693 251.949C281.189 249.293 280.729 246.63 280.09 243.966C279.705 242.515 279.195 241.07 278.566 239.642C278.474 239.428 278.334 239.225 278.157 239.047C277.981 238.869 277.772 238.72 277.546 238.613C277.321 238.596 277.106 238.628 276.918 238.703C276.731 238.779 276.574 238.898 276.46 239.05C276.165 239.436 275.984 239.898 275.924 240.403C275.615 241.726 275.454 243.103 275.441 244.516C275.691 248.935 275.837 253.352 276.55 257.804C277.275 261.774 278.327 265.758 279.694 269.72C280.93 273.523 282.565 277.294 284.184 281.05C285.101 283.202 286.326 285.308 287.451 287.44C287.437 286.839 287.331 286.225 287.136 285.613C284.741 279.178 282.75 272.703 281.172 266.226C280.523 263.858 279.732 261.346 278.956 258.877C277.907 255.85 277.677 252.801 278.292 250.026C278.663 250.548 278.955 251.102 279.16 251.669C279.76 254.421 280.121 257.164 280.87 259.914C282.246 264.931 283.8 269.951 285.341 274.983C286.327 278.176 287.344 281.375 288.478 284.565C289.614 287.755 291.004 291.204 292.298 294.554C292.407 294.961 292.479 295.366 292.513 295.768L292.057 295.845L288.98 290.746C289.492 292.267 290.095 293.78 290.785 295.277C292.122 297.721 293.951 299.994 296.153 301.946ZM281.578 289.26C280.923 288.652 280.239 288.072 279.528 287.524C279.383 288.362 279.53 289.28 279.953 290.162C280.374 291.043 281.051 291.847 281.895 292.47C283.963 294.151 285.914 295.957 287.729 297.87C292.862 303.169 297.94 308.512 302.959 313.901C306.739 317.945 310.39 322.063 314.128 326.141C315.021 327.042 315.753 328.216 317.266 328.361C317.501 328.216 317.714 328.045 317.901 327.851C318.229 327.416 318.509 326.931 318.862 326.417C318.384 325.934 317.953 325.5 317.454 325.15C313.412 322.234 309.666 318.943 306.299 315.353C305.987 315.06 305.639 314.803 305.266 314.592C303.959 313.759 302.728 312.808 301.596 311.758C299.288 309.25 297.208 306.615 295.023 303.977C293.598 302.232 292.484 300.468 290.996 298.89C287.948 295.559 284.763 292.423 281.672 289.329L281.578 289.26ZM272.98 288.587C275.342 293.911 277.903 299.077 280.521 304.428C280.902 305.221 281.338 305.968 281.733 306.749C281.803 306.692 281.874 306.636 282.041 306.703L281.526 304.547L282.509 304.567L276.956 285.313C276.687 284.402 276.388 283.487 276.075 282.583C273.93 276.507 271.812 270.408 269.593 264.334C268.738 262.063 267.764 259.809 266.673 257.579C266.501 257.248 266.259 256.94 265.964 256.678C265.668 256.416 265.327 256.204 264.965 256.06C264.502 255.988 264.067 256.07 263.737 256.292C263.407 256.513 263.206 256.86 263.171 257.268C262.982 257.797 262.925 258.383 263.004 258.99C263.764 263.255 264.79 267.533 266.074 271.803C268.072 277.449 270.526 283.018 272.994 288.576L272.98 288.587ZM238.742 237.119C238.858 239.187 239.494 241.315 240.6 243.34C240.327 240.151 239.787 236.946 239.533 233.801C239.278 230.655 239.232 227.516 239.172 224.388C239.113 221.259 238.365 218.076 239.297 215.309L240.168 215.447C240.384 215.997 240.536 216.553 240.62 217.105C240.666 219.861 240.691 222.613 240.695 225.362C240.539 230.088 240.973 234.941 241.987 239.831C242.728 243.135 243.763 246.377 244.666 249.666L245.159 251.033C245.458 250.534 245.583 249.936 245.519 249.3C245.212 244.262 244.877 239.219 244.586 234.196C244.296 229.174 244.19 224.899 243.927 220.288C243.722 218.476 243.376 216.649 242.893 214.822C242.801 214.396 242.564 213.978 242.219 213.631C241.874 213.282 241.439 213.023 240.979 212.891C240.476 212.691 239.956 212.586 239.454 212.583C238.954 212.579 238.483 212.678 238.074 212.871C237.665 213.064 237.329 213.349 237.087 213.704C236.843 214.059 236.701 214.478 236.667 214.933C236.575 215.353 236.534 215.791 236.547 216.242C236.818 219.635 237.105 223.043 237.465 226.449C237.827 229.855 238.156 233.461 238.742 237.119ZM240.175 255.259C240.282 255.561 240.372 255.866 240.444 256.169L243.07 261.861L243.509 261.768L242.577 259.166C241.592 256.433 240.578 253.723 239.58 251.029C238.583 248.335 237.822 245.855 236.934 243.246C236.208 241.287 235.216 239.34 234.521 237.385C232.854 232.686 231.126 227.979 229.755 223.246C228.625 219.209 227.725 215.169 227.059 211.143C226.864 209.138 226.821 207.156 226.932 205.211C227.415 205.471 227.826 205.859 228.093 206.311C228.362 206.763 228.472 207.252 228.406 207.696C228.559 210.013 228.864 212.353 229.319 214.702C230.652 219.958 232.196 225.274 233.747 230.469C233.939 230.826 234.182 231.167 234.469 231.479C233.616 228.062 232.923 224.807 232.326 221.646C231.466 217.226 230.724 212.796 229.954 208.389C229.052 203.338 228.193 198.252 227.262 193.223C227.041 192.497 226.728 191.777 226.331 191.082L225.643 191.027C224.984 193.394 224.485 195.827 224.151 198.315C224.104 200.965 224.228 203.651 224.524 206.362C224.838 210.96 225.712 215.634 227.134 220.295C228.83 226.096 230.983 231.847 232.961 237.653C234.596 243.581 236.992 249.467 240.095 255.179L240.175 255.259ZM197.063 192.946C196.935 192.817 196.776 192.656 196.33 192.437L196.12 194.424L194.704 194.606C194.896 195.119 195.129 195.628 195.401 196.126C197.192 198.906 199 201.701 200.836 204.474C202.442 206.912 204.031 209.333 205.679 211.737C207.643 214.638 209.767 217.498 211.714 220.383C213.049 222.731 214.749 224.947 216.748 226.945C217.331 227.573 217.771 228.29 218.033 229.033C218.245 229.843 218.513 230.651 218.834 231.452C219.948 233.445 221.392 235.465 222.51 237.513C224.392 240.971 227.893 243.737 229.093 247.453C229.203 247.677 229.354 247.89 229.537 248.08C232.397 251.937 235.215 255.828 238.104 259.663C241.821 264.555 245.572 269.431 249.357 274.29C252.16 278.012 255.275 281.565 258.662 284.905C259.013 285.183 259.29 285.533 259.459 285.912C259.848 287.968 261.759 289.18 263.153 290.689C265.099 292.652 267.903 294.1 268.597 296.922C268.677 297.003 268.836 297.163 268.948 297.276C270.211 298.607 271.383 300.004 272.454 301.453C275.357 305.597 278.714 309.516 282.455 313.128C282.923 313.523 283.431 313.874 283.967 314.168C284.08 314.078 284.207 313.975 284.32 313.885C284.113 313.481 283.868 313.088 283.587 312.711C281.088 309.576 278.503 306.508 276.061 303.354C274.009 300.669 272.167 297.814 270.133 295.2C265.272 288.991 260.382 282.805 255.375 276.654C254.656 275.802 253.986 274.922 253.37 274.017C251.856 271.74 250.464 269.414 249.202 267.051C247.752 264.417 246.821 261.663 246.459 258.941C246.339 257.766 246.121 256.58 245.807 255.393C245.642 254.716 245.218 254.16 244.388 254.422C244.275 254.513 244.227 254.695 244.251 254.821C245.115 260.008 246.796 265.228 249.241 270.311C249.506 271.025 249.693 271.745 249.801 272.461C248.017 272.042 247.437 271.814 247.044 270.83C246.218 269.127 245.2 267.473 244.008 265.901C242.062 262.813 240.349 259.652 238.139 256.631C233.769 250.663 229.672 244.535 225.46 238.469C225.305 238.261 225.165 238.043 225.045 237.821C222.846 233.56 220.259 229.409 217.315 225.421C216.541 224.281 215.868 223.117 215.138 221.97L208.736 212.087C208.205 211.243 207.612 210.389 207.078 209.519L197.063 192.946ZM187.128 182.922L192.444 189.257L192.768 188.996C191.02 186.875 191.238 183.668 187.119 182.785L187.128 182.922ZM146.033 132.129C143.938 130.373 141.775 128.727 139.593 127.012C137.589 128.62 139.615 131.124 138.944 132.875C139.877 134.724 141.073 136.499 142.493 138.144C143.89 139.438 145.225 140.786 146.495 142.182C147.906 143.634 149.38 145.035 150.911 146.381C152.795 148.103 154.708 149.804 156.637 151.493C157.45 152.314 158.542 152.853 159.34 153.684C163.594 158.13 167.762 162.642 172.043 167.064C174.037 169.075 176.172 170.973 178.234 172.9C178.355 172.485 178.25 172.252 178.089 172.063C175.453 169.123 172.745 166.213 170.182 163.242C166.22 158.709 162.402 154.09 158.328 149.646C154.628 145.543 150.714 141.594 146.606 137.819C145.647 136.808 144.751 135.751 143.926 134.655C145.106 134.056 145.609 134.922 146.228 135.495C148.461 137.748 150.863 139.865 153.095 142.118C156.493 145.545 159.906 148.988 163.161 152.529C167.762 157.503 171.354 162.968 176.602 167.394C175.509 165.932 174.343 164.526 173.178 163.122C168.602 157.609 163.996 152.118 159.477 146.588C155.57 141.379 151.072 136.498 146.089 132.056L146.033 132.129ZM182.095 170.584C183.015 174.022 185.092 177.348 188.007 180.051C186.418 176.754 184.452 173.553 182.15 170.512L182.095 170.584ZM177.85 148.405C177.672 150.691 177.896 153.073 178.514 155.467C178.827 157.265 178.858 159.06 179.303 160.839C179.431 161.676 179.744 162.522 180.226 163.32C180.707 164.117 181.344 164.85 182.097 165.472L177.85 148.405ZM176.44 155.599C176.691 156.465 177.092 157.329 177.417 158.194L177.756 158.153C177.29 155.638 176.769 153.169 176.375 150.598C176.229 146.766 175.832 142.889 175.184 138.992C174.992 138.148 174.941 137.312 175.034 136.514C175.042 136.19 175.445 135.983 175.682 135.735L176.139 135.917L177.28 146.552C177.427 146.498 177.549 146.408 177.635 146.289C177.72 146.17 177.767 146.026 177.77 145.87C177.58 141.148 177.778 136.502 178.36 131.971C178.507 129.627 178.487 127.241 178.301 124.829C178.282 124.551 178.198 124.265 178.054 123.992C177.91 123.719 177.71 123.464 177.466 123.245C176.642 122.695 176.187 123.232 175.759 123.748C173.662 126.089 172.725 129.253 173.113 132.683C173.313 134.573 173.289 136.441 173.351 138.267C173.411 140.876 173.621 143.511 173.982 146.164C174.609 149.328 175.592 152.467 176.44 155.599ZM154.044 123.108C154.343 124.347 154.723 125.585 155.184 126.815C155.736 127.939 156.37 129.041 157.085 130.113C154.209 128.029 153.4 125.271 152.362 122.638C150.216 122.569 149.79 123.111 150.585 124.986C152.728 129.722 155.454 134.327 158.699 138.695C162.455 143.942 166.267 149.144 170.024 154.39C171.335 156.226 172.549 158.14 173.915 160.106C173.74 159.126 173.383 158.143 172.858 157.199C171.557 154.864 170.226 152.524 168.853 150.218C166.658 146.521 164.446 142.807 162.193 139.127C160.824 136.903 159.31 134.71 157.912 132.482C157.695 132.136 157.771 131.699 157.674 131.142C160.029 132.777 166.099 141.713 169.075 147.759L171.62 152.013C171.259 150.397 170.926 148.757 169.075 147.759C169.15 147.322 169.388 146.872 169.2 146.503C167.731 143.437 166.293 140.374 164.59 137.378C162.333 133.414 159.934 129.562 157.535 125.71C157.226 125.057 156.728 124.46 156.106 123.996C155.484 123.533 154.766 123.223 154.044 123.108ZM133.092 94.6579C133.01 94.71 132.934 94.7707 132.867 94.8393L142.112 105.879C142.183 105.822 142.267 105.755 142.337 105.698L133.092 94.6579ZM130.089 88.2014C124.608 82.518 118.742 77.0856 114.07 70.812C110.409 65.892 106.319 61.2022 102.357 56.4378C99.1785 52.72 95.8432 49.0991 92.5502 45.4443C91.9398 44.7048 91.1936 44.0587 90.3599 43.5478C89.5262 43.037 88.6239 42.6732 87.7116 42.4798C85.8277 42.1131 85.1445 42.5741 85.9562 44.2623C86.9039 46.5369 88.1415 48.7564 89.6393 50.8671C93.3147 55.5725 97.2798 60.1611 101.183 64.7127C102.486 66.1424 103.885 67.5021 105.366 68.7797C110.027 73.0993 114.789 77.3666 119.394 81.7315C122.473 84.6337 125.327 87.717 128.394 90.6586C127.516 89.2173 126.481 87.8386 125.308 86.5483C123.396 84.4143 121.425 82.298 119.499 80.1753C118.813 79.4836 118.283 78.6672 117.598 78.0024C113.989 74.5146 110.265 71.0897 106.755 67.5226C103.566 64.3043 100.588 60.9165 97.5285 57.4208C94.3603 54.2116 91.8297 50.5603 90.1059 46.7107C91.9212 46.497 92.3501 47.799 92.9284 48.6636C94.2657 50.8361 95.7286 52.961 97.3093 55.0267C101.025 59.44 104.853 63.7629 108.813 68.0388C111.106 70.5315 113.681 72.7977 116.178 75.2143C117.469 76.5174 118.947 77.701 120.196 79.0382C124.878 84.1204 129.25 89.4518 134.388 94.2264C135.998 95.913 137.476 97.6939 138.804 99.5508L143.583 105.422C143.775 105.614 144.139 105.727 144.879 106.115C143.651 104.212 142.806 102.694 141.746 101.292C138.16 96.7356 134.264 92.3598 130.089 88.2014ZM154.188 104.514L155.574 99.6492C156.086 97.9677 156.521 96.2333 157.202 94.6196C158.801 89.9993 161.664 86.052 165.567 83.0923C166.447 82.3893 167.135 81.505 167.594 80.485C168.681 78.4882 170.884 77.848 172.982 76.5132C173.041 77.0309 172.954 77.5225 172.729 77.9409C172.504 78.3587 172.149 78.6888 171.698 78.8993C170.056 79.9092 168.732 81.2663 167.8 82.891C167.271 83.7032 166.621 84.4289 165.861 85.0513C163.766 86.7183 162.073 88.768 160.851 91.1172C160.373 92.1938 159.6 93.1016 159.014 94.1205C158.68 94.7048 158.457 95.3745 158.133 96.0959C158.487 96.0435 158.682 96.061 158.766 95.993C162.249 92.6812 165.778 89.3902 169.153 86.0206C170.626 84.4018 172.338 82.9902 174.258 81.8138C175.187 81.1653 176.038 80.434 176.804 79.628C179.292 77.0596 180.889 73.7961 181.451 70.1282C181.541 69.3721 181.539 68.5898 181.445 67.795C180.162 67.2864 178.834 67.0594 177.582 67.1358C176.33 67.2116 175.193 67.5879 174.274 68.2301C173.12 69.0466 172.081 69.9852 171.174 71.0331C166.509 76.0935 162.219 81.4603 158.322 87.1087C154.826 91.9122 153.378 98.0062 154.188 104.514ZM149.148 98.9684L149.915 99.1038C149.84 98.4141 149.749 97.7351 149.704 97.0498C149.524 94.5671 149.343 92.0844 149.207 89.5947C149.122 88.3336 149.231 87.0628 149.119 85.8249C148.984 84.0269 148.579 82.1862 148.626 80.4446C148.704 77.8134 147.916 74.9217 149.159 72.5971C148.384 70.3317 149.484 68.5536 149.57 66.4926C149.663 64.9754 149.619 63.4225 149.574 61.8696C149.53 60.3167 149.362 58.6902 149.409 57.1517C149.335 56.4662 149.429 55.8095 149.683 55.2303C149.939 54.6517 150.347 54.1646 150.882 53.806C150.98 54.6214 151.073 55.1243 151.075 55.5858C151 56.8302 151 58.0927 151.074 59.3688C151.669 64.2901 150.691 68.7993 150.544 73.5086C150.432 76.8895 150.34 80.2738 150.269 83.6614C150.32 84.0127 150.424 84.3667 150.577 84.7137C151.844 78.7318 152.918 72.7596 153.599 66.6712C154.133 61.9692 154.255 57.1072 154.384 52.3546C154.449 50.2985 153.749 48.1185 152.394 46.1541C148.968 47.4275 146.159 49.0155 146.26 52.9777C146.344 56.0282 146.402 59.129 146.817 62.2322C147.341 66.1052 147.411 69.9218 147.026 73.6145C146.722 75.5923 146.594 77.6257 146.643 79.6964C147.018 84.6506 147.589 89.6498 148.175 94.6377C148.408 96.1258 148.83 97.5483 149.148 98.9684ZM130.908 69.4705C131.146 69.8362 131.429 70.1816 131.749 70.4986C131.488 69.1204 131.077 67.7379 130.522 66.3718C128.85 61.823 126.692 57.3399 124.082 52.9971C121.97 49.2652 120.239 45.4282 118.916 41.5468C118.448 40.1029 117.847 38.6789 117.234 37.2934C115.948 34.2824 114.498 31.2863 113.344 28.2557C112.027 24.7787 110.87 21.2595 109.819 17.7707C109.513 16.7458 108.736 15.5785 109.43 14.3869C109.817 14.8439 110.154 15.3298 110.434 15.8343C111.413 18.2542 112.318 20.6759 113.254 23.1022C114.333 25.904 115.382 28.7011 116.522 31.5124C117.515 33.9209 118.714 36.2807 119.679 38.7119C120.644 41.1431 121.345 42.9492 122.156 45.0713C123.401 48.2356 124.954 51.3519 126.793 54.3767C128.349 56.9693 129.817 59.575 131.364 62.2613C131.302 60.7237 131.103 59.164 130.771 57.5977C130.044 54.9468 129.049 52.3074 128.113 49.6504C126.167 44.1075 124.177 38.5715 122.216 33.0398C121.499 30.9871 120.812 28.9391 120.037 26.9041C118.067 21.6694 116.05 16.4138 114.066 11.1904L111.022 3.23599C109.655 3.21983 108.402 3.56722 107.406 4.2385C106.409 4.90979 105.709 5.87814 105.384 7.03299C105.11 10.4754 105.599 14.0949 106.824 17.6887C107.676 20.8747 109.138 24.0627 110.243 27.2482C111.675 31.3557 113.49 35.4197 115.664 39.39C115.951 39.9864 116.195 40.5916 116.394 41.2008C117.658 44.3167 118.864 47.4505 120.185 50.5482C120.818 51.8059 121.521 53.0446 122.292 54.2588L130.908 69.4705ZM137.823 87.5169C137.346 86.4851 136.991 85.432 136.766 84.3796C136.694 83.0801 135.397 82.5899 134.797 81.6264C134.67 81.4982 134.746 81.2932 134.662 81.1575C133.926 79.9442 133.127 78.7537 132.268 77.5915C130.87 75.8238 129.249 74.0342 127.733 72.2753C126.265 70.5642 124.837 68.9951 123.49 67.3035C120.385 63.3532 117.323 59.369 114.248 55.4232C113.337 54.248 112.355 53.1295 111.468 51.8769C109.028 48.2895 106.788 44.5986 104.173 41.0648C102.029 38.1702 100.025 35.2092 98.1669 32.193C96.3334 29.326 94.8593 26.3352 93.7804 23.2935C95.2537 23.5273 95.581 24.4199 96.0727 25.3251C97.9278 28.9573 99.9789 32.5374 102.217 36.0493C104.475 39.3501 106.966 42.5793 109.184 45.9414C112.41 50.8331 116.057 55.561 119.672 60.2566C122.665 64.0944 125.888 67.8062 129.024 71.5578C129.346 71.8524 129.704 72.1103 130.086 72.3229C130.199 72.2323 130.326 72.1304 130.44 72.0404C129.349 70.6195 128.328 69.1627 127.382 67.677C125.021 63.841 122.283 60.1531 119.211 56.6719C116.212 53.2295 113.483 49.621 111.054 45.8857C108.818 42.2495 106.878 38.5788 104.761 34.9343C101.982 30.2899 99.044 25.7152 96.2933 21.0481C95.6606 19.9208 94.7657 18.8929 93.6877 18.055C92.6098 17.217 91.3818 16.5949 90.1123 16.2436C89.9385 16.9395 89.8877 17.6811 89.9615 18.4433C90.4898 20.2826 91.1237 22.1169 91.8599 23.9379C93.9006 28.9352 96.6966 33.7903 100.153 38.3388C105.103 45.199 110.266 51.9166 115.516 58.5937C119.043 63.0724 122.871 67.395 126.612 71.758C126.82 71.9672 127.3 72.0165 127.652 72.1672C128.071 73.1759 128.581 74.169 129.173 75.1339C131.891 78.8738 135.115 82.3819 136.938 86.5222C137.063 86.8271 137.375 87.0394 137.775 87.4686L137.823 87.5169ZM140.019 89.4521L139.362 89.4021L139.726 91.3038L140.338 91.333L140.019 89.4521ZM131.396 5.84531C130.153 6.84138 130.55 8.34176 130.679 9.59608C131.085 12.5622 131.666 15.7053 132.104 18.7037C132.836 24.325 133.283 29.9146 134.149 35.5437C135.015 41.1728 135.318 46.1565 135.592 51.393C135.583 52.8679 135.678 54.364 135.877 55.8724C136.589 59.1548 136.755 62.4017 136.369 65.4961C135.917 67.6592 135.889 69.9646 136.288 72.3172C137.445 77.396 138.079 82.4323 138.952 87.5062C139.185 87.5161 139.42 87.54 139.656 87.5774C139.406 85.382 139.021 83.178 138.937 81.0228C138.776 76.3866 139.78 72.0308 139.362 67.3138C139.094 64.6405 139.117 62.0816 138.837 59.4468C138.442 55.52 137.851 51.5752 137.379 47.6227C136.907 43.6695 136.552 39.9112 136.074 36.0794L134.213 19.3231C134.047 17.9544 133.946 16.6501 133.776 15.2266C133.718 14.5801 133.89 14.0379 135.295 14.3558C137.014 26.3166 138.433 38.2301 139.552 50.096C140.115 47.0091 140.159 43.7554 139.681 40.4349C139.077 34.0474 138.436 27.7763 137.801 21.3838C137.507 17.9096 136.65 14.3738 135.257 10.8921C134.509 8.9882 133.155 7.21832 131.396 5.84531ZM278.72 295.708C278.779 295.487 278.913 295.264 278.856 295.079C275.484 285.694 272.091 276.305 268.679 266.914C268.571 266.615 268.411 266.323 268.204 266.053C268.204 266.053 267.898 265.923 267.394 265.721C267.421 266.442 267.519 267.174 267.688 267.91C268.657 270.983 269.718 274.099 270.87 277.255C272.955 283.091 275.114 288.926 277.229 294.767C277.533 295.534 277.926 295.853 278.72 295.708ZM252.207 299.636C251.901 299.506 251.455 299.952 250.634 300.35C257.126 303.807 263.358 305.135 269.368 307.594C269.934 307.833 270.597 307.735 271.585 307.837C271.011 307.257 270.981 307.022 270.843 306.96C264.597 304.459 258.365 302.006 252.145 299.6L252.207 299.636ZM218.648 246.067C216.551 244.942 214.416 243.906 212.253 242.963C210.124 241.946 207.963 241.027 205.778 240.214C199.806 238.1 194.093 234.97 188.016 233.287C186.214 232.798 184.437 232.028 182.634 231.538C179.149 230.578 175.728 229.683 172.29 228.771C170.884 228.426 169.482 228.136 168.06 227.802L167.955 228.233C168.268 228.589 168.642 228.897 169.058 229.139C171.591 230.205 174.18 231.034 176.778 231.612C182.399 232.743 188.009 234.456 193.496 236.719C200.169 239.08 206.703 242.042 213.283 244.795C214.79 245.453 216.271 246.196 217.714 247.017C221.343 249.016 224.96 251.055 228.575 253.066L228.984 252.737C228.487 252.12 227.92 251.547 227.294 251.032C224.389 249.404 221.521 247.661 218.586 246.029L218.648 246.067ZM196.894 154.939C195.162 150.323 194.143 145.65 193.872 141.076C193.787 139.776 193.575 138.458 193.237 137.138L192.582 136.885C192.31 137.276 191.678 137.609 191.797 138.062C192.482 142.306 193.197 146.556 193.995 150.736C194.369 152.545 195.19 154.37 195.712 156.175C196.465 158.776 197.115 161.374 197.778 163.961C197.828 164.367 197.973 164.779 198.201 165.168C198.431 165.558 198.738 165.916 199.104 166.219L199.348 163.627C198.948 162.678 198.601 161.723 198.309 160.764C197.856 158.875 197.515 156.895 196.894 154.939ZM263.487 317.332C263.487 317.332 263.413 317.564 263.317 317.901C266.272 319.676 269.413 321.057 272.619 321.995C270.178 319.736 267.007 319.043 264.362 317.294C264.144 317.151 263.75 317.265 263.487 317.332Z" fill="#101A24"/>
</svg>
