<svg width="315" height="268" viewBox="0 0 315 268" fill="none" xmlns="http://www.w3.org/2000/svg">
<path d="M270.29 242.421C269.921 241.458 269.272 240.627 268.429 240.034C266.637 238.894 264.668 237.962 262.754 236.966C259.861 235.322 256.766 234.061 253.549 233.211C248.949 232.121 244.523 230.396 240.399 228.084C235.646 225.657 230.747 223.522 225.732 221.693C222.498 220.428 218.966 219.905 215.756 218.551C213.844 217.643 211.731 217.242 209.62 217.384C206.474 217.485 203.326 217.282 200.219 216.777C193.69 216.095 187.179 215.392 180.687 214.667C178.896 214.467 177.136 214.1 175.381 213.793C175.886 213.201 176.569 213.34 177.063 213.182C181.831 211.97 186.808 211.833 191.635 212.779C194.913 213.289 198.217 213.623 201.531 213.778C205.533 213.842 209.511 214.443 213.353 215.565C214.604 215.947 215.907 216.126 217.215 216.092C223.011 215.421 228.86 215.324 234.675 215.802C235.608 215.893 236.547 215.877 237.475 215.758C245.041 215.213 252.158 212.631 259.462 210.869C264.73 209.584 270.006 208.223 275.291 207.145C281.461 206.205 287.312 203.788 292.346 200.099C293.332 199.537 294.177 198.759 294.821 197.824C295.464 196.889 295.889 195.822 296.063 194.7C295.018 194.28 293.916 194.02 292.793 193.932C284.228 194.646 275.688 195.492 267.127 196.265C262.346 196.721 257.561 197.148 252.756 197.502C250.845 197.669 248.912 197.57 247.045 197.719C241.725 197.965 236.408 198.269 231.071 198.501C230.267 198.489 229.464 198.424 228.669 198.306C231.519 196.496 234.497 194.896 237.58 193.521C239.391 192.661 241.216 191.785 243.064 191.01C246.704 189.526 250.413 188.156 254.077 186.581C258.909 184.51 263.627 182.119 268.534 180.25C273.188 178.4 277.492 175.771 281.265 172.476C283.948 170.203 286.816 168.199 289.65 166.139C291.287 164.963 293.074 164 294.743 162.852C297.318 161.095 297.225 159.939 294.894 157.843C290.15 159.326 285.405 160.809 280.66 162.29C275.916 163.774 270.822 165.374 265.922 166.973C262.707 168.35 259.364 169.407 255.941 170.127C255.339 170.253 254.754 170.451 254.198 170.714C250.5 172.038 246.751 173.292 243.075 174.72C238.966 176.301 234.974 178.066 230.933 179.761C228.949 180.857 226.828 181.678 224.623 182.205C224.991 181.579 225.148 181.297 225.304 181.017C226.498 178.967 227.74 176.959 228.858 174.9C229.666 173.433 230.179 171.825 231.052 170.414C232.686 167.717 234.487 165.052 236.209 162.513C237.991 159.795 240.169 157.359 242.673 155.285C244.22 153.849 245.593 152.237 246.765 150.482C247.556 149.554 248.077 148.423 248.789 147.426C250.328 145.231 252.008 143.097 253.452 140.818C254.896 138.54 256.073 136.283 257.275 133.965C257.61 133.216 257.774 132.404 257.757 131.584C257.753 130.421 257.098 130.055 255.979 130.428C254.86 130.801 254.218 131.166 253.297 131.403C249.071 132.471 245.262 135.028 241.102 136.733C240.858 136.838 240.632 136.981 240.435 137.158C236.992 139.594 234.185 142.821 232.251 146.569C230.587 150.154 228.118 153.308 225.035 155.782C222.457 157.868 220.173 160.287 217.758 162.539C217.417 162.939 216.964 163.244 216.556 163.56C213.097 166.4 210.043 169.701 207.479 173.37C205.224 176.339 203.51 179.713 201.462 182.83C199.514 186.169 196.988 189.134 194.001 191.586C189.751 194.985 185.183 197.967 180.361 200.492C179.024 201.233 177.602 201.812 176.127 202.217C171.504 203.168 166.835 203.913 162.249 204.951C156.796 206.162 151.408 207.622 145.976 208.905C144.44 209.281 142.793 209.399 141.279 209.683C143.716 207.774 146.253 205.998 148.88 204.363C157.4 198.968 165.954 193.631 174.456 188.194C180.517 184.324 186.493 180.325 192.52 176.398C194.675 175.003 196.802 173.61 198.947 172.261C199.223 172.151 199.475 171.988 199.687 171.781C199.9 171.575 200.07 171.328 200.186 171.055C200.303 170.782 200.365 170.489 200.368 170.192C200.371 169.895 200.315 169.601 200.204 169.326C199.723 169.281 199.238 169.294 198.761 169.367C194.793 170.489 190.835 171.566 186.925 172.847C181.921 174.44 176.919 176.063 172.008 177.902C167.817 179.579 163.611 181.467 159.393 183.205C155.177 184.944 150.972 186.28 147.014 188.266C139.01 192.277 131.145 196.545 123.298 200.825C120.453 202.238 117.913 204.195 115.821 206.584C113.582 209.187 110.784 211.251 107.636 212.623C105.899 213.462 104.103 214.143 102.38 214.997C98.0759 217.13 93.7387 219.237 89.5047 221.514C86.9592 222.892 84.5116 224.444 82.1782 226.157C80.5446 227.474 78.6139 228.371 76.5535 228.769C71.9368 229.459 67.5419 231.209 63.7154 233.882C62.583 234.642 61.2028 234.939 59.8582 234.711C60.3624 234.119 60.7475 233.894 61.0848 233.629C64.0053 231.564 66.8158 229.348 69.5053 226.99C72.3703 224.272 75.4806 221.827 78.7968 219.684C80.0931 218.795 81.2817 217.759 82.3403 216.596C83.7995 215.077 84.8628 213.441 86.2541 212.002C91.6968 206.556 97.3344 201.303 102.649 195.746C106.628 191.595 110.267 187.097 114.021 182.725C115.766 180.677 117.527 178.612 119.128 176.44C119.537 175.693 119.859 174.901 120.089 174.081C118.805 174.258 117.917 174.165 117.284 174.454C114.105 176.11 110.98 177.895 107.805 179.612C104.631 181.327 101.488 183.069 98.2735 184.668C94.0418 186.782 89.6171 188.537 85.5223 190.878C76.6794 196.261 68.7498 203.018 62.0286 210.894C58.7409 214.846 55.6894 218.99 52.891 223.303C50.6037 226.604 48.5059 230.038 46.4081 233.473C45.1588 235.864 43.3874 237.943 41.225 239.555C37.8668 241.777 34.7927 244.38 30.7261 245.391C30.4185 245.46 30.1592 245.765 29.8428 245.909C27.7832 247.061 25.6662 248.106 23.4991 249.041C16.9758 251.606 10.3241 253.867 3.85627 256.561C0.56397 257.928 -0.971845 260.735 1.11504 263.896C1.59184 264.633 2.1116 265.353 2.60198 266.074C2.87149 266.536 3.28768 266.896 3.78471 267.094C4.28173 267.292 4.83067 267.318 5.34467 267.168C7.14024 266.805 8.90571 266.305 10.6253 265.673C14.954 263.835 19.0586 261.807 23.4511 260.024C28.1812 258.169 33.0422 256.648 37.8456 254.966C40.7849 253.747 44.0789 253.697 47.054 254.828C49.8213 255.911 52.7165 256.631 55.6682 256.975C60.9854 257.609 66.3546 257.792 71.6573 258.249C76.0359 258.516 80.4305 258.335 84.7719 257.709C88.4168 257.279 92.0775 256.972 95.7523 256.787C100.998 256.533 106.246 256.502 111.439 256.341C113.612 256.225 115.774 255.963 117.911 255.556C120.998 254.981 124.026 254.053 127.152 253.594C131.582 252.972 135.931 251.869 140.122 250.307C141.183 249.915 142.198 249.408 143.149 248.798C144.702 247.715 146.459 246.958 148.312 246.572C150.166 246.185 152.078 246.177 153.934 246.549C155.603 247.022 157.346 247.176 159.072 247.004C160.877 247.039 162.663 247.376 164.358 247.999C167.695 248.687 171.057 249.314 174.382 250.048C176.932 250.59 179.466 251.312 182.029 251.84C186.078 252.664 190.201 253.111 194.166 254.196C199.943 255.557 205.86 256.231 211.795 256.205C212.424 256.245 213.062 255.821 213.978 255.525C213.544 254.38 213.449 253.195 212.799 252.53C211.421 250.925 209.801 249.544 207.997 248.438C201.838 245.096 195.563 241.987 189.315 238.846C186.214 237.634 183.21 236.182 180.332 234.506C176.189 231.871 171.583 230.047 166.76 229.13C163.728 228.343 160.647 227.68 157.629 226.876C153.82 225.868 150.068 224.66 146.233 223.713C140.739 222.582 135.126 222.124 129.521 222.347C128.506 222.338 127.502 222.285 126.092 222.188C126.706 221.662 126.801 221.356 127.084 221.348C132.929 220.001 138.787 218.087 145.07 217.914C150.567 217.917 156.01 218.998 161.091 221.095C164.018 222.264 166.91 223.54 169.849 224.662C174.981 226.455 179.971 228.63 184.779 231.168C187.908 233.143 191.402 234.467 195.055 235.061C201.143 235.828 207.235 236.461 213.321 237.198C217.513 237.603 221.638 238.536 225.596 239.978C227.954 240.929 230.422 241.584 232.942 241.927C242.254 243.092 251.623 244.03 260.907 245.035C263.254 245.257 265.611 245.338 267.967 245.276C268.337 245.343 268.719 245.309 269.07 245.179C269.423 245.048 269.734 244.825 269.971 244.534C270.208 244.242 270.363 243.893 270.419 243.522C270.475 243.15 270.431 242.769 270.29 242.421ZM214.964 220.971C216.014 220.678 217.37 221.584 218.591 221.935C215.088 223.442 211.341 224.302 207.531 224.473L207.354 223.935C209.831 222.802 212.372 221.813 214.964 220.971ZM205.927 220.648C207.817 219.826 209.732 218.972 212.001 220.298C208.932 221.467 205.997 222.641 202.991 223.672C202.565 223.742 202.129 223.724 201.71 223.619C201.292 223.514 200.899 223.324 200.556 223.061C202.329 222.278 204.112 221.449 205.927 220.648ZM204.073 219.29C201.823 220.507 199.49 221.566 197.092 222.458C195.84 222.855 194.254 222.221 192.822 222.052C194.346 220.734 196.16 219.796 198.116 219.316C200.072 218.836 202.114 218.827 204.073 219.29ZM246.79 200.126L247.026 200.659C245.603 201.325 244.231 202.09 242.81 202.592C241.388 203.093 240.29 204.672 237.804 203.604C241.149 202.531 243.753 200.771 246.79 200.126ZM236.938 205.85C241.769 205.953 246.6 205.702 251.393 205.099C253.827 204.935 256.267 204.665 258.709 204.426C259.537 204.33 260.36 204.174 261.81 204.029C261.042 203.374 260.577 202.978 260.287 202.897C258.361 202.848 256.434 202.942 254.522 203.178C251.765 203.657 248.952 203.735 246.172 203.412C248.092 202.423 249.995 201.422 251.934 200.477C252.427 200.305 252.952 200.242 253.471 200.294C257.852 200.28 262.223 199.871 266.531 199.072C271.287 198.483 276.088 198.07 280.938 197.534C283.543 197.267 286.135 197.045 288.744 196.837C289.337 196.789 289.923 196.847 291.057 196.846C288.877 198.632 286.322 199.902 283.582 200.56C278.965 202.152 274.188 203.608 269.529 204.859C267.108 205.56 264.71 205.781 262.284 206.229C261.848 206.251 261.414 206.296 260.982 206.362C255.933 207.586 250.884 208.81 245.899 210.087C242.35 211.034 238.694 211.522 235.021 211.538C229.073 211.58 223.145 212.083 217.206 212.244C215.921 212.197 214.648 211.994 213.413 211.637C211.829 211.162 210.22 210.777 208.592 210.485C205.192 210.13 201.766 210.001 198.359 209.75C197.084 209.658 195.818 209.491 194.595 209.305L194.563 208.532C196.475 208.006 198.345 207.335 200.314 206.939C205.666 205.612 211.219 205.285 216.69 205.975C222.188 206.594 227.737 206.606 233.237 206.012C234.464 205.859 235.703 205.805 236.938 205.85ZM238.458 201.149C235.268 202.299 232.656 205.462 228.68 203.869C231.783 202.563 234.648 200.14 238.458 201.149ZM227.859 201.429C226.321 202.357 225.056 203.129 223.787 203.872C223.432 204.094 223.03 204.469 222.669 204.438C219.675 204.467 216.687 204.155 213.764 203.508C218.585 201.677 222.928 200.405 227.859 201.429ZM228.668 168.963L229.1 169.331C227.342 172.53 225.612 175.726 223.758 178.843C222.946 180.346 222.035 181.794 221.031 183.178C220.272 184.378 219.272 185.407 218.095 186.202C215.1 187.846 211.972 189.238 208.746 190.364C209.309 189.557 209.949 188.806 210.655 188.123C212.314 186.803 213.73 185.206 214.844 183.403C216.551 180.88 218.495 178.502 220.313 176.045C220.706 175.589 221.042 175.086 221.312 174.548C222.831 171.338 225.91 170.481 228.6 169.043L228.668 168.963ZM230.869 165.147C229.89 167.075 228.176 166.913 226.756 167.445C227.858 166.274 229.295 165.471 230.869 165.147ZM234.022 160.54C233.331 162.355 232.004 162.908 229.87 162.527L234.022 160.54ZM206.741 183.736C209.552 179.529 212.41 175.333 215.506 171.342C219.591 166.322 224.077 161.643 228.92 157.351C230.943 155.19 232.828 152.902 234.564 150.501C236.896 147.765 239.229 145.028 241.659 142.401C241.972 142.098 242.255 141.766 242.505 141.409C244.068 138.569 246.843 137.453 249.63 136.29C251.101 135.665 252.534 134.925 253.984 134.227L254.4 134.582C252.666 137.33 250.948 140.094 249.151 142.818C247.434 145.663 245.555 148.407 243.527 151.039C241.446 153.953 238.745 156.368 235.619 158.115C235.398 158.26 235.155 158.37 234.899 158.441C230.277 159.034 227.588 162.157 225.157 165.722C223.767 167.743 222.075 169.534 220.606 171.486C219.135 173.439 217.884 175.329 216.529 177.242C215.176 179.155 213.979 180.981 212.57 182.764C211.328 184.221 209.96 185.568 208.736 187.067C207.046 189.053 205.562 191.214 203.921 193.27C203.466 193.886 202.887 194.4 202.222 194.778C198.725 196.385 195.176 197.892 191.642 199.412C191.449 199.49 191.24 199.524 191.032 199.509C190.824 199.495 190.622 199.433 190.442 199.329C190.996 198.867 191.58 198.442 192.19 198.055C198.108 194.506 203.095 189.597 206.741 183.736ZM160.042 186.466C163.678 184.728 167.279 182.934 170.949 181.253C173.048 180.28 175.168 179.544 177.267 178.735C181.227 177.33 185.174 175.941 189.12 174.552C190.272 174.062 191.485 173.729 192.726 173.562C192.193 174.04 191.631 174.484 191.041 174.89C181.309 181.158 171.539 187.337 161.828 193.513C157.909 196.004 154.133 198.782 150.165 201.202C145.157 204.257 140.012 207.084 134.889 209.984C132.134 211.533 129.341 212.993 126.567 214.498C126.123 214.795 125.631 215.011 125.112 215.136C121.411 215.685 118.453 218.055 115.032 219.312C111.612 220.57 108.395 221.945 105.025 223.274C104.033 223.649 102.967 223.79 101.911 223.686C103.663 222.492 105.496 221.423 107.399 220.488C109.754 219.552 112.019 218.402 114.166 217.054C116.522 215.553 119.15 214.448 121.609 213.119C124.487 211.62 127.369 210.153 130.248 208.654C133.381 206.81 136.628 205.166 139.969 203.732C141.327 202.972 142.591 202.055 143.734 200.999C146.39 199.146 149.026 197.221 151.722 195.483C155.41 193.1 159.244 190.676 163.075 188.386C164.839 187.321 166.758 186.496 168.607 185.558L168.167 184.713L157.557 189.901C157.639 189.163 157.912 188.459 158.347 187.856C158.784 187.254 159.367 186.775 160.042 186.466ZM113.626 222.065L118.277 220.336C116.352 222.205 115.744 222.433 113.598 222.097L113.626 222.065ZM155.144 188.646C153.559 190.831 153.079 193.436 150.016 194.113C151.509 192.069 151.765 189.304 155.117 188.679L155.144 188.646ZM149.444 191.249C148.924 193.32 147.03 194.082 146.088 195.545C145.172 197.253 143.781 198.659 142.085 199.594C143.011 197.469 144.122 195.429 145.403 193.496C146.607 192.515 147.975 191.754 149.444 191.249ZM96.0894 221.213C101.57 218.672 107.193 216.417 112.553 213.662C115.208 212.136 117.685 210.316 119.936 208.24C124.396 204.834 129.135 201.811 134.103 199.202C136.211 197.96 138.423 196.888 140.616 195.773C141.174 195.55 141.748 195.374 142.334 195.248C141.067 197.676 139.985 199.821 138.855 201.926C138.556 202.242 138.187 202.486 137.778 202.638C132.087 205.718 126.432 208.884 120.691 211.893C117.069 213.809 113.326 215.51 109.655 217.355C107.388 218.49 105.143 219.699 102.911 220.891C98.312 223.437 93.3308 225.22 88.1613 226.171C88.5926 225.612 89.0943 225.11 89.653 224.68C91.805 223.419 93.8824 222.149 96.1436 221.148L96.0894 221.213ZM83.1146 208.36C83.6781 206.077 85.842 205.159 89.5543 205.31C88.1817 208.119 85.4155 207.475 83.1688 208.295L83.1146 208.36ZM93.7963 201.271C93.1691 202.008 92.541 202.744 91.8728 203.528L88.3877 202.852L88.3204 202.379L93.4003 200.796L93.7963 201.271ZM4.07036 263.54L4.29725 260.032C6.2484 259.428 7.42968 260.214 8.73941 261.855L4.07036 263.54ZM155.164 230.937C158.901 229.691 162.962 229.844 166.595 231.367C167.678 231.71 168.781 231.985 169.898 232.192C172.633 232.855 175.235 233.979 177.593 235.516C180.52 237.236 183.526 238.831 186.528 240.367C193.011 243.459 199.57 246.397 206.041 249.535C206.987 250.218 207.819 251.048 208.505 251.993L208.109 252.651C207.53 252.633 206.952 252.574 206.38 252.476C198.338 250.597 190.293 248.659 182.272 246.852C180.83 246.535 179.297 246.583 177.848 246.371C175.159 245.958 172.512 245.498 169.822 245.057C167.674 244.691 165.513 244.147 163.361 243.917C155.081 243.036 146.923 241.261 139.025 238.624C136.531 237.831 133.994 237.182 131.426 236.681C126.353 235.728 121.205 235.155 116.163 234.035C111.12 232.916 106.584 231.398 101.288 229.897C102.122 229.502 102.665 229.026 103.203 229.043C108.601 229.194 114.17 229.435 119.623 229.91C122.386 230.136 125.094 230.98 127.873 231.415L144.67 234.399C145.956 234.64 147.236 234.955 148.525 235.226C153.33 236.244 158.125 237.254 162.908 238.254C163.571 238.353 164.238 238.415 164.907 238.438L165.029 237.906L149.514 233.222C151.721 232.285 153.444 231.626 155.164 230.937ZM90.9314 243.12C86.5027 243.518 82.009 243.281 77.5428 243.399C74.3538 243.444 71.0863 243.616 67.8682 243.857C65.4505 244.036 63.0315 244.378 60.6073 244.661C60.2543 244.719 59.8919 244.852 59.541 244.94C59.5577 244.596 59.6052 244.249 59.6386 243.918C65.9892 241.196 72.53 238.938 79.2084 237.165C79.6385 237.098 80.0645 237.009 80.4847 236.899C84.5709 235.326 88.9375 234.617 93.312 234.815C100.48 234.803 107.637 235.36 114.717 236.478C118.618 237.414 122.462 238.576 126.228 239.959C129.422 240.913 132.624 241.79 135.854 242.637C137.396 243.066 138.978 243.447 140.532 243.86L140.44 244.389L130.913 243.897L107.814 242.697C102.185 242.43 96.5413 242.572 90.9314 243.12ZM86.0741 248.237C86.5412 247.364 86.9157 246.633 87.4486 245.651L95.2533 245.118C92.6966 248.41 89.2866 247.742 86.0741 248.237ZM84.7047 246.213C82.2185 247.217 79.9452 249.01 76.9527 248.338C79.4802 247.674 81.6239 245.191 84.7047 246.213ZM141.903 227.401C142.416 227.285 143.064 227.368 143.43 227.099C145.493 225.458 147.564 226.367 149.696 226.913C151.828 227.458 153.507 228.115 155.42 228.723L155.463 229.256C151.08 230.054 146.891 231.761 142.322 231.708C144.771 230.065 147.894 229.936 150.334 228.368C150.308 228.185 150.269 228.004 150.216 227.825C149.852 227.743 149.478 227.713 149.105 227.735C145.953 228.42 142.786 229.12 139.652 229.848C138.968 229.995 138.309 230.244 137.697 230.585C136.61 231.18 135.72 230.863 134.492 230.229C136.79 228.887 139.294 227.932 141.903 227.401ZM131.493 227.62C132.933 227.191 134.331 226.636 135.672 225.959C137.912 224.497 140.094 225.113 142.417 225.987L128.86 229.576L128.632 228.967C129.548 228.476 130.511 228.027 131.493 227.62ZM134.308 225.322L127.802 227.154C126.955 227.401 126.129 227.69 125.349 227.827C124.786 228.045 124.185 228.144 123.582 228.117C116.058 226.947 108.406 226.835 100.851 227.784C99.9044 227.889 99.0109 228.289 98.1012 228.481C96.223 228.869 94.3286 229.244 92.4457 229.574C90.5624 229.903 89.3413 229.553 88.2947 231.203C87.8575 231.715 86.6969 231.748 85.9221 231.945L82.6378 232.848C79.8682 233.666 77.1592 234.672 74.3414 235.255C71.2875 236.049 68.321 237.15 65.4892 238.543C60.3917 240.817 55.1161 242.669 49.7164 244.084C49.1095 244.214 48.5236 244.432 47.9777 244.73C47.6635 244.904 47.3232 245.498 47.3535 245.689C47.5188 246.16 47.8467 246.558 48.2787 246.809C48.5663 247.054 49.1315 246.846 49.5921 246.824C52.1013 246.705 54.6008 246.415 57.0715 245.958C60.7996 245.406 64.5645 245.151 68.3323 245.193C71.6221 245.094 74.9181 245.279 78.8464 245.338C78.4195 245.753 77.9481 246.122 77.4423 246.435C75.7844 246.935 74.1745 247.577 72.6283 248.356C70.9711 249.362 69.0422 249.823 67.1093 249.677C62.7542 249.502 58.4085 249.252 54.0509 249.048C53.7177 249.077 53.3882 249.14 53.0661 249.232C54.1142 250.4 55.3678 250.226 56.4956 250.329C61.0973 250.797 65.7222 251.175 70.3201 251.583C70.4319 251.678 70.6871 251.703 70.8331 251.661C74.7796 250.272 78.803 250.966 82.8146 250.571C85.7795 250.334 88.8934 249.921 91.9275 249.799C94.9607 249.676 97.3519 249.917 100.126 249.905C103.802 249.805 107.467 249.557 111.114 249.267C112.282 249.101 113.434 248.835 114.555 248.47C113.615 247.142 112.628 247.489 111.722 247.547L95.9722 248.521C95.6161 248.549 95.258 248.548 94.6468 248.552C95.7112 247.304 96.475 246.407 97.3695 245.098C111.914 244.878 126.46 245.405 140.95 246.676C138.8 247.923 136.348 248.557 133.862 248.51C130.174 248.648 126.534 249.391 123.089 250.712C120.052 251.55 116.948 252.123 113.812 252.423C110.943 252.74 108.115 252.623 105.218 252.78C100.67 252.994 96.1487 253.34 91.5686 253.526C84.8402 253.706 78.0938 254.036 71.3756 253.781C65.7689 253.832 60.1855 253.067 54.7995 251.51C53.6178 251.151 52.3983 250.927 51.1667 250.845C47.0819 250.288 43.0705 249.287 39.2026 247.862C38.293 248.054 37.3836 248.246 36.2713 248.513L35.8592 250.456C27.7942 253.695 19.788 256.93 11.4924 260.278L8.70737 257.904C9.24971 257.572 9.81435 257.278 10.3972 257.024C15.4932 255.453 20.6489 254.072 25.6686 252.299C28.3196 251.141 30.9047 249.84 33.413 248.398C34.2646 247.842 35.2387 247.499 36.2517 247.399C37.2644 247.301 38.2865 247.448 39.2302 247.829C39.0306 247.686 38.8428 247.527 38.6697 247.353C38.5389 247.085 38.4226 246.81 38.3206 246.53C39.3518 245.806 40.5019 245.072 41.5712 244.272C42.5376 243.566 43.4586 242.8 44.327 241.978C46.1808 240.159 48.0167 238.297 49.8039 236.394C50.8132 235.21 51.8357 234.009 52.845 232.825C53.2245 232.497 53.637 232.209 54.0745 231.965L54.1834 231.838C54.2672 229.146 56.3373 227.429 57.749 225.482C59.7527 222.741 62.0561 220.2 64.3774 217.702C68.3473 213.045 72.3162 208.386 76.6398 204.059C79.2325 201.316 82.1376 198.885 85.2957 196.818C94.2005 191.199 103.309 185.893 112.577 180.335C112.115 182.016 111.166 183.525 109.85 184.67C105.614 189.348 101.418 193.786 97.2027 198.345C96.4384 199.24 95.7101 199.836 94.2632 199.459C93.6358 199.255 92.8153 199.634 92.079 199.753L91.8174 199.281C92.9094 198.388 94.0497 197.537 95.1218 196.571C96.1934 195.605 97.1006 194.638 98.1381 193.615C97.3153 192.472 96.5551 192.847 95.8451 193.485C93.3377 195.714 90.7937 197.856 88.3828 200.168C83.4871 204.809 78.7387 209.604 73.809 214.19C70.6005 217.176 67.1784 219.896 63.9038 222.797C60.454 225.52 57.2463 228.536 54.3157 231.811L54.2478 231.892L57.0894 231.8C59.5229 228.582 62.4827 225.797 65.8458 223.567C70.5765 219.951 74.9976 215.946 79.061 211.592C80.6843 209.688 82.5146 210.004 84.9966 210.268C83.847 211.569 82.6311 212.811 81.3556 213.989C79.4127 215.621 77.2705 217.001 75.3434 218.647C72.34 221.199 69.4987 223.917 66.5111 226.482C64.8905 227.865 63.0629 229.07 61.3467 230.371C60.095 231.321 58.8748 232.299 57.6389 233.263C55.1695 235.219 52.6341 237.093 50.2309 239.135C48.9186 240.254 49.0935 240.762 50.309 241.605C54.2235 239.994 57.914 238.387 61.6799 236.983C66.1848 235.295 70.8173 233.717 75.4024 232.098C76.9946 231.329 78.7798 231.05 80.5303 231.3C80.8276 231.346 81.1312 231.327 81.4205 231.244C81.7098 231.162 81.9783 231.018 82.207 230.824C85.2233 227.868 89.1843 226.656 93.4941 225.327C92.8543 227.214 90.9028 226.877 90.1205 228.476C104.548 224.827 119.508 223.759 134.308 225.322ZM147.055 212.698C146.823 212.97 146.715 213.486 146.387 213.482C144.687 213.966 142.957 214.337 141.209 214.596C135.424 215.434 129.744 216.882 124.264 218.918C122.959 219.322 121.616 219.594 120.257 219.731C127.509 216.277 135.144 213.694 143.004 212.037C143.896 213.129 144.891 212.513 145.867 212.211L144.267 210.847L148.599 210.173C149.203 210.13 149.805 210.042 150.397 209.91C157.691 207.836 164.965 206.271 172.278 204.627C173.581 204.33 175.038 204.631 176.365 204.435C177.724 204.185 179.067 203.853 180.387 203.443C178.628 204.732 176.592 205.589 174.441 205.946C172.271 206.316 170.134 206.861 168.052 207.575C168.49 208.943 169.353 209.291 170.212 209.03C172.345 208.247 174.653 208.063 176.883 208.497C177.146 208.514 177.407 208.446 177.628 208.303C179.155 207.674 180.612 206.889 181.975 205.957C184.807 203.673 188.341 203.092 191.528 201.719C194.715 200.345 198.082 199.734 200.934 197.716C201.613 197.243 202.695 197.336 203.515 197.151C204.399 196.128 205.397 195.208 206.488 194.408C209.216 192.892 212.096 191.588 214.927 190.243C215.114 190.166 215.316 190.13 215.518 190.14C215.719 190.15 215.916 190.204 216.095 190.299C217.136 191.186 217.995 190.73 218.603 189.949C221.767 185.849 226.481 184.175 230.956 182.295C238.531 179.081 246.25 176.182 253.918 173.183C254.561 172.902 255.227 172.674 255.907 172.502C262.767 170.73 269.517 168.556 276.123 165.994C279.732 164.661 283.523 163.885 287.366 163.694C286.053 164.62 284.788 165.587 283.455 166.469C282.123 167.35 281.123 167.714 280.113 168.511C276.203 171.34 272.012 173.759 267.606 175.73C263.945 177.216 260.468 179.121 257.244 181.405C255.952 182.308 254.545 183.031 253.06 183.559C247.546 186.043 242.025 188.468 236.494 190.938C230.327 193.899 223.965 196.435 217.454 198.53C211.669 200.26 205.841 201.814 199.993 203.295C198.326 203.727 196.327 203.156 194.859 203.839C193.422 204.708 191.915 205.457 190.354 206.079C186.049 207.273 181.795 208.731 177.414 209.558C171.537 210.683 165.653 212.272 159.569 211.371C159.226 211.283 158.865 211.291 158.527 211.394C154.91 212.931 150.924 213.385 147.055 212.698ZM263.566 241.526C257.996 241.09 252.423 240.595 246.834 240.117C240.656 239.376 234.552 238.111 228.587 236.338C226.485 235.79 224.31 235.456 222.197 234.953C215.561 233.697 208.857 232.837 202.121 232.379C197.066 231.824 192.114 230.562 187.41 228.631C184.588 227.468 182.003 225.735 179.307 224.295C175.035 222.063 170.533 220.301 165.88 219.042C162.093 217.942 158.236 217.086 154.507 216.176C154.036 216.049 153.573 215.877 152.563 215.54C153.183 215.289 153.819 215.073 154.465 214.896C154.994 214.794 155.574 214.957 156.036 214.771C160.666 212.969 165.194 214.561 169.76 215.137C175.141 215.826 180.544 216.424 185.947 217.022C189.392 217.388 192.833 217.696 196.857 218.03C196.297 218.413 195.698 218.736 195.07 218.994C193.617 219.274 192.186 219.662 190.791 220.156C188.245 221.168 185.415 221.213 182.835 220.284C178.27 219.156 173.869 217.838 169.386 216.614C169.111 216.546 168.752 216.709 168.015 216.828C168.398 217.26 168.84 217.637 169.328 217.946C172.638 219.054 175.976 220.13 179.315 221.206C180.784 221.685 182.271 222.178 183.747 222.718C187.71 224.161 192.003 223.565 196.019 224.527C199.357 225.215 202.729 225.728 206.121 226.063C206.711 226.195 207.288 226.374 207.849 226.596C208.338 226.736 208.875 227.111 209.283 226.989C211.995 226.205 214.53 227.316 216.925 227.975C219.804 228.714 222.716 229.317 225.595 230.058C227.088 230.446 228.505 231.019 230.021 231.509C230.731 229.931 230.755 229.675 229.075 229.183C226.415 228.381 223.643 227.841 220.922 227.208L215.22 225.664C215.703 225.137 216.259 224.681 216.871 224.309C219.082 223.15 221.65 222.87 224.058 223.526C228.136 224.901 232.187 226.309 236.141 227.992C238.673 229.073 241.05 230.629 243.576 231.814C245.38 232.673 247.243 233.402 249.151 233.994C251.569 234.757 254.004 235.367 256.487 236.02C257.396 236.35 258.279 236.744 259.133 237.196C260.941 238.056 262.741 238.926 264.533 239.807C265.013 240.089 265.473 240.406 265.906 240.757L265.791 241.184C265.06 241.359 264.316 241.473 263.566 241.526ZM242.177 151.132C241.949 151.627 241.888 152.184 241.615 152.311C240.011 153.154 238.387 153.926 236.795 154.724C236.059 155.036 235.125 155.842 234.591 154.587C234.058 153.332 234.995 152.914 235.852 152.622C237.812 151.943 239.658 150.587 242.177 151.132ZM134.919 170.003C139.208 169.86 143.471 169.27 147.637 168.241C149.49 167.721 151.353 167.124 153.201 166.738C158.166 165.744 163.043 164.357 167.788 162.591C175.79 159.916 183.395 156.172 190.394 151.462C191.181 150.927 191.851 150.239 192.366 149.44C192.654 148.761 192.813 148.036 192.836 147.298C192.111 147.177 191.351 146.806 190.692 146.962C186.162 147.965 181.596 148.883 177.17 150.25C175.022 150.995 172.79 151.469 170.525 151.661C166.611 151.779 162.904 152.985 158.898 152.335C158.656 152.295 158.384 152.421 158.132 152.456C154.601 153.066 151.079 153.795 147.517 154.214C142.653 154.766 137.752 155.038 132.838 155.52C130.483 155.723 128.109 155.882 125.799 156.291C122.807 156.952 119.75 157.276 116.687 157.257C114.497 157.192 112.306 157.263 110.124 157.468C106.476 157.729 102.818 158.065 99.1465 158.418C96.884 158.595 94.6317 158.888 92.3995 159.3C88.7293 160.04 85.1184 160.971 81.4691 161.784C81.4691 161.784 81.2289 161.579 80.957 161.348C81.306 160.974 81.6881 160.633 82.099 160.331C86.4727 157.566 90.8788 154.827 95.2007 152.154C100.338 148.743 106.368 146.922 112.535 146.922C116.729 146.96 120.94 146.624 125.194 146.657C129.448 146.691 134.033 147.309 138.462 147.299C142.891 147.288 147.886 146.874 152.593 146.604C154.94 146.476 157.302 146.168 159.647 146.204C165.194 146.277 170.737 145.871 176.213 144.986C177.864 144.658 179.483 144.19 181.054 143.585C183.029 142.92 184.927 142.023 186.916 141.342C191.968 139.596 197.038 137.893 202.095 136.207C203.593 135.714 205.126 135.308 206.587 134.729C209.997 133.353 213.387 131.904 216.764 130.471C220.14 129.038 223.403 127.674 226.685 126.188C227.822 125.665 229.121 125.113 229.237 123.582C227.464 121.74 227.461 121.711 225.389 122.1C224.183 122.316 223.003 122.663 221.892 122.96C218.6 123.582 215.393 124.33 212.126 124.889C209.464 125.406 206.769 125.742 204.061 125.891C198.019 126.074 191.979 125.9 185.951 126.069C178.867 126.276 171.782 126.678 164.711 127.033C161.308 127.201 157.902 127.338 154.505 127.759C149.197 128.411 143.919 129.201 138.672 130.127C134.701 130.832 130.851 131.751 126.871 132.725C125.025 133.14 123.172 133.661 121.33 134.137L121.064 133.606C122.009 132.919 122.987 132.289 123.897 131.545C129.346 127.097 135.42 123.475 141.925 120.797C142.892 120.38 143.836 119.911 144.752 119.393C149.243 116.976 153.67 114.504 158.164 112.117C162.359 109.917 166.592 107.804 170.839 105.704C172.361 104.956 173.753 103.711 175.728 104.345C176.064 104.437 176.544 104.1 176.949 103.949C178.829 103.008 180.809 102.208 182.899 101.475C184.44 100.826 186.047 100.342 187.691 100.033C193.946 99.1432 200.321 99.6751 206.343 101.587C209.338 102.482 212.455 103.038 215.473 103.841C217.12 104.071 218.705 104.624 220.138 105.468C222.519 107.083 225.049 108.492 227.578 109.901C230.71 111.293 233.574 113.22 236.043 115.596C236.253 115.872 236.521 116.1 236.827 116.264C240.562 118.01 244.274 119.846 248.054 121.409C253.646 123.633 259.344 125.669 265.013 127.738C269.529 129.376 274.099 130.921 278.627 132.513C279.533 132.844 280.415 133.236 281.346 133.505C285.38 134.704 289.471 135.676 293.404 137.122C295.634 137.943 298.275 138.15 299.828 140.413C300.101 140.645 300.619 140.783 301.031 140.913C303.112 141.553 305.207 142.206 307.326 142.769C308.04 143.063 308.822 143.156 309.585 143.035C310.585 142.724 311.664 142.781 312.626 143.195C313.19 143.344 313.868 143.066 314.505 143.001C314.471 142.335 314.343 141.677 314.125 141.047C313.797 140.64 313.395 140.298 312.941 140.038C310.268 137.759 307.61 135.496 304.937 133.217C303.744 131.827 302.472 130.504 301.13 129.255C298.316 127.187 295.242 125.496 291.987 124.227C284.821 121.362 278.099 117.493 272.02 112.738C271.684 112.452 271.348 112.165 271.093 111.783C268.275 109.188 265.59 106.375 262.582 104.004C254.936 98.2624 246.277 94.0143 237.057 91.482L236.305 91.2287C230.714 89.4203 224.947 88.2103 219.101 87.6204C218.528 87.5459 217.982 87.4409 216.999 87.2652C217.427 86.9096 217.88 86.5844 218.354 86.2922C222.112 84.6049 225.869 82.8881 229.648 81.2728C233.428 79.6588 237.856 78.1265 241.752 76.1152C246.288 73.6613 250.401 70.4966 253.938 66.7437C254.648 65.9734 255.451 65.2931 256.327 64.7178C260.223 62.3186 264.101 59.8759 268.102 57.6768C272.516 55.1716 276.524 52.0095 279.988 48.2992C280.664 47.4932 281.42 46.758 282.245 46.1054C287.103 42.6504 292.272 39.6557 297.687 37.16C301.24 35.5188 304.589 33.3716 308.076 31.4526C308.304 31.3414 308.506 31.1845 308.671 30.9917C308.835 30.7989 308.959 30.5747 309.033 30.3322C309.108 30.0901 309.131 29.8351 309.103 29.5832C309.075 29.3313 308.995 29.0877 308.869 28.868C308.387 27.877 307.412 28.1791 306.572 28.3203C304.833 28.5784 303.11 28.8505 301.374 28.9743C297.267 29.2872 293.115 29.2306 289.077 29.8515C284.332 30.588 279.676 31.87 274.976 32.9763C270.942 33.7969 266.988 34.9663 263.156 36.4705C259.398 38.1571 255.829 40.2371 252.509 42.6762C245.725 47.3945 238.822 51.929 231.935 56.4764C229.584 58.0373 227.111 59.3826 224.535 60.946C225.195 59.6848 225.805 58.547 226.401 57.4258C228.435 52.9566 231.062 48.7827 234.212 45.0168C235.891 43.0946 237.383 41.0172 238.67 38.8133C238.875 38.454 239 38.0544 239.036 37.6421C239.073 37.2301 239.02 36.8145 238.882 36.4245C238.407 35.5226 237.346 35.8613 236.523 36.2103C235.859 36.4602 235.225 36.7811 234.63 37.1667C230.649 40.1847 226.618 43.1322 222.698 46.3393C220.526 48.1086 218.736 50.3406 216.633 52.223C213.473 55.0566 210.251 57.6712 206.972 60.3196C206.767 60.5598 206.464 60.6878 205.872 61.1235L206.059 59.5421C206.734 56.6407 207.102 53.6759 207.158 50.698C207.179 50.0047 207.338 49.3228 207.624 48.6906C208.025 47.5408 208.653 46.4461 208.949 45.2884C210.327 40.7497 212.166 36.3639 214.438 32.2001C215.969 29.0843 217.442 25.9284 218.858 22.7325C221.512 16.9935 224.993 11.6748 229.189 6.94527C230.553 5.34479 231.847 3.4362 234.199 3.1741C234.52 0.851091 234.24 0.142542 232.966 0.438253C229.521 1.14359 226.238 2.4884 223.287 4.40309C219.687 7.06487 216.568 10.321 214.061 14.0308C212.395 16.3014 210.254 18.1825 207.788 19.5438C203.824 21.6479 200.515 24.8022 198.223 28.6613C195.75 33.1848 193.277 37.7084 191.162 42.427C189.364 46.2555 187.968 50.2603 186.272 54.4238C185.297 50.6085 184.311 47.2259 183.497 43.7704C181.948 37.0612 177.913 31.7444 173.795 26.4945C170.189 22.3003 167.023 17.75 164.341 12.9132C162.699 9.71783 160.769 6.66443 158.899 3.60668C158.537 2.99392 157.588 2.12987 157.298 2.24232C156.494 2.65965 155.826 3.29788 155.371 4.08189C155.048 4.7044 154.868 5.39187 154.847 6.09333C154.655 8.10547 154.955 10.1344 155.72 12.005C157.025 15.6305 158.423 19.3083 159.571 23.0502C161.489 29.6061 164.075 35.948 167.288 41.9763C170.337 47.5441 172.372 53.6098 173.298 59.8898C174.031 65.8887 174.11 71.9499 173.533 77.9665C173.525 80.9487 173.1 83.9149 172.267 86.7794C171.812 87.9936 171.741 89.342 171.38 90.6093C171.18 91.3551 170.823 92.0497 170.334 92.6468C164.895 98.7052 157.727 102.156 150.117 106.061C150.609 104.932 150.858 104.316 151.155 103.74C152.965 100.254 154.821 96.7793 156.6 93.2667C158.559 89.4101 160.454 85.4993 162.303 81.7417C162.741 80.8719 163.288 80.0674 163.634 79.1741C164.293 77.5253 163.762 76.8521 162.042 76.9892C161.479 77.0343 160.916 76.8852 160.338 76.9457C159.762 77.0066 158.881 77.003 158.449 77.3802C156.829 78.7624 155.255 80.3509 153.725 81.9192C152.194 83.4884 151.242 84.8323 149.807 86.0959C143.669 91.6133 137.493 97.0437 131.32 102.504C130.844 103.065 130.089 103.334 129.001 104.091L129.555 102.63C131.619 97.4531 135.107 93.1324 137.796 88.3233C139.674 85.2488 141.333 82.0455 142.759 78.7373C143.81 75.9588 145.071 73.2651 146.532 70.6787C148.191 68.0837 149.318 65.1839 149.849 62.1497C150.171 59.275 150.539 56.4114 150.818 53.5545C151.307 48.8315 151.781 44.1243 152.18 39.4082C152.672 35.1219 151.985 30.7826 150.194 26.8572C149.781 26.0936 149.559 25.2406 149.548 24.3728C149.548 23.4015 149.29 22.448 148.801 21.6087C148.312 20.7704 147.61 20.0765 146.765 19.597C145.404 18.4379 143.776 19.1499 143.505 20.9917C143.34 22.3739 143.326 23.771 143.464 25.1564C143.835 27.3975 143.76 29.69 143.242 31.9023C142.688 33.7509 142.135 35.6007 141.364 37.3472C140.711 39.1873 139.933 40.9784 139.033 42.7109C136.43 47.2892 133.669 51.7611 131.096 56.3377C128.522 60.9138 126.382 65.1122 123.901 69.5471C119.945 76.4947 117.224 84.0757 115.859 91.9536C115.371 94.6333 114.748 97.2792 114.29 99.9559C114.025 101.498 114.048 103.093 113.888 104.642C113.84 107.71 113.146 110.734 111.852 113.517C110.842 115.267 109.994 117.108 109.323 119.014C108.585 121.447 107.464 123.748 106.003 125.828C104.806 127.838 103.423 129.73 101.874 131.483C98.3639 134.921 95.0636 138.568 91.9904 142.402C91.016 143.381 89.9345 144.248 88.7663 144.986C88.0764 145.504 87.238 145.839 86.4998 146.316C82.8274 148.712 79.1872 151.136 75.5311 153.546C75.2303 153.681 74.9202 153.796 74.6036 153.889C74.689 153.251 74.8285 152.62 75.02 152.006C76.3671 148.512 77.6504 144.963 79.1662 141.531C81.718 135.748 84.441 130.056 87.0566 124.328C87.606 123.134 88.0512 121.895 88.3873 120.626C89.7571 115.549 90.7914 110.379 92.4832 105.411C93.7934 101.945 94.5784 98.3024 94.813 94.6033C95.0398 87.1719 94.9981 79.7305 95.0609 72.2966C95.0772 70.8183 95.2551 69.3129 95.123 67.8468C94.7232 63.5819 94.1541 59.2563 93.7152 55.0703C93.4019 52.4548 93.0158 49.8604 92.6159 47.2817C92.4324 46.1028 91.5798 45.5145 90.8383 46.1251C89.0311 47.5976 86.5997 48.3433 85.6463 50.7916C85.0651 51.8723 84.4158 52.9158 83.7028 53.9154C81.6489 57.2351 79.8214 60.6906 78.2334 64.2571C76.8092 68.4739 75.6678 72.7817 74.8172 77.15C73.9142 81.1603 73.4492 85.2404 72.5026 89.2696C70.7479 96.0624 68.8806 102.761 66.7629 109.493C65.2196 113.712 63.9147 118.015 62.8542 122.381C62.2969 125.304 61.3607 128.154 60.7715 131.05C59.9597 134.1 59.4793 137.23 59.3388 140.383C59.3309 146.176 58.7734 151.955 57.6734 157.642C56.6283 164.193 53.2522 170.148 48.1665 174.408C47.3555 175.078 46.5861 175.797 45.8623 176.56C41.2987 181.625 36.7698 186.745 32.1906 191.794C29.0803 195.25 25.8713 198.594 22.729 202.022C21.9933 202.838 21.5703 203.888 21.535 204.986C21.5001 206.083 21.8547 207.158 22.5365 208.019C26.0257 210.993 31.6383 211.41 34.2587 207.233C35.3825 205.428 36.6817 203.579 37.9562 201.791C39.0957 200.016 40.3844 198.341 41.8082 196.784C44.5309 194.076 47.5116 191.615 50.3487 189.032C51.5862 187.904 52.7622 186.751 53.9837 185.609C58.2059 181.692 62.0116 177.226 67.988 175.659C70.8115 174.498 73.7352 173.595 76.7232 172.963C82.6374 172.433 88.5797 172.282 94.5139 172.513C100.555 172.687 106.602 172.636 112.656 172.362C118.353 172.364 124.038 171.875 129.65 170.901C131.386 170.466 133.153 170.171 134.936 170.016L134.919 170.003ZM128.324 157.834L128.624 157.676C132.105 157.354 135.575 157.106 139.019 156.697C145.592 155.889 152.237 155.776 158.761 154.54C162.42 153.845 166.195 153.856 169.898 153.53L170.029 154.221C167.045 154.966 164.079 155.756 161.109 156.485C158.139 157.214 155.799 157.983 153.155 158.492C149.917 159.049 146.775 159.494 143.564 160.019C140.355 160.543 137.583 161.138 134.582 161.676C133.304 161.913 131.954 162.199 131.488 160.282C130.187 160.997 128.316 160.341 128.022 162.275C126.804 162.341 125.522 163.1 124.13 161.914C125.254 161.436 126.229 160.94 127.16 160.627C127.439 160.548 127.7 160.411 127.924 160.225C128.147 160.04 128.331 159.81 128.462 159.55C128.592 159.289 128.667 159.005 128.683 158.715C128.698 158.424 128.653 158.133 128.55 157.861L128.299 157.896C126.465 158.848 124.645 159.784 122.81 160.707C122.714 160.819 122.379 160.532 122.147 160.446L121.931 160.537C121.084 161.143 120.183 161.811 119.393 162.381L119.076 161.78C120.029 161.375 120.979 160.942 121.931 160.537C121.931 160.537 122.067 160.377 122.122 160.313C123.655 158.028 126.048 158.106 128.34 157.848L128.324 157.834ZM117.398 159.244C118.144 158.886 119.157 159.058 120.033 159.003L120.204 159.646L112.914 162.884L112.469 162.173C114.134 161.16 115.719 160.079 117.413 159.258L117.398 159.244ZM113.792 158.935C111.513 161.071 108.698 162.548 105.646 163.21C106.385 162.763 107.123 162.287 107.895 161.868C108.668 161.447 109.629 160.968 109.277 159.564L113.792 158.935ZM174.833 128.448C182.699 128.685 190.6 128.07 198.443 128.205C203.159 128.243 207.871 127.917 212.537 127.228C214.395 126.961 216.235 126.456 218.13 126.275C215.442 128.006 212.368 129.041 209.181 129.286C206.216 129.523 203.076 129.609 200.047 129.791C198.295 129.902 196.562 130.055 194.831 130.238C187.466 131.034 180.09 131.877 172.74 132.688C172.294 132.691 171.847 132.661 171.405 132.601C172.046 131.849 172.455 131.368 173.179 130.52C169.305 130.396 166.673 133.485 162.592 133.378C166.625 130.655 170.018 128.295 174.833 128.448ZM155.06 129.475C156.187 129.428 157.318 129.467 158.44 129.592C158.44 129.592 158.536 129.481 158.59 129.416C160.72 128.895 162.93 128.789 165.099 129.106C161.81 131.998 157.639 133.693 153.266 133.915C154.76 133.004 156.142 132.193 157.522 131.352C158.246 130.891 159.076 130.467 158.549 129.465L158.386 129.463C155.105 131.172 151.856 132.878 148.527 134.546C147.361 135.182 146.021 135.425 144.704 135.239C145.681 134.127 146.93 133.287 148.329 132.802C149.122 132.455 150.296 132.212 150.558 131.579C151.652 129.583 153.372 129.639 155.06 129.475ZM145.002 138.035C149.031 137.683 152.95 136.878 156.914 136.249C158.815 135.963 160.739 134.839 162.516 136.741C162.757 136.946 163.71 136.735 164.178 136.444C165.609 135.556 167.242 135.047 168.923 134.962C173.897 134.475 178.871 133.989 183.818 133.37C188.767 132.751 193.725 131.892 198.847 131.394C201.33 131.106 203.86 131.218 206.761 131.12C206.229 131.551 206.12 131.873 205.849 131.835C199.62 132.854 194.035 135.776 188.17 137.795C182.205 140.119 175.98 141.709 169.632 142.528C167.083 142.731 164.445 142.584 161.934 142.71C155.797 143.006 149.723 143.356 143.538 143.612C139.827 143.654 136.081 143.447 132.247 143.439C127.365 143.396 122.488 143.412 117.54 143.091C121.736 142.026 126.01 141.192 130.058 139.944C134.994 138.237 140.006 138.419 144.938 137.981L145.002 138.035ZM111.696 139.217C114.797 138.074 118.071 137.41 121.282 136.528C126.903 134.885 132.607 133.538 138.369 132.493C141.565 131.985 144.735 131.507 147.918 131.015L147.978 131.397C145.393 132.843 142.776 134.259 140.169 135.795C139.777 135.969 139.349 136.049 138.919 136.029C134.589 135.793 130.643 137.376 126.564 138.403C121.766 140.021 116.866 141.319 111.897 142.289C109.156 142.716 106.624 143.322 103.932 143.984C99.9772 144.878 96.376 146.926 93.5856 149.867C93.05 150.349 92.4702 150.78 91.8536 151.154C87.1239 154.5 82.377 157.833 77.7406 161.232C74.7933 163.387 71.5723 165.138 68.162 166.441C68.3608 165.982 68.6113 165.547 68.9083 165.144C71.8361 162.389 74.7637 159.635 77.7557 156.934C78.8542 155.937 80.134 155.148 81.3288 154.232C84.1121 152.1 86.8483 149.928 89.5997 147.768C90.81 146.866 91.8514 145.515 93.7781 146.107C94.2527 146.264 94.9519 145.864 95.5146 145.625C100.921 143.464 106.227 141.16 111.632 139.163L111.696 139.217ZM235.653 98.9336C237.881 98.0693 240.158 97.2464 242.418 96.4094C243.648 95.9384 244.519 96.5703 245.596 97.3491C241.867 98.482 238.303 99.4233 234.656 100.46L234.403 99.9134C234.777 99.5354 235.197 99.2066 235.653 98.9336ZM217.866 91.0152C220.024 91.1412 222.135 91.6146 224.188 91.9279L225.153 91.672L229.488 92.9069L229.707 92.8442L229.802 92.9267C233.655 93.2572 237.433 94.1677 241.013 95.6267C239.855 96.0776 239.138 96.4326 238.379 96.6429C235.264 97.1449 232.201 97.9291 229.227 98.9844C228.97 99.1243 228.481 98.7904 227.824 98.5892C229.994 96.6253 233.073 97.2598 234.892 95.1904C230.817 94.9791 227.166 96.8957 223.272 97.4464L223.049 96.8966C224.19 96.4329 225.245 96.0058 226.441 95.4776C227.638 94.949 228.558 94.7114 229.594 94.2409C230.631 93.7707 230.183 93.3881 229.901 92.8438L229.773 92.7345C228.043 93.3057 226.297 93.8628 224.565 94.4042C222.833 94.9446 221.065 95.5935 219.344 96.0886C218.98 96.1923 218.566 96.0612 218.033 95.5518C219.642 94.9605 221.2 94.2993 222.816 93.7976C223.377 93.7155 223.9 93.4715 224.323 93.0959C224.746 92.7204 225.051 92.229 225.199 91.6827C225.048 91.8585 224.732 92.0035 224.536 91.9745L224.188 91.9279C222.214 92.4286 220.255 92.9126 218.285 93.4736C217.029 93.8122 215.818 94.3267 214.53 94.638C214.016 94.6493 213.502 94.585 213.008 94.446L212.965 93.9125C214.002 93.4423 215.081 92.953 216.077 92.5301C216.079 92.3721 216.066 92.2128 216.039 92.0559C215.534 91.912 215.01 91.8378 214.485 91.8375C213.131 92.0652 211.841 92.347 210.409 92.7296C209.514 92.8797 208.597 92.8351 207.721 92.5991C206.845 92.3621 206.03 91.9396 205.332 91.3596C205.863 91.0938 206.138 90.8032 206.424 90.825C210.166 90.8091 214.049 90.8573 217.838 91.0477L217.866 91.0152ZM260.034 40.1364C266.357 37.1073 273.105 35.0595 280.045 34.0633C283.365 33.4106 286.793 32.6293 290.044 32.0567C294.011 31.4862 297.991 31.2582 302.052 30.9338L302.287 31.6311C300.686 32.7222 299.016 33.708 297.287 34.5814C289.493 38.0128 282.114 42.3202 275.294 47.4208C274.167 48.2566 273.258 49.3884 272.07 50.1995C269.324 52.0594 266.601 53.8284 263.647 55.5112C258.523 58.4026 253.702 61.801 249.257 65.6556C247.187 67.2546 245.017 68.7185 242.759 70.0375C242.168 70.411 241.551 70.7443 240.914 71.0351C238.174 72.4026 235.384 73.6996 232.705 75.0918C230.027 76.484 227.154 77.8767 224.554 79.5024C221.37 81.5457 217.9 83.1048 214.257 84.1281C211.905 84.7483 209.689 85.7607 207.381 86.5572C206.76 86.7322 206.126 86.8582 205.487 86.9315C205.695 86.3137 206.032 85.7471 206.474 85.267C206.916 84.7873 207.454 84.4052 208.053 84.146C213.804 80.315 219.687 76.6535 225.319 72.6384C229.368 69.7346 232.983 66.2382 236.98 63.234C239.274 61.5143 241.902 60.2454 244.364 58.7514C246.42 57.6083 248.411 56.3538 250.33 54.9933C254.858 51.6371 259.737 48.7817 264.88 46.4768C267.776 45.1867 270.642 43.8988 273.538 42.8025C276.434 41.7061 278.808 40.8005 281.364 39.746C282.435 39.3323 283.512 38.8136 284.524 38.4047C286.705 37.4999 288.962 36.4395 291.242 35.4816C291.897 35.1384 292.529 34.7542 293.134 34.3309C292.634 33.9512 292.035 33.7264 291.408 33.6836C290.782 33.6407 290.157 33.7822 289.609 34.0902C285.281 35.9277 280.952 37.7649 276.623 39.6021C271.669 41.8179 266.809 44.2795 261.838 46.4813C253.072 50.2842 245.428 56.0111 237.223 60.679C234.883 62.2265 232.682 63.9746 230.644 65.9026C227.924 68.0897 225.255 70.3458 222.456 72.4641C219.179 74.949 215.77 77.2937 212.41 79.6808C212.066 79.8888 211.707 80.0728 211.336 80.2295L211.141 79.8415C212.625 78.5154 214.016 77.0885 215.305 75.5713C216.609 73.8235 217.758 71.9643 218.739 70.0162C219.777 68.086 221.214 66.3998 222.954 65.0695C232.197 58.0787 241.789 51.5622 251.693 45.5457C254.299 43.622 257.004 41.6161 260.034 40.1364ZM193.412 88.3581C193.903 87.7819 195.674 88.1033 196.858 88.1727C198.24 88.2774 199.614 88.462 200.975 88.7242C202.025 88.9553 203.065 89.2406 204.086 89.579C202.988 90.4285 201.724 91.0378 200.376 91.3691C199.028 91.7008 197.625 91.7456 196.259 91.5019L195.876 90.0711C194.334 89.448 193.105 90.3065 191.777 90.6665C190.447 91.0261 189.463 91.9551 187.747 91.0183C188.421 90.6808 188.843 90.5425 189.211 90.3049C190.507 89.53 192.182 89.7689 193.304 88.3218L193.412 88.3581ZM217.5 53.9297C220.713 51.0026 223.744 47.8667 226.858 44.8283C229.371 42.1452 232.442 40.0461 235.855 38.6802C235.695 39.1427 235.491 39.5888 235.245 40.0118C233.305 42.6133 231.33 45.1578 229.39 47.7592C228.568 48.7751 227.831 49.8566 227.186 50.993C223.545 57.7731 219.251 64.1818 214.363 70.1266C214.096 70.3574 213.867 70.6269 213.681 70.9273C211.858 75.5634 208.2 78.6892 204.817 82.1067C203.762 83.3341 202.472 84.3397 201.026 85.0653C200.3 85.2666 199.551 85.3717 198.798 85.3773L198.669 84.8808C199.228 84.2244 199.87 83.6654 200.511 83.1072C203.355 80.2575 205.669 76.9256 207.349 73.2676C208.377 71.3803 209.948 69.7633 211.113 67.9098C213.626 64.016 216.411 60.3045 219.445 56.8028C219.541 56.6901 219.495 56.4853 219.532 56.0196C219.099 56.225 218.678 56.458 218.275 56.7163C213.9 59.8413 211.455 64.7196 208.113 68.6412C206.222 71.043 204.57 73.6234 203.179 76.3456C202.448 78.0278 201.232 79.4547 199.687 80.4431C200.711 78.3325 201.814 76.2604 202.7 74.0867C203.423 72.4218 203.975 70.6884 204.346 68.9123C204.739 66.2902 206.042 63.8893 208.026 62.1301C211.07 59.3352 214.399 56.7578 217.5 53.9297ZM203.877 52.7645C202.655 58.3811 201.373 64.0038 200.199 69.6619C199.411 75.0256 196.934 79.9992 193.128 83.8612L189.109 83.973C190.312 81.7808 191.402 79.5275 192.375 77.2226C193.467 74.2866 194.252 71.225 195.145 68.2001C196.205 64.7945 197.209 61.3577 198.156 57.8902C198.358 57.1312 198.713 56.4215 199.199 55.8057C199.687 55.1894 200.295 54.6801 200.987 54.3083C201.9 53.6911 202.762 53.0034 203.567 52.2523C203.76 52.4158 203.952 52.5797 203.877 52.7645ZM205.687 47.3986C205.379 48.408 205.155 49.1562 205.045 49.4486L199.352 52.8869C199.372 50.5286 201.199 50.427 202.175 49.5739C203.099 48.4854 204.365 47.743 205.766 47.4673L205.687 47.3986ZM207.603 41.8757C207.309 43.0624 207.087 44.199 206.725 45.4656C203.73 44.5716 202.702 47.9503 199.992 48.0172C202.104 45.6609 204.441 43.5157 206.97 41.6128L207.603 41.8757ZM193.518 47.6393C194.867 43.6561 196.81 39.9001 199.282 36.4983C200.645 34.7038 201.611 32.5979 202.83 30.6806C203.941 28.7939 205.16 26.973 206.482 25.2274C207.504 23.9357 208.717 22.8077 210.079 21.8823C214.955 18.4457 219.179 14.168 222.555 9.25013C223.652 7.59772 225.209 6.30194 227.032 5.52161L227.363 5.94248C226.909 6.67939 226.385 7.37059 225.798 8.00696C221.872 11.7067 219.682 16.6101 217.292 21.2318C214.901 25.8531 212.473 30.94 210.117 35.8122C209.464 37.1622 208.964 38.5597 208.413 39.8866C205.449 40.1232 203.932 42.4223 201.453 43.7093C201.357 42.687 201.38 42.0441 202.27 41.421C204.066 40.1886 205.702 38.8199 207.403 37.5057C207.711 37.18 208.003 36.8381 208.276 36.4812C207.955 36.2084 207.668 35.9631 207.47 36.0983C203.854 37.7145 200.33 39.3534 199.143 43.7288C198.262 46.7515 197.651 49.8458 197.315 52.9753C196.949 55.7252 196.331 58.4362 195.47 61.073C193.947 66.1027 192.411 71.1486 190.671 76.0753C190.055 77.6883 189.353 79.2677 188.573 80.8082L188.021 80.8077C187.819 80.3308 187.375 79.8147 187.444 79.3763C187.727 77.6419 188.103 75.9242 188.57 74.2296C189.328 70.9081 189.692 67.5098 189.656 64.1033C189.801 61.7399 190.178 59.3968 190.783 57.1062C191.487 53.9208 192.382 50.7808 193.463 47.7034L193.518 47.6393ZM176.957 41.8157C176.465 39.9601 178.076 39.2053 178.792 37.5229C179.709 39.6573 179.5 40.0316 176.93 41.8486L176.957 41.8157ZM175.858 89.1478C176.731 87.2544 177.704 85.4091 178.773 83.6199C178.514 83.5652 177.994 83.3982 177.154 83.1522C177.126 80.3644 177.167 77.3329 177.258 74.3719C177.39 70.9751 177.729 67.5621 177.695 64.1336C177.443 59.3946 176.307 54.7452 174.347 50.4226C171.523 43.0699 168.495 35.7937 165.446 28.4436C164.946 27.2154 164.231 26.1089 163.63 24.9338C160.925 19.2365 158.904 13.2385 157.609 7.06586C157.543 6.79687 157.539 6.51605 157.598 6.24551C157.656 5.97455 157.776 5.72067 157.946 5.50239C158.846 7.23575 159.818 8.94839 160.744 10.6493C164.219 17.1677 168.379 23.2966 173.154 28.9325L174.147 30.1656C175.83 32.3736 175.736 32.3215 174.155 34.5655C173.499 35.4985 172.206 36.4971 173.446 38.3823C174.591 37.0376 175.6 35.8524 176.569 34.7168C177.667 35.0162 178.039 35.7479 177.351 36.295C174.591 38.5289 175.342 41.214 176.311 44.0011C177.783 48.3873 178.838 52.9039 179.461 57.4885C179.558 57.8251 179.635 58.1679 179.692 58.5146C179.97 66.2935 180.948 74.0628 180.033 81.8479C179.856 83.2508 179.593 84.6425 179.247 86.0129C179.036 86.9101 179.251 87.3699 180.407 87.2779C182.098 82.4495 182.706 77.308 182.189 72.2182C181.945 68.8064 181.868 65.3967 181.464 62.0126C180.96 58.1294 180.172 54.2539 179.491 50.3852C179.297 49.2586 179.014 48.149 178.644 47.0663C178.248 46.1315 178.202 45.0847 178.517 44.1192C178.832 43.1533 179.485 42.3342 180.358 41.813C181.225 43.8188 181.985 45.8701 182.638 47.9563C183.418 50.9965 183.979 54.0993 184.51 57.2048C184.715 58.4013 184.773 59.6199 184.681 60.8309C184.598 62.2254 185.381 63.2517 185.701 64.4636C186.19 66.5955 186.37 68.7871 186.236 70.9697C186.041 74.8942 185.665 78.7728 185.175 82.7202C184.925 83.6471 184.549 84.5359 184.059 85.3604C182.861 85.5006 181.512 85.4295 181.335 87.1292C181.157 88.8288 181.703 89.129 183.093 89.1519C183.784 89.0876 184.468 88.9588 185.135 88.7652C186.821 88.3632 188.555 88.1951 190.287 88.2643C189.143 88.5187 188.052 88.9745 187.067 89.6108C185.407 91.09 183.296 91.9688 181.076 92.1023C180.131 92.2379 179.342 92.6142 180.032 93.9759C182.21 93.7873 184.428 93.55 186.656 93.4323C189.153 93.2457 191.658 93.1851 194.16 93.2512C197.915 93.3602 201.659 93.6741 205.379 94.1896C208.468 94.7459 211.518 95.4988 214.51 96.4449C219.507 97.9403 224.553 99.4772 229.602 100.879C233.034 101.813 236.545 102.457 240.045 103.311C241.673 103.704 243.239 104.265 244.85 104.644C248.758 105.57 250.858 108.714 253.284 111.444C254.333 112.614 255.133 114.041 257.121 113.719L257.494 116.524C257.949 116.606 258.321 116.786 258.613 116.703C259.311 116.42 260.081 116.359 260.816 116.53C261.551 116.702 262.214 117.095 262.717 117.658C262.823 117.791 262.953 117.902 263.101 117.985C269.266 120.476 274.85 124.267 281.311 126.153C284.655 127.125 287.923 128.445 291.232 129.523C292.357 129.828 293.501 130.056 294.657 130.204C294.766 130.077 294.889 129.932 294.884 129.679C294.548 129.393 294.38 128.779 294.009 128.63C288.858 126.699 283.973 124.195 278.469 123.068C277.2 122.715 275.987 122.184 274.868 121.491C271.854 119.862 268.853 118.227 265.868 116.585C265.432 116.352 265.115 115.945 264.383 115.541L268.687 114.153C268.671 113.946 268.684 113.736 268.68 113.511C268.209 113.293 267.703 113.151 267.185 113.094C265.611 113.19 264.071 113.507 262.481 113.59C261.562 113.566 260.647 113.469 259.743 113.3C261.325 111.444 263.828 112.885 265.041 110.714C264.557 110.45 264.028 110.28 263.48 110.213C261.744 110.336 260.005 110.595 258.258 110.763C257.045 110.89 255.764 111.097 255.064 109.259L259.361 108.333C259.324 107.114 258.617 107.036 257.889 107.079C256.582 107.118 255.282 107.277 254.003 107.553C253.083 107.791 252.41 107.77 251.917 107.018C249.961 103.997 246.815 103.278 243.542 102.645C242.1 102.328 240.662 102.069 239.249 101.75L239.263 101.182L248.054 97.8687C250.099 98.7082 252.09 99.6754 254.013 100.765C258.891 103.596 263.348 107.097 267.255 111.165C269.689 113.795 272.357 116.198 275.227 118.345C275.343 118.469 275.471 118.578 275.612 118.672C280.735 121.187 285.779 123.827 290.921 126.191C294.913 127.991 298.777 129.488 301.752 132.935C303.497 134.974 305.561 136.733 307.327 139.039C306.626 138.924 305.937 138.744 305.27 138.501C300.497 136.531 295.591 134.899 290.589 133.617C286.187 132.297 281.789 130.65 277.401 129.121C276.896 128.967 276.428 128.706 275.912 128.598C271.507 127.65 267.278 126.015 263.382 123.75C260.392 122.513 257.333 121.447 254.222 120.559C248.873 118.405 243.509 116.237 238.34 113.712C236.118 112.314 233.994 110.764 231.987 109.072C230.237 107.884 228.281 106.937 226.533 105.972L220.394 102.509C215.1 99.7515 209.429 97.7866 203.564 96.6769C199.634 95.8106 195.617 95.4113 191.594 95.4843C189.254 95.3981 186.916 95.7254 184.69 96.4535C183.633 96.805 182.686 97.4264 181.94 98.2542C181.359 99.0086 180.569 99.5756 179.668 99.8831C172.915 102.13 166.406 105.054 160.241 108.609C157.446 110.039 154.553 111.267 151.584 112.284C150.462 112.778 149.377 113.348 148.334 113.991C144.255 116.585 139.912 118.738 135.375 120.41C137.016 117.388 139.689 115.056 142.907 113.841C143.733 113.683 144.543 113.449 145.327 113.141C146.115 112.736 146.755 112.147 147.683 112.938C148.355 113.511 149.055 113.306 149.759 112.609C150.729 111.729 151.774 110.937 152.883 110.241C155.892 108.136 158.917 106.044 161.911 103.926C162.225 103.558 162.496 103.043 162.92 102.741C163.848 101.574 165.113 100.722 166.544 100.304C167.438 99.9701 168.219 99.3905 168.798 98.6322C169.557 97.6149 170.371 96.6387 171.234 95.708C173.295 93.9567 174.876 91.7096 175.83 89.1803L175.858 89.1478ZM139.375 80.4392C136.663 85.3402 133.842 90.1749 131.05 95.008C130.709 95.4074 130.368 95.8077 130.201 96.3289L122.667 110.714C122.559 110.95 122.398 111.159 122.197 111.322C121.995 111.486 121.758 111.6 121.504 111.657C122.701 108.339 123.944 105.033 125.139 101.685C125.769 99.8747 126.355 98.0525 126.879 96.2061C127.61 93.5965 128.281 90.9617 128.966 88.3414C129.092 87.8354 129.333 87.364 129.672 86.9669C130.011 86.5698 130.436 86.2569 130.917 86.0531C132.191 85.3691 133.36 84.5144 134.795 83.6102C133.193 82.2457 131.892 84.2593 130.245 83.4355C130.626 82.6003 130.747 81.4866 131.366 81.0194C134.578 78.6446 137.892 76.4407 141.595 73.8778C141.31 76.1933 140.554 78.4257 139.375 80.4392ZM144.767 67.6277L145.229 68.1874C142.506 72.3874 137.681 73.8023 133.563 76.7863C133.347 76.1825 133.359 75.5191 133.597 74.9234C133.835 74.3273 134.283 73.8393 134.857 73.5502C138.172 71.6054 141.48 69.6255 144.78 67.6119L144.767 67.6277ZM103.55 133.796C104.133 133.032 104.757 132.299 105.42 131.604C107.531 129.146 109.329 126.437 110.772 123.538C112.419 120.675 113.772 117.654 114.811 114.518C115.732 111.298 116.571 107.978 117.274 104.819C118.497 98.6502 119.416 92.4158 120.698 86.2417C122.107 79.3655 124.758 72.8047 128.522 66.8811C130.458 63.8616 131.911 60.5688 133.74 57.5133C135.951 53.6226 138.273 49.8272 140.5 45.9502C144.094 39.9888 146.427 33.3551 147.358 26.457C147.481 26.0048 147.652 25.5663 147.864 25.1489C149.449 28.1953 150.301 31.5704 150.352 35.0044C150.148 39.5559 149.616 44.1025 149.082 48.621C148.548 53.1391 147.893 57.4728 147.261 61.879C147.145 62.8367 146.941 63.7819 146.651 64.702C146.478 65.1867 146.134 65.5912 145.683 65.839C142.275 67.4385 138.812 68.9087 135.347 70.5428C135.279 70.09 135.36 69.6274 135.578 69.2245C135.796 68.8226 136.14 68.5023 136.557 68.3127C138.21 67.3454 139.84 66.2757 141.425 65.1944C142.008 64.644 142.529 64.0321 142.98 63.3695C140.437 63.1103 139.251 65.249 137.046 64.9168L139.217 58.4788C137.601 58.399 137.309 59.6155 137.052 60.3078C136.046 62.6556 135.193 65.0505 134.324 67.4317C133.246 70.3823 132.386 73.4349 131.092 76.2826C129.163 80.7001 127.671 85.2956 126.638 90.0039C124.899 96.8114 122.408 103.171 120.096 109.71C119.18 112.245 117.74 114.583 116.595 117.061C115.84 118.628 115.163 120.234 114.378 121.803C114.001 122.584 113.541 123.321 113.002 124.001C111.621 125.428 110.331 126.94 109.143 128.531C107.273 131.494 104.829 134.053 101.956 136.057C102.509 135.311 103.012 134.525 103.564 133.78L103.55 133.796ZM120.296 125.299C122.018 123.699 123.871 122.239 125.607 120.623C128.286 118.126 130.902 115.576 133.566 113.066C134.133 112.533 134.736 112.041 135.373 111.594C138.994 108.799 141.967 105.253 144.09 101.201C143.673 101.316 143.278 101.504 142.926 101.757C141.007 103.685 139.165 105.652 137.293 107.622C136.666 108.358 136.038 109.094 135.313 109.719C130.452 113.866 125.419 118.087 120.552 122.34C119.269 123.456 118.084 124.685 116.851 125.872C116.061 126.8 115.27 127.728 114.379 128.545L113.836 128.082C114.161 127.541 114.592 127.07 115.103 126.699C115.614 126.328 116.195 126.062 116.81 125.92L116.906 125.808C116.914 125.538 116.811 125.174 116.949 125.043C121.701 120.278 126.534 115.611 131.206 110.778C133.964 107.962 136.403 104.873 139.081 101.989C141.528 99.3773 144.119 96.888 146.659 94.3283C148.135 92.8231 149.493 91.5215 150.869 90.0688C153.169 87.6623 155.401 85.1717 157.686 82.7814C158.178 82.3162 158.812 82.0301 159.487 81.9669C158.451 84.1227 157.459 86.2909 156.378 88.436C153.774 93.5666 151.171 98.6972 148.459 103.791C146.743 107.377 144.018 110.384 140.617 112.444C137.317 114.273 135.138 117.252 132.442 119.734C131.883 120.39 131.18 120.924 130.493 121.471C127.579 123.852 124.683 126.246 121.704 128.542C119.835 129.989 117.834 131.268 115.758 132.732C116.427 134.767 114.925 135.559 113.318 136.178C110.13 137.358 106.892 138.467 103.28 139.755C104.78 137.482 106.851 135.645 109.285 134.428C111.384 133.335 113.336 131.981 115.094 130.398C116.94 128.849 118.533 126.946 120.31 125.282L120.296 125.299ZM92.3946 92.9022C92.2647 93.5213 92.0238 94.1114 91.6834 94.6448C89.5494 96.7192 86.996 98.3112 84.1947 99.3148C86.1131 96.2532 89.5611 95.1577 91.846 92.5733L92.3946 92.9022ZM91.5157 91.0477C89.3184 92.4918 87.1032 93.8915 84.888 95.2913C84.7105 95.4999 84.2517 95.3572 83.7339 95.4139C83.8579 94.9116 83.8224 94.4669 84.0047 94.3176C86.7082 92.1176 89.4002 89.964 92.345 87.6105C92.8078 89.1101 92.7632 90.2325 91.5564 91.0002L91.5157 91.0477ZM64.8333 137.826C65.7602 131.875 67.5018 126.038 68.8648 120.126C69.2825 118.885 69.6147 117.618 69.86 116.331C70.4152 110.395 73.0962 105.109 74.9048 99.5494C76.381 94.7112 77.4032 89.7447 77.957 84.7167C78.6244 80.3669 79.1002 76.0471 79.7806 71.6823C80.0751 70.1701 80.5061 68.6875 81.0682 67.2528C82.2062 64.1343 83.5594 61.0872 84.5905 57.9315C86.0219 54.6773 88.0407 51.7145 90.5459 49.1919C93.7888 61.5984 92.649 73.6683 92.6905 85.584L84.0162 91.289C84.9207 89.6453 86.2261 88.2586 87.8115 87.2566C89.0765 86.0962 90.3574 84.9496 91.7362 83.7209C91.0651 82.7899 90.4954 82.9395 89.751 83.5214C88.3108 84.7236 86.7631 85.7908 85.1275 86.71C85.8189 85.0188 87.0712 83.6181 88.6747 82.7415C89.5037 82.2875 90.1523 81.8182 89.5231 80.4817C88.1273 81.3092 86.8616 82.081 85.04 83.1809C85.363 79.754 85.6698 77.0599 85.9146 74.1461C84.8076 73.9214 84.2651 74.7849 84.0948 75.8278C83.8371 77.4596 83.8056 79.1174 83.6393 80.7717C83.3929 83.1037 83.1029 85.4545 82.8564 87.7865C82.6099 90.1184 82.32 92.2741 82.2602 94.5168C82.2004 96.7594 82.4806 99.7053 82.4036 102.292C82.3612 103.6 82.1014 104.891 81.6346 106.113C80.0282 110.657 78.3145 115.164 76.6145 119.656C75.5392 122.896 73.9778 125.953 71.9827 128.723C70.5616 130.908 69.5521 133.334 69.0041 135.883C67.7328 140.325 66.5557 145.013 65.4304 149.609C65.1814 151.449 64.6007 153.229 63.7168 154.862C64.0278 148.856 63.9706 143.281 64.874 137.779L64.8333 137.826ZM29.6479 207.035C28.9859 207.437 28.2044 207.594 27.4382 207.481C26.6719 207.368 25.9692 206.99 25.4515 206.414C25.2824 206.159 25.1716 205.869 25.1268 205.565C25.0816 205.261 25.1039 204.951 25.1912 204.657C25.2786 204.363 25.4292 204.092 25.6326 203.862C25.8361 203.633 26.0871 203.45 26.3685 203.328C26.9965 203.004 27.7219 202.927 28.404 203.109C29.0861 203.292 29.676 203.722 30.0575 204.317C30.7589 205.439 30.6021 206.466 29.689 206.986L29.6479 207.035ZM48.3895 186.727C45.1156 189.628 41.7638 192.492 38.6841 195.587C36.435 197.87 34.5242 200.469 32.4379 203.112L28.95 200.72C29.2785 200.187 29.6526 199.683 30.0681 199.213C31.965 197.376 33.9445 195.637 35.8413 193.8C40.1907 189.604 44.5398 185.408 48.809 181.144C49.7916 180.185 50.3827 178.811 51.3609 177.792C53.1916 175.871 55.1822 174.086 57.0746 172.189C57.7014 171.607 58.2221 170.919 58.6129 170.158C59.3381 168.593 59.8898 166.908 60.5535 165.319C61.1944 163.317 62.2161 161.457 63.5625 159.842C64.4422 158.754 65.1214 157.518 65.5683 156.191C66.3651 154.335 67.0601 152.437 67.6505 150.505C68.3913 148.015 68.9497 145.479 69.5671 142.939L71.327 135.459L77.6891 131.624C76.1703 130.164 75.0785 131.997 73.8167 131.889C74.1115 129.597 74.1241 129.388 77.2669 127.645C78.8841 126.785 80.2592 125.139 82.6122 125.458L83.0398 123.529C80.4164 122.62 79.234 125.564 76.8161 125.548C76.8189 125.087 76.9389 124.634 77.1656 124.232C77.3918 123.83 77.7168 123.493 78.1097 123.251C79.92 122.197 81.7695 121.259 83.516 120.149C84.0234 119.88 84.4456 119.474 84.7351 118.978C85.0953 118.187 85.3939 117.371 85.6291 116.535C83.4772 117.796 81.3255 119.056 79.1892 120.331L78.7519 119.709C79.414 116.047 83.0925 115.783 85.5807 114.063C85.7726 113.286 85.3241 112.905 84.5925 113.082C83.1751 113.448 81.7848 113.978 79.9278 114.633C81.0798 111.498 82.2283 108.691 83.2551 105.67C85.8297 105.114 88.1206 103.656 89.7144 101.559C88.5775 99.6515 87.626 101.935 86.4776 101.565C87.703 99.8197 89.3435 98.4071 91.2514 97.4536C92.0454 99.181 91.149 100.654 90.6735 101.991C89.0969 106.154 87.8574 110.439 86.9673 114.802C86.7696 115.364 86.5071 115.9 86.1851 116.401C86.4708 118.648 86.076 120.93 85.0523 122.951C84.2836 124.798 83.4115 126.601 82.4403 128.35L79.2426 134.827C77.0108 140.688 74.7921 146.534 72.2494 152.242C71.1066 154.313 69.7409 156.253 68.1761 158.027C65.3286 161.567 62.8789 165.409 60.8711 169.485C60.5153 170.26 60.564 171.24 60.1281 171.946C58.8404 173.944 58.3422 176.668 56.7105 178.097C53.7278 180.721 51.411 184.024 48.4302 186.679L48.3895 186.727ZM82.2316 167.407C77.9254 168.213 73.6649 169.224 69.3454 170.24C68.3492 170.469 67.3647 170.847 65.8651 171.309C66.1819 170.818 66.5628 170.371 66.9972 169.981C70.2173 167.702 73.8749 166.114 77.7386 165.319C80.0022 164.854 82.2311 164.233 84.4076 163.459C91.8141 161.668 99.3288 160.366 106.906 159.56C107.251 159.519 107.598 159.502 107.945 159.506L108.236 159.975C107.824 160.344 107.381 160.679 106.914 160.976C104.54 162.075 102.231 163.23 99.7565 164.187C98.9636 164.507 98.1348 164.729 97.2879 164.847C92.2539 165.697 87.2562 166.439 82.273 167.359L82.2316 167.407ZM96.0633 168.749C94.1054 168.615 92.1592 168.342 90.2396 167.931L90.2648 167.317C91.084 167.297 91.8818 167.203 92.6894 167.228C93.497 167.253 93.9703 167.574 94.4945 167.412C102.197 164.858 110.326 165.045 118.265 164.321C122.088 163.986 125.95 164.155 129.714 163.854C133.479 163.554 137.189 163.123 140.917 162.737C142.56 162.561 144.233 162.412 145.852 162.134C146.617 161.916 147.358 161.622 148.064 161.256C148.766 160.853 149.53 160.571 150.325 160.419C152.989 160.158 155.595 159.466 158.038 158.371C160.154 157.865 162.304 157.509 164.471 157.306C166.201 157.024 167.903 156.599 169.561 156.034C170.431 155.57 171.135 154.846 171.574 153.963C177.016 152.486 182.444 151.023 187.857 149.576L188.016 150.071C185.373 151.162 182.73 152.253 180.085 153.314L162.499 160.432C158.41 161.993 154.16 163.097 149.828 163.726C141.964 165.01 134.133 166.321 126.241 167.443C116.237 168.568 106.166 168.989 96.1039 168.701L96.0633 168.749ZM194.518 202.36C194.891 202.127 195.285 201.926 195.693 201.759C198.161 201.099 200.759 200.385 203.276 199.572C204.918 199.038 206.497 198.256 208.114 197.589L211.284 196.367C211.895 196.194 212.496 195.986 213.084 195.746C222.177 191.365 231.702 187.905 240.384 182.677C242.332 181.681 244.34 180.808 246.396 180.063C250.725 178.226 254.737 176.339 258.922 174.573C260.513 173.909 262.191 173.478 263.906 173.295L264.23 174.179C263.675 174.507 263.167 174.875 262.607 175.144C259.073 176.72 255.529 178.305 251.978 179.901C249.814 180.82 247.444 181.785 245.232 182.856C242.473 184.18 239.823 185.734 237.103 186.981C233.452 188.705 229.761 190.312 226.068 191.89C221.107 194.017 216.004 195.886 211.132 198.199C206.461 200.387 201.505 201.913 196.412 202.731C196.087 202.793 195.754 202.786 195.432 202.712C195.11 202.637 194.807 202.497 194.542 202.298L194.518 202.36ZM79.2043 133.413L79.3156 134.806C79.0148 134.964 78.6985 135.108 77.8372 135.536C78.3338 134.466 78.5716 133.896 78.8393 133.322L79.2043 133.413Z" fill="#101A24"/>
</svg>
